<?xml version="1.0" encoding="UTF-8" standalone="no"?>
<svg width="87px" height="87px" viewBox="0 0 87 87" version="1.1" xmlns="http://www.w3.org/2000/svg" xmlns:xlink="http://www.w3.org/1999/xlink">
    <!-- Generator: Sketch 47.1 (45422) - http://www.bohemiancoding.com/sketch -->
    <title>Group 2 Copy 4</title>
    <desc>Created with Sketch.</desc>
    <defs></defs>
    <g id="Page-1" stroke="none" stroke-width="1" fill="none" fill-rule="evenodd">
        <g id="Act-Page-Design" transform="translate(-709.000000, -2417.000000)">
            <g id="Group-2-Copy-4" transform="translate(709.000000, 2417.000000)">
                <circle id="Oval-3-Copy" fill="#C9DEDF" cx="43.5" cy="43.5" r="43.5"></circle>
                <g id="Group-8" transform="translate(16.000000, 20.000000)">
                    <rect id="Rectangle" fill="#06496B" x="0" y="36" width="55" height="4" rx="2"></rect>
                    <g id="Group-7">
                        <g id="Group-572" fill="#06496B">
                            <path d="M27.5,37 C28.8775,37 30,37.672 30,38.5 C30,39.328 28.8775,40 27.5,40 C26.12,40 25,39.328 25,38.5 C25,37.672 26.12,37 27.5,37 L27.5,37 Z M0,36 L0,39.5035 C0,41.6155 2.05333333,43.3333333 4.58333333,43.3333333 L26.3541667,43.3333333 L26.3541667,45.1666667 L11.4583333,45.1666667 C10.8258333,45.1666667 10.3125,45.5773333 10.3125,46.0833333 C10.3125,46.5893333 10.8258333,47 11.4583333,47 L43.5416667,47 C44.1741667,47 44.6875,46.5893333 44.6875,46.0833333 C44.6875,45.5773333 44.1741667,45.1666667 43.5416667,45.1666667 L28.6458333,45.1666667 L28.6458333,43.3333333 L50.4166667,43.3333333 C52.944375,43.3333333 55,41.6155 55,39.5035 L55,36 L0,36 Z" id="Fill-315"></path>
                            <path d="M50.4166667,0 L4.58333333,0 C2.05333333,0 0,2.27557143 0,5.07328571 L0,34 L55,34 L55,5.07328571 C55,2.27557143 52.944375,0 50.4166667,0" id="Fill-316"></path>
                        </g>
                        <g id="Group-1231" transform="translate(15.000000, 6.000000)" fill="#FFFFFF">
                            <path d="M23.8576154,14.4076923 L18.5013077,20.1053077 C18.2423846,20.3786154 17.8213077,20.3733846 17.5702308,20.1275385 L13.7452308,16.4123846 C13.4863077,16.1639231 13.4797692,15.7467692 13.7321538,15.4891538 C13.9819231,15.2302308 14.3964615,15.2236923 14.6566923,15.4747692 L18.0043846,18.7256923 L22.9056154,13.5106154 C23.1514615,13.2477692 23.5673077,13.236 23.8288462,13.4831538 C24.0916923,13.7303077 24.1047692,14.1448462 23.8576154,14.4076923 M18.5,8 C13.8132308,8 10,11.8132308 10,16.5 C10,21.1867692 13.8132308,25 18.5,25 C23.1867692,25 27,21.1867692 27,16.5 C27,11.8132308 23.1867692,8 18.5,8" id="Fill-4463"></path>
                            <g id="Group-6" transform="translate(0.000000, 5.428571)">
                                <path d="M0.711567047,1 C0.318782037,1 0,0.776 0,0.5 C0,0.224 0.318782037,0 0.711567047,0 L12.0966398,0 C12.4894248,0 12.8082068,0.224 12.8082068,0.5 C12.8082068,0.776 12.4894248,1 12.0966398,1 L0.711567047,1 Z" id="Fill-4464"></path>
                                <path d="M11.711567,1 C11.318782,1 11,0.776 11,0.5 C11,0.224 11.318782,0 11.711567,0 L23.0966398,0 C23.4894248,0 23.8082068,0.224 23.8082068,0.5 C23.8082068,0.776 23.4894248,1 23.0966398,1 L11.711567,1 Z" id="Fill-4464-Copy-3"></path>
                            </g>
                            <g id="Group-5" transform="translate(0.000000, 2.714286)">
                                <path d="M12.0966398,1 L0.711567047,1 C0.318782037,1 0,0.776 0,0.5 C0,0.224 0.318782037,0 0.711567047,0 L12.0966398,0 C12.4894248,0 12.8082068,0.224 12.8082068,0.5 C12.8082068,0.776 12.4894248,1 12.0966398,1" id="Fill-4464-Copy"></path>
                                <path d="M23.0966398,1 L11.711567,1 C11.318782,1 11,0.776 11,0.5 C11,0.224 11.318782,0 11.711567,0 L23.0966398,0 C23.4894248,0 23.8082068,0.224 23.8082068,0.5 C23.8082068,0.776 23.4894248,1 23.0966398,1" id="Fill-4464-Copy-4"></path>
                            </g>
                            <path d="M0.722222222,1 C0.323555556,1 0,0.776 0,0.5 C0,0.224 0.323555556,0 0.722222222,0 L12.2777778,0 C12.6764444,0 13,0.224 13,0.5 C13,0.776 12.6764444,1 12.2777778,1 L0.722222222,1 Z" id="Fill-4464-Copy-2"></path>
                            <path d="M11.7222222,1 C11.3235556,1 11,0.776 11,0.5 C11,0.224 11.3235556,0 11.7222222,0 L23.2777778,0 C23.6764444,0 24,0.224 24,0.5 C24,0.776 23.6764444,1 23.2777778,1 L11.7222222,1 Z" id="Fill-4464-Copy-5"></path>
                            <path d="M11.2,9.14285714 L0.8,9.14285714 C0.3584,9.14285714 0,8.91885714 0,8.64285714 C0,8.36685714 0.3584,8.14285714 0.8,8.14285714 L11.2,8.14285714 C11.6416,8.14285714 12,8.36685714 12,8.64285714 C12,8.91885714 11.6416,9.14285714 11.2,9.14285714" id="Fill-4465"></path>
                            <path d="M9.16666667,11.8571429 L0.833333333,11.8571429 C0.373333333,11.8571429 0,11.6331429 0,11.3571429 C0,11.0811429 0.373333333,10.8571429 0.833333333,10.8571429 L9.16666667,10.8571429 C9.62666667,10.8571429 10,11.0811429 10,11.3571429 C10,11.6331429 9.62666667,11.8571429 9.16666667,11.8571429" id="Fill-4466"></path>
                            <path d="M7.33333333,17.2857143 L0.666666667,17.2857143 C0.298666667,17.2857143 0,17.0617143 0,16.7857143 C0,16.5097143 0.298666667,16.2857143 0.666666667,16.2857143 L7.33333333,16.2857143 C7.70133333,16.2857143 8,16.5097143 8,16.7857143 C8,17.0617143 7.70133333,17.2857143 7.33333333,17.2857143" id="Fill-4466-Copy"></path>
                            <path d="M8.18181818,14.5714286 L0.818181818,14.5714286 C0.366545455,14.5714286 0,14.3474286 0,14.0714286 C0,13.7954286 0.366545455,13.5714286 0.818181818,13.5714286 L8.18181818,13.5714286 C8.63345455,13.5714286 9,13.7954286 9,14.0714286 C9,14.3474286 8.63345455,14.5714286 8.18181818,14.5714286" id="Fill-4467"></path>
                            <path d="M7.27272727,20 L0.727272727,20 C0.325818182,20 0,19.776 0,19.5 C0,19.224 0.325818182,19 0.727272727,19 L7.27272727,19 C7.67418182,19 8,19.224 8,19.5 C8,19.776 7.67418182,20 7.27272727,20" id="Fill-4467-Copy"></path>
                        </g>
                    </g>
                </g>
            </g>
        </g>
    </g>
</svg>