<?xml version="1.0" encoding="UTF-8" standalone="no"?>
<svg width="20px" height="16px" viewBox="0 0 20 16" version="1.1" xmlns="http://www.w3.org/2000/svg" xmlns:xlink="http://www.w3.org/1999/xlink">
    <!-- Generator: Sketch 47.1 (45422) - http://www.bohemiancoding.com/sketch -->
    <title>Fill 9</title>
    <desc>Created with Sketch.</desc>
    <defs></defs>
    <g id="Symbols" stroke="none" stroke-width="1" fill="none" fill-rule="evenodd">
        <g id="Header" transform="translate(-899.000000, -32.000000)" fill="#6BA9F0">
            <path d="M919,33.8938955 C918.264357,34.215606 917.473499,34.4326107 916.643262,34.5297232 C917.490551,34.0301728 918.140937,33.238885 918.447455,32.2953342 C917.654568,32.7581177 916.77683,33.0946148 915.841849,33.2756519 C915.09362,32.4907583 914.027099,32 912.846903,32 C910.581105,32 908.743621,33.8087721 908.743621,36.0391648 C908.743621,36.3556799 908.78016,36.6638026 908.849989,36.9595364 C905.439721,36.7912878 902.415951,35.1835348 900.392526,32.7393346 C900.03932,33.3359976 899.836733,34.0293736 899.836733,34.7699071 C899.836733,36.1714457 900.561415,37.4075332 901.662038,38.1320811 C900.989729,38.1109002 900.356799,37.9294635 899.803849,37.6265361 C899.803443,37.643321 899.803443,37.6605055 899.803443,37.6776901 C899.803443,39.6343291 901.217892,41.2668598 903.095163,41.6381257 C902.750888,41.7304426 902.388344,41.779998 902.014027,41.779998 C901.749325,41.779998 901.492337,41.7548207 901.241845,41.7072635 C901.76394,43.3118194 903.27948,44.479968 905.074742,44.5123389 C903.670442,45.5957638 901.901163,46.2415826 899.978422,46.2415826 C899.647545,46.2415826 899.321134,46.2223998 899,46.1852333 C900.815967,47.3314017 902.972555,48 905.289913,48 C912.837566,48 916.964395,41.8451394 916.964395,36.5075432 C916.964395,36.3329004 916.960741,36.1582576 916.953028,35.9848137 C917.75444,35.4157258 918.450297,34.7039664 919,33.8938955" id="Fill-9"></path>
        </g>
    </g>
</svg>
