<?xml version="1.0" encoding="UTF-8" standalone="no"?>
<svg width="28px" height="24px" viewBox="0 0 28 24" version="1.1" xmlns="http://www.w3.org/2000/svg" xmlns:xlink="http://www.w3.org/1999/xlink">
    <!-- Generator: Sketch 47.1 (45422) - http://www.bohemiancoding.com/sketch -->
    <title>Group 223</title>
    <desc>Created with Sketch.</desc>
    <defs></defs>
    <g id="Page-1" stroke="none" stroke-width="1" fill="none" fill-rule="evenodd" stroke-linecap="round" stroke-linejoin="round">
        <g id="Resource-Detail-Page-Design" transform="translate(-178.000000, -624.000000)" stroke="#06496B" stroke-width="2">
            <g id="Group-223" transform="translate(179.000000, 625.000000)">
                <path d="M25.4583333,21.0689655 L0.541666667,21.0689655 L0.541666667,14.7931034 L8.66666667,14.7931034 L8.66666667,15.6896552 C8.66666667,16.6758621 9.64166667,17.4827586 10.8333333,17.4827586 L15.7083333,17.4827586 C16.9,17.4827586 17.875,16.6758621 17.875,15.6896552 L17.875,14.7931034 L25.4583333,14.7931034 L25.4583333,21.0689655 L25.4583333,21.0689655 Z" id="Stroke-504"></path>
                <polyline id="Stroke-505" points="0.541666667 14.7931034 4.33333333 9.4137931 7.04166667 9.4137931"></polyline>
                <polyline id="Stroke-506" points="18.4166667 9.4137931 21.6666667 9.4137931 25.4583333 14.7931034"></polyline>
                <g id="Group" transform="translate(8.965517, 0.000000)">
                    <path d="M4.38936782,10.3103448 L4.38936782,0.448275862" id="Stroke-507"></path>
                    <polyline id="Stroke-508" points="8.72270115 6.72413793 4.38936782 10.3103448 0.0560344828 6.72413793"></polyline>
                </g>
            </g>
        </g>
    </g>
</svg>