<?xml version="1.0" encoding="UTF-8" standalone="no"?>
<svg width="87px" height="87px" viewBox="0 0 87 87" version="1.1" xmlns="http://www.w3.org/2000/svg" xmlns:xlink="http://www.w3.org/1999/xlink">
    <!-- Generator: Sketch 47.1 (45422) - http://www.bohemiancoding.com/sketch -->
    <title>Group 2 Copy 3</title>
    <desc>Created with Sketch.</desc>
    <defs></defs>
    <g id="Page-1" stroke="none" stroke-width="1" fill="none" fill-rule="evenodd">
        <g id="Act-Page-Design" transform="translate(-481.000000, -2417.000000)">
            <g id="Group-2-Copy-3" transform="translate(481.000000, 2417.000000)">
                <circle id="Oval-3-Copy" fill="#C9DEDF" cx="43.5" cy="43.5" r="43.5"></circle>
                <g id="Group-4" transform="translate(17.000000, 17.000000)">
                    <circle id="Oval" fill="#FFFFFF" cx="20" cy="20" r="16"></circle>
                    <g id="Group-41" fill="#06496B">
                        <path d="M19.875101,4.41662031 C28.3971027,4.41662031 35.3335129,11.3507142 35.3335129,19.8747914 C35.3335129,28.3966603 28.3971027,35.3329625 19.875101,35.3329625 C11.350891,35.3329625 4.41668912,28.3966603 4.41668912,19.8747914 C4.41668912,11.3507142 11.350891,4.41662031 19.875101,4.41662031 M32.3147059,35.3506289 L49.2262086,52.3502005 C50.0852546,53.2136498 51.4809284,53.2180664 52.3488078,52.3546171 C53.2144788,51.4955845 53.2166872,50.0977241 52.3576411,49.2320666 L35.4240551,32.2148285 C38.1248605,28.8228641 39.7502021,24.5365341 39.7502021,19.8747914 C39.7502021,8.91494809 30.8351151,0 19.875101,0 C8.91508698,0 0,8.91494809 0,19.8747914 C0,30.8324264 8.91508698,39.7495828 19.875101,39.7495828 C24.5810833,39.7495828 28.9050219,38.0955585 32.3147059,35.3506289 Z" id="Fill-119"></path>
                    </g>
                </g>
            </g>
        </g>
    </g>
</svg>