<?xml version="1.0" encoding="UTF-8" standalone="no"?>
<svg width="27px" height="22px" viewBox="0 0 27 22" version="1.1" xmlns="http://www.w3.org/2000/svg" xmlns:xlink="http://www.w3.org/1999/xlink">
    <!-- Generator: Sketch 47.1 (45422) - http://www.bohemiancoding.com/sketch -->
    <title>Fill 1</title>
    <desc>Created with Sketch.</desc>
    <defs></defs>
    <g id="Symbols" stroke="none" stroke-width="1" fill="none" fill-rule="evenodd">
        <g id="Follow-Us-on-Twitter" transform="translate(-248.000000, -17.000000)" fill="#E68049">
            <path d="M271.818377,20.4789224 C272.962154,19.7911964 273.840423,18.702957 274.253969,17.4060235 C273.183696,18.042437 271.998015,18.5045943 270.736426,18.7535808 C269.725918,17.6742952 268.286409,17 266.693021,17 C263.634019,17 261.153432,19.4864205 261.153432,22.5534649 C261.153432,22.9891051 261.202549,23.4130363 261.297005,23.8194042 C256.69339,23.5876368 252.611515,21.3767199 249.879503,18.0166085 C249.402758,18.8365762 249.129694,19.790852 249.129694,20.808838 C249.129694,22.7356417 250.107572,24.4354993 251.593795,25.431445 C250.685643,25.4025171 249.83176,25.1528419 249.084699,24.7368314 C249.084355,24.7599048 249.084355,24.7833226 249.084355,24.8063961 C249.084355,27.497378 250.993741,29.742044 253.527911,30.2524146 C253.062843,30.3794906 252.573733,30.4473334 252.068479,30.4473334 C251.711607,30.4473334 251.364352,30.4125511 251.026371,30.3478077 C251.731185,32.5542476 253.776931,34.1600895 256.200845,34.2045145 C254.305198,35.6943005 251.916662,36.582111 249.321354,36.582111 C248.874148,36.582111 248.433124,36.5559382 248,36.5046256 C250.451392,38.0805066 253.363042,39 256.491082,39 C266.679969,39 272.252188,30.5372165 272.252188,23.1977991 C272.252188,22.9567334 272.246349,22.7173896 272.236045,22.4790789 C273.318339,21.6959598 274.257404,20.7179218 275,19.6041983 C274.006666,20.0460373 272.939141,20.34427 271.818377,20.4789224 Z" id="Fill-1"></path>
        </g>
    </g>
</svg>