<?xml version="1.0" encoding="UTF-8" standalone="no"?>
<svg width="134px" height="134px" viewBox="0 0 134 134" version="1.1" xmlns="http://www.w3.org/2000/svg" xmlns:xlink="http://www.w3.org/1999/xlink">
    <!-- Generator: Sketch 47.1 (45422) - http://www.bohemiancoding.com/sketch -->
    <title>Group 11</title>
    <desc>Created with Sketch.</desc>
    <defs></defs>
    <g id="Page-1" stroke="none" stroke-width="1" fill="none" fill-rule="evenodd">
        <g id="Home-Design" transform="translate(-572.000000, -1465.000000)">
            <g id="Group-11" transform="translate(572.000000, 1465.000000)">
                <circle id="Oval-3" fill="#FFFFFF" cx="67" cy="67" r="67"></circle>
                <circle id="Oval-4" fill="#F2B892" cx="45" cy="46" r="12"></circle>
                <path d="M54.5,56 C56.1666667,53.9106622 57,51.5773288 57,49 C57,46.4226712 56.1666667,44.0893378 54.5,42 C52.8333333,44.0893378 52,46.4226712 52,49 C52,51.5773288 52.8333333,53.9106622 54.5,56 Z" id="Oval-5" fill="#FFFFFF" transform="translate(54.500000, 49.000000) rotate(20.000000) translate(-54.500000, -49.000000) "></path>
                <path d="M60,67.8353823 C50.2936288,60.3278729 40.4542936,60.0644515 30.4819945,67.0451181 C25.2070538,70.7376068 25.0651099,76.9996152 24.7977839,78.8002973 C24.465374,81.039379 24.199446,84.0687249 24,87.8883349 C24.465374,89.6664293 25.6620499,90.6542594 27.5900277,90.8518255 C29.5180055,91.0493915 34.6371191,91.0493915 42.9473684,90.8518255 C43.6520705,83.3902318 44.9484694,78.3852255 46.8365651,75.8368067 C48.7246608,73.2883879 53.1124724,70.6212464 60,67.8353823 Z" id="Path-12" fill="#F2B892"></path>
                <path d="M109,67.8353823 C99.2936288,60.3278729 89.4542936,60.0644515 79.4819945,67.0451181 C74.2070538,70.7376068 74.0651099,76.9996152 73.7977839,78.8002973 C73.465374,81.039379 73.199446,84.0687249 73,87.8883349 C73.465374,89.6664293 74.6620499,90.6542594 76.5900277,90.8518255 C78.5180055,91.0493915 83.6371191,91.0493915 91.9473684,90.8518255 C92.6520705,83.3902318 93.9484694,78.3852255 95.8365651,75.8368067 C97.7246608,73.2883879 102.112472,70.6212464 109,67.8353823 Z" id="Path-12-Copy" fill="#F2B892" transform="translate(91.000000, 76.500000) scale(-1, 1) translate(-91.000000, -76.500000) "></path>
                <g id="Group-10" transform="translate(87.500000, 46.000000) scale(-1, 1) translate(-87.500000, -46.000000) translate(75.000000, 34.000000)">
                    <ellipse id="Oval-4" fill="#F2B892" cx="11.6141732" cy="12" rx="11.6141732" ry="12"></ellipse>
                    <path d="M20.5258128,22.863739 C21.9340325,20.4196891 22.6381424,17.9058795 22.6381424,15.3223102 C22.6381424,12.7387409 21.8720723,10.3997578 20.3399323,8.30536105 C18.8077922,10.3997578 18.0417222,12.7387409 18.0417222,15.3223102 C18.0417222,17.9058795 18.8697524,20.4196891 20.5258128,22.863739 Z" id="Oval-5" fill="#FFFFFF" transform="translate(20.339932, 15.584550) rotate(20.000000) translate(-20.339932, -15.584550) "></path>
                </g>
                <circle id="Oval-4-Copy" fill="#F2B892" cx="67" cy="54" r="12"></circle>
                <path d="M46.1061945,94.0156753 C45.5162249,98.1339203 47.384462,100.126619 51.7109059,99.9937728 C56.0373498,99.8609262 66.3618181,99.8609262 82.6843108,99.9937728 C86.1585763,99.7945029 87.5351721,97.8018037 86.8140981,94.0156753 C85.7324872,88.3364827 85.3405421,71 66.5099945,71 C53.956296,71 47.1550294,78.6718918 46.1061945,94.0156753 Z" id="Path-11" fill="#F2B892"></path>
            </g>
        </g>
    </g>
</svg>