<?xml version="1.0" encoding="UTF-8" standalone="no"?>
<svg width="133px" height="133px" viewBox="0 0 133 133" version="1.1" xmlns="http://www.w3.org/2000/svg" xmlns:xlink="http://www.w3.org/1999/xlink">
    <!-- Generator: Sketch 47.1 (45422) - http://www.bohemiancoding.com/sketch -->
    <title>Group 11</title>
    <desc>Created with Sketch.</desc>
    <defs></defs>
    <g id="Page-1" stroke="none" stroke-width="1" fill="none" fill-rule="evenodd">
        <g id="News-Page-Design" transform="translate(-583.000000, -1058.000000)">
            <g id="Group-11" transform="translate(583.000000, 1058.000000)">
                <circle id="Oval-3" fill="#FCF6EC" cx="66.5" cy="66.5" r="66.5"></circle>
                <path d="M54.5,61 C56.1666667,58.9106622 57,56.5773288 57,54 C57,51.4226712 56.1666667,49.0893378 54.5,47 C52.8333333,49.0893378 52,51.4226712 52,54 C52,56.5773288 52.8333333,58.9106622 54.5,61 Z" id="Oval-5" fill="#FCF6EC" transform="translate(54.500000, 54.000000) rotate(20.000000) translate(-54.500000, -54.000000) "></path>
                <g id="Group-6" transform="translate(31.000000, 26.000000)" fill="#E68049">
                    <path d="M45.6073753,12.6666667 L11.0086768,12.6666667 C10.140564,12.6666667 9.43600868,11.9573333 9.43600868,11.0833333 C9.43600868,10.2093333 10.140564,9.5 11.0086768,9.5 L45.6073753,9.5 C46.4754881,9.5 47.1800434,10.2093333 47.1800434,11.0833333 C47.1800434,11.9573333 46.4754881,12.6666667 45.6073753,12.6666667 L45.6073753,12.6666667 Z M45.6073753,28.5 L36.1713666,28.5 C35.3032538,28.5 34.5986985,27.7906667 34.5986985,26.9166667 C34.5986985,26.0426667 35.3032538,25.3333333 36.1713666,25.3333333 L45.6073753,25.3333333 C46.4754881,25.3333333 47.1800434,26.0426667 47.1800434,26.9166667 C47.1800434,27.7906667 46.4754881,28.5 45.6073753,28.5 L45.6073753,28.5 Z M45.6073753,34.8333333 L33.0260304,34.8333333 C32.1579176,34.8333333 31.4533623,34.124 31.4533623,33.25 C31.4533623,32.376 32.1579176,31.6666667 33.0260304,31.6666667 L45.6073753,31.6666667 C46.4754881,31.6666667 47.1800434,32.376 47.1800434,33.25 C47.1800434,34.124 46.4754881,34.8333333 45.6073753,34.8333333 L45.6073753,34.8333333 Z M45.6073753,41.1666667 L33.0260304,41.1666667 C32.1579176,41.1666667 31.4533623,40.4573333 31.4533623,39.5833333 C31.4533623,38.7093333 32.1579176,38 33.0260304,38 L45.6073753,38 C46.4754881,38 47.1800434,38.7093333 47.1800434,39.5833333 C47.1800434,40.4573333 46.4754881,41.1666667 45.6073753,41.1666667 L45.6073753,41.1666667 Z M45.6073753,47.5 L11.0086768,47.5 C10.140564,47.5 9.43600868,46.7906667 9.43600868,45.9166667 C9.43600868,45.0426667 10.140564,44.3333333 11.0086768,44.3333333 L45.6073753,44.3333333 C46.4754881,44.3333333 47.1800434,45.0426667 47.1800434,45.9166667 C47.1800434,46.7906667 46.4754881,47.5 45.6073753,47.5 L45.6073753,47.5 Z M45.6073753,53.8333333 L11.0086768,53.8333333 C10.140564,53.8333333 9.43600868,53.124 9.43600868,52.25 C9.43600868,51.376 10.140564,50.6666667 11.0086768,50.6666667 L45.6073753,50.6666667 C46.4754881,50.6666667 47.1800434,51.376 47.1800434,52.25 C47.1800434,53.124 46.4754881,53.8333333 45.6073753,53.8333333 L45.6073753,53.8333333 Z M45.6073753,60.1666667 L11.0086768,60.1666667 C10.140564,60.1666667 9.43600868,59.4573333 9.43600868,58.5833333 C9.43600868,57.7093333 10.140564,57 11.0086768,57 L45.6073753,57 C46.4754881,57 47.1800434,57.7093333 47.1800434,58.5833333 C47.1800434,59.4573333 46.4754881,60.1666667 45.6073753,60.1666667 L45.6073753,60.1666667 Z M9.43600868,20.5833333 C9.43600868,19.7093333 10.140564,19 11.0086768,19 L26.7353579,19 C27.6034707,19 28.308026,19.7093333 28.308026,20.5833333 L28.308026,39.5833333 C28.308026,40.4573333 27.6034707,41.1666667 26.7353579,41.1666667 L11.0086768,41.1666667 C10.140564,41.1666667 9.43600868,40.4573333 9.43600868,39.5833333 L9.43600868,20.5833333 Z M53.4707158,0 L1.57266811,0 C0.704555315,0 0,0.709333333 0,1.58333333 L0,64.9166667 C0,71.0315 4.93817787,76 11.0086768,76 L58,76 C55.3421909,73.2735 53.4707158,69.122 53.4707158,64.9166667 L53.4707158,0 Z" id="Fill-1656"></path>
                    <path d="M66,65.4 C66,66.2832 65.325,67 64.5,67 C63.672,67 63,66.2832 63,65.4 L63,19 L66,19 L66,65.4 Z M72.5833333,9.34782609 L62.6666667,9.34782609 L62.6666667,4.58695652 C62.6666667,3.71095652 62.032,3 61.25,3 L57,3 L57,64.8913043 C57,70.2901304 60.6408333,76 64.0833333,76 C69.5516667,76 74,71.0201304 74,64.8913043 L74,10.9347826 C74,10.0587826 73.3653333,9.34782609 72.5833333,9.34782609 L72.5833333,9.34782609 Z" id="Fill-1657"></path>
                </g>
            </g>
        </g>
    </g>
</svg>