<?xml version="1.0" encoding="UTF-8" standalone="no"?>
<svg width="133px" height="133px" viewBox="0 0 133 133" version="1.1" xmlns="http://www.w3.org/2000/svg" xmlns:xlink="http://www.w3.org/1999/xlink">
    <!-- Generator: Sketch 47.1 (45422) - http://www.bohemiancoding.com/sketch -->
    <title>Group</title>
    <desc>Created with Sketch.</desc>
    <defs></defs>
    <g id="Page-1" stroke="none" stroke-width="1" fill="none" fill-rule="evenodd">
        <g id="About-Us-Design" transform="translate(-576.000000, -1854.000000)">
            <g id="Group" transform="translate(576.000000, 1854.000000)">
                <circle id="Oval-3" fill="#FFFFFF" cx="66.5" cy="66.5" r="66.5"></circle>
                <path d="M53.5,57 C55.1666667,54.9106622 56,52.5773288 56,50 C56,47.4226712 55.1666667,45.0893378 53.5,43 C51.8333333,45.0893378 51,47.4226712 51,50 C51,52.5773288 51.8333333,54.9106622 53.5,57 Z" id="Oval-5" fill="#FFFFFF" transform="translate(53.500000, 50.000000) rotate(20.000000) translate(-53.500000, -50.000000) "></path>
                <g id="Group-21" transform="translate(12.000000, 33.000000)">
                    <circle id="Oval-6" fill="#F2B892" cx="18.5" cy="8.5" r="8.5"></circle>
                    <circle id="Oval-6-Copy" fill="#F2B892" cx="54.5" cy="8.5" r="8.5"></circle>
                    <circle id="Oval-6-Copy-2" fill="#F2B892" cx="90.5" cy="8.5" r="8.5"></circle>
                    <path d="" id="Path-3" fill="#E68049"></path>
                    <path d="M30,19.0000205 L22,19.0000205 L18.5,25.5000205 L15,19.0000205 L9.69229396,19.0000205 L9.69229396,19 C7.79691058,19 6.1115908,20.2060209 5.5,22.0000205 C5.5,22.0000205 5.5,22.0000205 5.5,22.0000205 C5.07737462,23.2397217 3.24404128,29.573055 0,41.0000205 C1.52839553,42.1492272 2.69506219,42.9825605 3.5,43.5000205 C4.30493781,44.0174806 5.47160447,44.6841472 7,45.5000205 L9,38.0000205 L9,46.5000205 C10.9956302,46.9992922 12.4956302,47.3326256 13.5,47.5000205 C14.5043698,47.6674155 16.1710365,47.8340822 18.5,48.0000205 L21,40.5000205 C21.6666667,37.8333539 23.1666667,36.5000205 25.5,36.5000205 C27.8333333,36.5000205 29.8333333,36.5000205 31.5,36.5000205 C28.1666667,33.5000205 26.3333333,30.6666872 26,28.0000205 C25.6666667,25.3333539 27,22.3333539 30,19.0000205 Z" id="Path-4" fill="#F2B892"></path>
                    <path d="M108,19 L100,19.0000205 L96.5,25.5000205 L93,19.0000205 L87.692294,19.0000205 L87.692294,19 C85.7969106,19 84.1115908,20.2060209 83.5,22.0000205 C83.5,22.0000205 83.5,22.0000205 83.5,22.0000205 C83.0773746,23.2397217 81.2440413,29.573055 78,41.0000205 C79.5283955,42.1492272 80.6950622,42.9825605 81.5,43.5000205 C82.3049378,44.0174806 83.4716045,44.6841472 85,45.5000205 L87,38.0000205 L87,46.5000205 C88.9956302,46.9992922 90.4956302,47.3326256 91.5,47.5000205 C92.5043698,47.6674155 94.1710365,47.8340822 96.5,48.0000205 L99,40.5000205 C99.6666667,37.8333539 101.166667,36.5000205 103.5,36.5000205 C105.833333,36.5000205 107.833333,36.5000205 109.5,36.5000205 C106.166667,33.5000205 104.333333,30.6666872 104,28.0000205 C103.666667,25.3333539 105,22.333347 108,19 Z" id="Path-4-Copy-3" fill="#F2B892" transform="translate(93.750000, 33.500010) scale(-1, 1) translate(-93.750000, -33.500010) "></path>
                    <path d="M44,38 L39,38 L35.5,44.5 L32,38 L26.692294,38 L26.692294,37.9999795 C24.7969106,37.9999795 23.1115908,39.2060003 22.5,41 C22.5,41 22.5,41 22.5,41 C22.0773746,42.2397011 20.2440413,48.5730345 17,60 C18.5283955,61.1492066 19.6950622,61.98254 20.5,62.5 C21.3049378,63.01746 22.4716045,63.6841267 24,64.5 L26,57 L26,65.5 C27.9956302,65.9992717 29.4956302,66.332605 30.5,66.5 C31.5043698,66.667395 33.1710365,66.8340616 35.5,67 L38,57.5 C40,51.8333333 41.5,48.6666667 42.5,48 C43.5,47.3333333 45.8333333,47 49.5,47 C47.6997816,45.7511578 46.3664483,44.4178245 45.5,43 C44.6335517,41.5821755 44.1335517,39.9155089 44,38 Z" id="Path-4-Copy" fill="#F2B892"></path>
                    <path d="M63,49 L58,49 L54.5,55.5 L51,49 L45.692294,49 L45.692294,48.9999795 C43.7969106,48.9999795 42.1115908,50.2060003 41.5,52 C41.5,52 41.5,52 41.5,52 C41.0773746,53.2397011 39.2440413,59.5730345 36,71 C37.5283955,72.1492066 38.6950622,72.98254 39.5,73.5 C40.3049378,74.01746 41.4716045,74.6841267 43,75.5 L45,68 L45,76.5 C46.9956302,76.9992717 48.4956302,77.332605 49.5,77.5 C50.5043698,77.667395 52.6710365,77.8340616 56,78 L57,68.5 C59,62.8333333 60.5,59.6666667 61.5,59 C62.5,58.3333333 64.8333333,58 68.5,58 C66.6997816,56.7511578 65.3664483,55.4178245 64.5,54 C63.6335517,52.5821755 63.1335517,50.9155089 63,49 Z" id="Path-4-Copy-5" fill="#F2B892"></path>
                    <path d="M87,38 L82,38 L78.5,44.5 L75,38 L69.692294,38 L69.692294,37.9999795 C67.7969106,37.9999795 66.1115908,39.2060003 65.5,41 C65.5,41 65.5,41 65.5,41 C65.0773746,42.2397011 63.2440413,48.5730345 60,60 C61.5283955,61.1492066 62.6950622,61.98254 63.5,62.5 C64.3049378,63.01746 65.4716045,63.6841267 67,64.5 L69,57 L69,65.5 C70.9956302,65.9992717 72.4956302,66.332605 73.5,66.5 C74.5043698,66.667395 76.1710365,66.8340616 78.5,67 L81,57.5 C83,51.8333333 84.5,48.6666667 85.5,48 C86.5,47.3333333 88.8333333,47 92.5,47 C90.6997816,45.7511578 89.3664483,44.4178245 88.5,43 C87.6335517,41.5821755 87.1335517,39.9155089 87,38 Z" id="Path-4-Copy-2" fill="#F2B892" transform="translate(76.250000, 52.499990) scale(-1, 1) translate(-76.250000, -52.499990) "></path>
                    <path d="M68,49 L63,49 L59.5,55.5 L56,49 L50.692294,49 L50.692294,48.9999795 C48.7969106,48.9999795 47.1115908,50.2060003 46.5,52 C46.5,52 46.5,52 46.5,52 C46.0773746,53.2397011 44.2440413,59.5730345 41,71 C42.5283955,72.1492066 43.6950622,72.98254 44.5,73.5 C45.3049378,74.01746 46.4716045,74.6841267 48,75.5 L50,68 L50,76.5 C51.9956302,76.9992717 53.4956302,77.332605 54.5,77.5 C55.5043698,77.667395 57.1710365,77.8340616 59.5,78 L62,68.5 C64,62.8333333 65.5,59.6666667 66.5,59 C67.5,58.3333333 69.8333333,58 73.5,58 C71.6997816,56.7511578 70.3664483,55.4178245 69.5,54 C68.6335517,52.5821755 68.1335517,50.9155089 68,49 Z" id="Path-4-Copy-4" fill="#F2B892" transform="translate(57.250000, 63.499990) scale(-1, 1) translate(-57.250000, -63.499990) "></path>
                    <path d="M41.5,19.5 L50.875,19.5 L53.9821429,26 L57.6071429,19.5 L66.4107143,19.5 C63.9940476,22.1666667 62.9583333,25 63.3035714,28 C63.6488095,31 65.547619,33.6666667 69,36 L64.4509804,36 C63.9026611,34.3333333 62.7654062,32.8333333 61.0392157,31.5 C58.44993,29.5 55.4544818,29 53.9821429,29 C52.5098039,29 49.0980392,29.5 46.8235294,31.5 C45.3071895,32.8333333 44.6993464,34.5 45,36.5 L40,36 C43.1071429,33.6666667 44.8333333,31 45.1785714,28 C45.5238095,25 44.297619,22.1666667 41.5,19.5 Z" id="Path-5" fill="#F2B892"></path>
                    <circle id="Oval-6-Copy-6" fill="#FFFFFF" cx="73.5" cy="27.5" r="10.5"></circle>
                    <circle id="Oval-6-Copy-3" fill="#F2B892" cx="73.5" cy="27.5" r="8.5"></circle>
                    <circle id="Oval-6-Copy-6" fill="#FFFFFF" cx="54.5" cy="38.5" r="10.5"></circle>
                    <circle id="Oval-6-Copy-4" fill="#F2B892" cx="54.5" cy="38.5" r="8.5"></circle>
                </g>
                <circle id="Oval-6-Copy-6" fill="#FFFFFF" cx="47.5" cy="60.5" r="10.5"></circle>
                <circle id="Oval-6-Copy-4" fill="#F2B892" cx="47.5" cy="60.5" r="8.5"></circle>
            </g>
        </g>
    </g>
</svg>