<?xml version="1.0" encoding="UTF-8" standalone="no"?>
<svg width="132px" height="128px" viewBox="0 0 132 128" version="1.1" xmlns="http://www.w3.org/2000/svg" xmlns:xlink="http://www.w3.org/1999/xlink">
    <!-- Generator: Sketch 47.1 (45422) - http://www.bohemiancoding.com/sketch -->
    <title>Group 6 Copy</title>
    <desc>Created with Sketch.</desc>
    <defs></defs>
    <g id="Page-1" stroke="none" stroke-width="1" fill="none" fill-rule="evenodd">
        <g id="Disposal-Locations-Design" transform="translate(-576.000000, -2128.000000)">
            <g id="Group-6-Copy" transform="translate(576.000000, 2128.000000)">
                <ellipse id="Oval-3" fill="#FFFFFF" cx="65.6150873" cy="64" rx="65.6150873" ry="64"></ellipse>
                <g id="Group-7" transform="translate(35.000000, 18.000000)" stroke="#F2B892" stroke-width="3" fill="#F2B892">
                    <path d="M31.0446429,43.8095238 C23.536352,43.8095238 17.4285714,37.9102585 17.4285714,30.6666667 C17.4285714,23.4230748 23.536352,17.5238095 31.0446429,17.5238095 C38.5529337,17.5238095 44.6607143,23.4230748 44.6607143,30.6666667 C44.6607143,37.9102585 38.5529337,43.8095238 31.0446429,43.8095238 M30.5,0 C13.6830625,0 0,13.754 0,30.6666667 C0,46.9353333 27.7245,89.3435 28.9101875,91.1375 C29.2609375,91.6741667 29.8595,92 30.5,92 C31.1405,92 31.73525,91.6741667 32.0898125,91.1375 C33.2716875,89.3435 61,46.9353333 61,30.6666667 C61,13.754 47.3169375,0 30.5,0" id="Fill-7"></path>
                </g>
            </g>
        </g>
    </g>
</svg>