<?xml version="1.0" encoding="UTF-8" standalone="no"?>
<svg width="240px" height="440px" viewBox="0 0 240 440" version="1.1" xmlns="http://www.w3.org/2000/svg" xmlns:xlink="http://www.w3.org/1999/xlink">
    <!-- Generator: Sketch 47.1 (45422) - http://www.bohemiancoding.com/sketch -->
    <title>illustration 3</title>
    <desc>Created with Sketch.</desc>
    <defs></defs>
    <g id="Design" stroke="none" stroke-width="1" fill="none" fill-rule="evenodd" opacity="0.191179801">
        <g id="kglobal-blog-detail" transform="translate(-157.000000, -1462.000000)">
            <g id="illustration-3" transform="translate(157.000000, 1462.000000)">
                <path d="M203.0125,439.8867 C178.7875,439.5537 154.5675,438.9367 130.3455,438.3767 C127.0295,438.2997 123.7245,437.7647 120.4075,437.5647 C118.3735,437.4427 117.7515,436.8557 118.9305,434.9307 C120.9355,431.6597 122.8255,428.3207 124.7515,425.0007 C125.1205,424.3657 125.4305,423.6947 126.0455,422.4977 C113.6435,424.1737 102.7725,429.1757 91.4865,432.6997 C91.3105,432.5217 91.1355,432.3437 90.9595,432.1647 C91.5325,431.5367 91.9905,430.6937 92.6975,430.3167 C96.9025,428.0737 101.0705,425.7237 105.4265,423.8087 C116.5725,418.9077 127.8065,414.2087 139.0135,409.4487 C141.9025,408.2207 144.8225,407.0647 147.7285,405.8757 C147.6585,405.6537 147.5875,405.4317 147.5175,405.2087 C122.4525,412.0827 97.3875,418.9557 72.0515,425.9047 C72.1655,423.4187 73.9385,422.8277 75.3325,422.2007 C80.9215,419.6907 86.5035,417.1277 92.2335,414.9717 C107.6915,409.1557 123.2245,403.5387 138.7255,397.8357 C139.3545,397.6047 139.9545,397.2937 140.4415,396.6067 C136.3665,397.7857 132.3015,399.0047 128.2145,400.1407 C111.4835,404.7887 94.7525,409.4407 78.0045,414.0237 C74.8045,414.8997 71.5385,415.5657 68.2695,416.1297 C67.2585,416.3037 66.1335,415.8197 65.0605,415.6377 C65.8395,414.8287 66.4705,413.6737 67.4215,413.2707 C72.6725,411.0447 77.9295,408.7967 83.3155,406.9327 C106.7335,398.8267 130.2005,390.8617 153.6395,382.8167 C155.8665,382.0517 158.0255,381.0917 160.0985,379.8607 C125.0755,387.7817 90.7815,398.3517 56.1245,408.0157 C56.6725,405.6777 59.5465,403.9197 61.4885,404.4237 C62.3225,404.6407 63.3005,404.8247 64.0935,404.6017 C84.3385,398.8907 104.5365,393.0117 124.8115,387.4087 C136.3875,384.2107 148.0785,381.4247 159.7355,378.5207 C161.1205,378.1747 162.6125,378.2487 164.0535,378.1287 C164.1545,378.4817 164.2535,378.8337 164.3545,379.1877 C162.8615,380.0047 161.4425,381.0227 159.8645,381.6087 C151.5565,384.6907 143.2355,387.7417 134.8695,390.6587 C113.9825,397.9417 93.0635,405.1367 72.1715,412.4047 C70.6715,412.9257 69.2765,413.7497 67.9565,414.7927 C97.9205,408.4357 127.0645,399.1137 156.4335,390.6287 C156.5695,390.8827 156.7035,391.1377 156.8395,391.3917 C156.0235,391.9297 155.2725,392.6367 154.3805,392.9787 C145.9515,396.2037 137.4895,399.3397 129.0565,402.5547 C112.1935,408.9837 95.3415,415.4437 78.4905,421.9057 C77.9575,422.1107 77.4905,422.4827 77.0805,423.0427 C104.2085,416.0197 131.0725,408.0517 158.3015,401.5077 C158.4165,401.8357 158.5315,402.1647 158.6465,402.4927 C138.5595,410.9757 118.4735,419.4577 98.3875,427.9397 C98.5125,428.2627 98.6375,428.5857 98.7625,428.9087 C102.6555,427.6167 106.5085,426.1787 110.4545,425.0727 C115.0245,423.7897 119.6635,422.7377 124.3045,421.7377 C125.1775,421.5487 126.2035,422.0767 127.1585,422.2747 C126.8815,423.1197 126.7415,424.0447 126.3045,424.7957 C124.1265,428.5277 121.8705,432.2117 119.3455,436.4067 C122.3115,436.6507 124.7965,436.9707 127.2875,437.0417 C141.9615,437.4617 228.3575,440.2357 203.0125,439.8867" id="Fill-1" fill="#2691AF"></path>
                <path d="M64.5173,358.6104 C86.2473,352.3804 107.9783,346.1494 129.7093,339.9194 L130.1693,340.8304 C129.1963,341.4554 128.2933,342.2544 127.2403,342.6774 C119.8983,345.6274 112.5343,348.5204 105.1603,351.3894 C88.8883,357.7224 72.5973,364.0074 56.3393,370.3804 C54.5853,371.0674 53.0033,372.1954 51.5143,373.5604 C60.7303,373.1474 69.0963,369.5544 78.0343,367.3614 C77.5723,367.7534 77.1703,368.3474 76.6393,368.5054 C69.4623,370.6314 62.2983,372.8214 55.0513,374.6804 C53.4723,375.0864 51.5773,374.2574 49.8273,373.9974 C51.1073,372.7984 52.1833,371.1154 53.6993,370.4784 C64.9233,365.7634 76.1903,361.1444 87.5323,356.7204 C98.1643,352.5734 108.9043,348.7054 119.5943,344.7064 C119.9763,344.5624 120.3253,344.3294 120.6223,343.9414 C100.5953,349.1674 81.0293,356.1194 60.6793,360.0204 C60.4983,359.6784 60.3173,359.3364 60.1373,358.9944 C60.8863,358.3984 61.5733,357.6974 62.3933,357.2234 C69.2513,353.2604 76.1653,349.3924 82.9843,345.3634 C84.4973,344.4684 85.7793,343.1234 87.0033,341.8304 C87.5113,341.2944 88.0013,340.1394 87.7513,339.6474 C87.4693,339.0914 86.3123,338.6394 85.5903,338.7104 C82.7123,338.9874 79.8473,339.4304 76.9933,339.9124 C71.5403,340.8324 66.1033,341.8434 60.6483,342.7534 C59.7433,342.9034 58.7693,342.8094 57.8503,342.6764 C55.8593,342.3884 55.1623,341.0814 55.9493,339.3594 C56.8633,337.3564 57.9913,335.4174 59.2603,333.6144 C62.2963,329.3004 63.9673,324.5874 64.0413,319.2994 C64.2693,303.0754 64.0503,286.8724 61.8313,270.7604 C60.0193,257.5994 55.0173,245.8204 47.6703,234.7074 C39.0793,221.7124 31.3013,208.1744 23.2893,194.8024 C16.8873,184.1174 11.2143,173.0654 6.8433,161.3604 C0.1143,143.3394 -1.1957,124.8394 1.6973,105.9544 C4.1623,89.8714 9.4233,74.8084 17.5783,60.6524 C27.8023,42.9014 41.4923,28.5524 58.7823,17.7604 C80.6843,4.0904 104.7063,-1.6996 130.3903,0.8274 C161.8803,3.9264 187.9463,17.9684 208.3873,42.0264 C213.9773,48.6054 218.3433,56.2264 223.2493,63.3834 C223.6923,64.0274 223.9783,64.7784 224.3363,65.4814 C224.1073,65.6274 223.8773,65.7744 223.6483,65.9214 C223.2033,65.3224 222.6823,64.7664 222.3243,64.1204 C208.4333,39.0894 188.5743,20.6324 161.9993,9.7224 C143.9703,2.3204 125.1853,-0.0716 105.8393,2.2744 C90.1513,4.1764 75.4253,9.1644 61.8603,17.2064 C46.0813,26.5604 33.0873,38.9974 22.8433,54.2444 C13.3573,68.3614 7.1363,83.8464 3.7723,100.4864 C-1.1647,124.9144 1.0323,148.6624 12.2083,171.0094 C19.6673,185.9254 28.2303,200.2984 36.5783,214.7554 C41.3903,223.0874 46.6413,231.1734 51.9013,239.2364 C58.6403,249.5644 62.1243,261.0374 63.1693,273.1074 C64.3663,286.9454 64.6963,300.8604 65.3453,314.7444 C65.7113,322.5714 63.9023,329.7634 59.0883,336.1324 C58.0273,337.5364 57.6173,339.4314 56.9073,341.1014 C58.8033,341.2384 60.7593,341.7424 62.5843,341.4464 C68.7223,340.4484 74.8033,339.1084 80.9283,338.0274 C82.7593,337.7044 84.6673,337.6714 86.5323,337.7354 C88.9603,337.8184 90.0083,339.5254 88.6003,341.4864 C87.2403,343.3784 85.4943,345.1864 83.5323,346.4144 C77.9073,349.9334 72.0863,353.1394 66.3413,356.4674 C65.6273,356.8814 64.9103,357.2914 64.1943,357.7024 C64.3013,358.0054 64.4093,358.3074 64.5173,358.6104" id="Fill-3" fill="#2691AF"></path>
                <path d="M64.5173,358.6104 C86.2473,352.3804 107.9783,346.1494 129.7093,339.9194 L130.1693,340.8304 C129.1963,341.4554 128.2933,342.2544 127.2403,342.6774 C119.8983,345.6274 112.5343,348.5204 105.1603,351.3894 C88.8883,357.7224 72.5973,364.0074 56.3393,370.3804 C54.5853,371.0674 53.0033,372.1954 51.5143,373.5604 C60.7303,373.1474 69.0963,369.5544 78.0343,367.3614 C77.5723,367.7534 77.1703,368.3474 76.6393,368.5054 C69.4623,370.6314 62.2983,372.8214 55.0513,374.6804 C53.4723,375.0864 51.5773,374.2574 49.8273,373.9974 C51.1073,372.7984 52.1833,371.1154 53.6993,370.4784 C64.9233,365.7634 76.1903,361.1444 87.5323,356.7204 C98.1643,352.5734 108.9043,348.7054 119.5943,344.7064 C119.9763,344.5624 120.3253,344.3294 120.6223,343.9414 C100.5953,349.1674 81.0293,356.1194 60.6793,360.0204 C60.4983,359.6784 60.3173,359.3364 60.1373,358.9944 C60.8863,358.3984 61.5733,357.6974 62.3933,357.2234 C69.2513,353.2604 76.1653,349.3924 82.9843,345.3634 C84.4973,344.4684 85.7793,343.1234 87.0033,341.8304 C87.5113,341.2944 88.0013,340.1394 87.7513,339.6474 C87.4693,339.0914 86.3123,338.6394 85.5903,338.7104 C82.7123,338.9874 79.8473,339.4304 76.9933,339.9124 C71.5403,340.8324 66.1033,341.8434 60.6483,342.7534 C59.7433,342.9034 58.7693,342.8094 57.8503,342.6764 C55.8593,342.3884 55.1623,341.0814 55.9493,339.3594 C56.8633,337.3564 57.9913,335.4174 59.2603,333.6144 C62.2963,329.3004 63.9673,324.5874 64.0413,319.2994 C64.2693,303.0754 64.0503,286.8724 61.8313,270.7604 C60.0193,257.5994 55.0173,245.8204 47.6703,234.7074 C39.0793,221.7124 31.3013,208.1744 23.2893,194.8024 C16.8873,184.1174 11.2143,173.0654 6.8433,161.3604 C0.1143,143.3394 -1.1957,124.8394 1.6973,105.9544 C4.1623,89.8714 9.4233,74.8084 17.5783,60.6524 C27.8023,42.9014 41.4923,28.5524 58.7823,17.7604 C80.6843,4.0904 104.7063,-1.6996 130.3903,0.8274 C161.8803,3.9264 187.9463,17.9684 208.3873,42.0264 C213.9773,48.6054 218.3433,56.2264 223.2493,63.3834 C223.6923,64.0274 223.9783,64.7784 224.3363,65.4814 C224.1073,65.6274 223.8773,65.7744 223.6483,65.9214 C223.2033,65.3224 222.6823,64.7664 222.3243,64.1204 C208.4333,39.0894 188.5743,20.6324 161.9993,9.7224 C143.9703,2.3204 125.1853,-0.0716 105.8393,2.2744 C90.1513,4.1764 75.4253,9.1644 61.8603,17.2064 C46.0813,26.5604 33.0873,38.9974 22.8433,54.2444 C13.3573,68.3614 7.1363,83.8464 3.7723,100.4864 C-1.1647,124.9144 1.0323,148.6624 12.2083,171.0094 C19.6673,185.9254 28.2303,200.2984 36.5783,214.7554 C41.3903,223.0874 46.6413,231.1734 51.9013,239.2364 C58.6403,249.5644 62.1243,261.0374 63.1693,273.1074 C64.3663,286.9454 64.6963,300.8604 65.3453,314.7444 C65.7113,322.5714 63.9023,329.7634 59.0883,336.1324 C58.0273,337.5364 57.6173,339.4314 56.9073,341.1014 C58.8033,341.2384 60.7593,341.7424 62.5843,341.4464 C68.7223,340.4484 74.8033,339.1084 80.9283,338.0274 C82.7593,337.7044 84.6673,337.6714 86.5323,337.7354 C88.9603,337.8184 90.0083,339.5254 88.6003,341.4864 C87.2403,343.3784 85.4943,345.1864 83.5323,346.4144 C77.9073,349.9334 72.0863,353.1394 66.3413,356.4674 C65.6273,356.8814 64.9103,357.2914 64.1943,357.7024 C64.3013,358.0054 64.4093,358.3074 64.5173,358.6104 Z" id="Stroke-5" stroke="#2691AF" stroke-width="0.5"></path>
                <path d="M71.7795,330.5361 C76.6025,329.3291 81.4045,328.0241 86.2535,326.9321 C101.0775,323.5931 116.0455,324.1491 131.0695,325.1511 C138.8745,325.6721 146.7625,325.8851 154.5545,325.3651 C161.0525,324.9321 162.2235,322.4791 162.9195,316.0171 C164.4055,302.2251 166.0315,288.4321 168.2045,274.7361 C169.9165,263.9451 173.2835,253.5611 178.6025,243.8981 C182.1745,237.4061 186.8215,231.7301 192.0695,226.6051 C202.8785,216.0501 210.5785,203.2871 218.1515,190.4461 C225.3605,178.2231 231.1375,165.3551 234.6215,151.5151 C238.0835,137.7661 238.5515,123.8761 236.8655,109.8781 C236.3585,105.6541 235.4095,101.4841 234.7105,97.2821 C234.5855,96.5301 234.6925,95.7391 234.6925,94.9661 C234.9555,94.9411 235.2195,94.9151 235.4835,94.8901 C236.3015,99.3551 237.3425,103.7931 237.8935,108.2911 C239.1535,118.5611 239.5015,128.8491 238.1025,139.1651 C236.4755,151.1631 233.1255,162.6531 228.1285,173.6421 C220.6895,190.0001 211.3745,205.2591 200.2575,219.3631 C196.5215,224.1031 192.1185,228.3171 188.0255,232.7761 C179.3655,242.2051 174.5925,253.5981 171.4055,265.7761 C166.8985,283.0091 165.1685,300.6461 163.7825,318.3361 C163.4215,322.9531 161.1275,325.3261 156.5665,326.3121 C149.7005,327.7951 142.8125,327.1281 135.9195,326.6101 C120.2495,325.4341 104.5685,324.3711 88.9895,327.4551 C84.1495,328.4141 79.4025,329.8431 74.6065,331.0351 C73.7485,331.2491 72.8665,331.3641 71.9955,331.5251 C71.9235,331.1951 71.8515,330.8661 71.7795,330.5361" id="Fill-7" fill="#2691AF"></path>
                <path d="M71.7795,330.5361 C76.6025,329.3291 81.4045,328.0241 86.2535,326.9321 C101.0775,323.5931 116.0455,324.1491 131.0695,325.1511 C138.8745,325.6721 146.7625,325.8851 154.5545,325.3651 C161.0525,324.9321 162.2235,322.4791 162.9195,316.0171 C164.4055,302.2251 166.0315,288.4321 168.2045,274.7361 C169.9165,263.9451 173.2835,253.5611 178.6025,243.8981 C182.1745,237.4061 186.8215,231.7301 192.0695,226.6051 C202.8785,216.0501 210.5785,203.2871 218.1515,190.4461 C225.3605,178.2231 231.1375,165.3551 234.6215,151.5151 C238.0835,137.7661 238.5515,123.8761 236.8655,109.8781 C236.3585,105.6541 235.4095,101.4841 234.7105,97.2821 C234.5855,96.5301 234.6925,95.7391 234.6925,94.9661 C234.9555,94.9411 235.2195,94.9151 235.4835,94.8901 C236.3015,99.3551 237.3425,103.7931 237.8935,108.2911 C239.1535,118.5611 239.5015,128.8491 238.1025,139.1651 C236.4755,151.1631 233.1255,162.6531 228.1285,173.6421 C220.6895,190.0001 211.3745,205.2591 200.2575,219.3631 C196.5215,224.1031 192.1185,228.3171 188.0255,232.7761 C179.3655,242.2051 174.5925,253.5981 171.4055,265.7761 C166.8985,283.0091 165.1685,300.6461 163.7825,318.3361 C163.4215,322.9531 161.1275,325.3261 156.5665,326.3121 C149.7005,327.7951 142.8125,327.1281 135.9195,326.6101 C120.2495,325.4341 104.5685,324.3711 88.9895,327.4551 C84.1495,328.4141 79.4025,329.8431 74.6065,331.0351 C73.7485,331.2491 72.8665,331.3641 71.9955,331.5251 C71.9235,331.1951 71.8515,330.8661 71.7795,330.5361 Z" id="Stroke-9" stroke="#2691AF" stroke-width="0.5"></path>
                <path d="M127.0916,151.3218 C127.5856,149.4658 128.0516,147.6008 128.5766,145.7538 C129.9046,141.0888 131.2156,136.4188 132.6356,131.7818 C132.9236,130.8428 133.5566,129.9518 134.2096,129.1928 C135.4796,127.7148 137.0726,127.7238 138.0466,129.3118 C139.1386,131.0918 139.8736,133.1258 140.5376,135.1248 C141.5556,138.1908 142.2976,141.3498 143.3486,144.4028 C143.5936,145.1158 144.6096,145.5628 145.2706,146.1328 C145.7886,145.5118 146.6036,144.9638 146.7766,144.2588 C147.7636,140.2138 148.5446,136.1188 149.5086,132.0688 C149.9996,130.0078 150.5026,127.8968 151.4026,125.9978 C152.6296,123.4068 155.1046,123.1918 156.5356,125.6468 C157.7526,127.7308 158.4796,130.1598 159.0946,132.5218 C159.9926,135.9788 160.5086,139.5348 161.3716,143.0038 C161.7396,144.4848 162.5716,145.8508 163.1946,147.2688 C162.9796,147.3918 162.7646,147.5148 162.5506,147.6368 C161.8106,146.3498 160.7556,145.1448 160.3906,143.7588 C159.3486,139.8088 158.6476,135.7708 157.6886,131.7978 C157.2726,130.0718 156.7546,128.3118 155.9216,126.7608 C154.7456,124.5718 153.1176,124.5918 152.3726,126.9258 C151.1106,130.8828 150.3386,134.9948 149.3396,139.0378 C148.8496,141.0198 148.5086,143.0728 147.7206,144.9338 C147.2866,145.9598 146.0846,147.3018 145.2006,147.3218 C144.2646,147.3428 142.8436,146.1558 142.4306,145.1638 C141.3236,142.5088 140.6306,139.6788 139.7986,136.9118 C139.3816,135.5268 139.2076,134.0308 138.5746,132.7578 C137.9796,131.5588 136.9266,130.5878 136.0756,129.5158 C135.2286,130.5008 134.0126,131.3528 133.6046,132.4938 C132.3726,135.9348 131.4136,139.4768 130.4286,143.0018 C129.6956,145.6258 129.1446,148.3018 128.3886,150.9188 C128.1276,151.8218 127.4926,152.6168 127.0286,153.4618 C126.7726,153.4708 126.5166,153.4818 126.2616,153.4908 C125.8126,152.4768 125.2196,151.4998 124.9386,150.4408 C123.5416,145.1758 122.2456,139.8848 120.8676,134.6148 C120.5906,133.5518 120.2466,132.4588 119.6846,131.5298 C119.1996,130.7288 118.3616,130.1408 117.6786,129.4598 C117.0246,130.1818 116.0696,130.7998 115.7706,131.6478 C114.8636,134.2108 114.2306,136.8698 113.4546,139.4808 C112.9216,141.2758 112.5386,143.1618 111.6896,144.8008 C111.1286,145.8848 109.8286,147.3378 108.9176,147.2988 C107.7776,147.2488 106.2816,146.0668 105.6746,144.9678 C104.3656,142.5988 103.5056,139.9798 102.5006,137.4468 C101.4036,134.6808 100.4306,131.8618 99.2336,129.1408 C98.7936,128.1398 97.8656,127.3528 97.1606,126.4678 L96.1876,126.5368 C95.6546,128.5148 94.9356,130.4648 94.6286,132.4768 C94.1276,135.7558 93.8956,139.0738 93.5506,142.3768 C93.5326,142.5458 93.5566,142.7258 93.5116,142.8858 C92.9916,144.7238 92.9856,147.1498 90.5476,147.4318 C88.2226,147.6998 87.5306,145.5438 86.8786,143.7988 C85.9846,141.4088 85.2726,138.9518 84.4296,136.5428 C84.0936,135.5818 83.7106,134.6148 83.1866,133.7488 C81.9606,131.7258 80.6516,131.5948 79.6456,133.6808 C78.3626,136.3408 77.5796,139.2398 76.5666,142.0308 C75.7746,144.2138 75.0416,146.4478 72.9206,147.5038 C74.6386,142.9038 76.2286,138.2618 78.1566,133.7648 C78.6326,132.6548 80.2686,131.2708 81.2616,131.3518 C82.4476,131.4488 83.9906,132.7628 84.5406,133.9418 C85.7906,136.6238 86.3746,139.6098 87.5376,142.3418 C88.1486,143.7778 89.4066,144.9378 90.3726,146.2228 C91.1066,144.7948 92.2256,143.4348 92.4936,141.9238 C93.1026,138.4948 93.1936,134.9778 93.6856,131.5248 C94.0086,129.2518 93.7746,126.1428 96.7286,125.7018 C99.6006,125.2748 100.2146,128.2938 101.0556,130.3098 C102.6926,134.2338 103.9166,138.3318 105.6066,142.2308 C106.2566,143.7318 107.7096,144.8848 108.7976,146.1968 C109.7226,144.7628 110.9526,143.4388 111.5096,141.8748 C112.7056,138.5118 113.3816,134.9608 114.6326,131.6228 C115.1286,130.2998 116.5876,129.3378 117.6076,128.2108 C118.7586,129.3198 120.5196,130.2308 120.9536,131.5718 C122.6306,136.7478 123.8806,142.0618 125.2946,147.3228 C125.6436,148.6268 126.0106,149.9248 126.3696,151.2258 C126.6106,151.2578 126.8506,151.2898 127.0916,151.3218" id="Fill-11" fill="#2691AF"></path>
                <path d="M78.3489,388.7168 C105.3459,381.4108 132.1279,373.2998 159.4379,367.1768 C159.5389,367.5168 159.6399,367.8558 159.7399,368.1958 C128.0949,379.7388 96.4489,391.2828 64.8039,402.8278 C90.9789,391.2988 118.0469,382.0928 144.9359,372.4198 C144.8699,372.1838 144.8039,371.9468 144.7379,371.7108 C122.6999,377.7298 100.6619,383.7488 78.6239,389.7688 L78.3489,388.7168 Z" id="Fill-13" fill="#2691AF"></path>
                <path d="M161.2605,356.5059 C134.0415,367.3269 106.4655,377.1989 79.0125,387.3989 C78.8845,387.0629 78.7565,386.7259 78.6285,386.3899 C101.5065,377.8659 124.3835,369.3429 147.2605,360.8199 C147.1985,360.6169 147.1365,360.4149 147.0735,360.2129 C129.0495,365.0459 111.0255,369.8789 93.0015,374.7119 C92.9045,374.3419 92.8075,373.9709 92.7105,373.6009 C115.4265,367.5009 138.1415,361.4019 160.8575,355.3019 C160.9915,355.7029 161.1255,356.1049 161.2605,356.5059" id="Fill-15" fill="#2691AF"></path>
                <path d="M113.6492,280.0254 C113.6492,276.5754 113.5612,273.1234 113.6642,269.6754 C114.2352,250.5774 114.8552,231.4794 115.4532,212.3814 C115.5092,210.5914 115.6872,208.7874 115.5362,207.0114 C114.8722,199.2104 118.1472,192.9984 123.6072,187.9264 C135.7792,176.6184 148.1362,165.5074 160.4242,154.3234 C160.6462,154.1224 160.9552,154.0164 161.6982,154.2714 C161.2552,154.8374 160.8852,155.4814 160.3622,155.9584 C149.1642,166.1874 137.8702,176.3134 126.7892,186.6674 C123.8432,189.4204 121.1322,192.6184 119.0802,196.0674 C117.5932,198.5664 116.7942,201.7964 116.6822,204.7384 C115.8372,226.8114 115.2352,248.8934 114.5662,270.9734 C114.4972,273.2724 114.4952,275.5734 114.4302,277.8724 C114.4092,278.6284 114.2902,279.3804 114.2162,280.1344 C114.0272,280.0984 113.8382,280.0624 113.6492,280.0254" id="Fill-17" fill="#2691AF"></path>
                <path d="M104.321,361.9326 C124.899,354.2726 145.477,346.6116 166.055,338.9516 C165.918,338.5686 165.781,338.1846 165.643,337.8016 C143.786,343.1436 123.123,352.1516 101.615,358.9646 C101.896,358.6616 102.121,358.2026 102.465,358.0796 C121.328,351.4366 140.194,344.7976 159.086,338.2346 C161.082,337.5406 163.221,337.1426 165.327,336.9306 C166.332,336.8286 167.412,337.4876 168.459,337.8016 C167.704,338.4806 167.062,339.4526 166.177,339.7946 C154.349,344.3766 142.499,348.9006 130.63,353.3776 C122.666,356.3816 114.668,359.2956 106.677,362.2296 C105.981,362.4856 105.227,362.5856 104.5,362.7576 C104.441,362.4836 104.381,362.2076 104.321,361.9326" id="Fill-19" fill="#2691AF"></path>
                <path d="M76.9885,154.6733 C88.6895,166.8833 100.3895,179.0933 112.3755,191.6013 C110.2435,191.4413 77.9765,158.2073 76.4795,155.1563 C76.6495,154.9953 76.8185,154.8343 76.9885,154.6733" id="Fill-21" fill="#2691AF"></path>
                <path d="M79.9373,372.5156 C74.1693,375.3096 68.8123,377.9056 63.4533,380.5006 C63.5543,380.7516 63.6553,381.0026 63.7563,381.2526 C68.0873,380.1546 72.4183,379.0566 76.7493,377.9576 C76.8303,378.2846 76.9113,378.6116 76.9923,378.9386 C71.7113,380.3636 66.4293,381.7876 61.1483,383.2126 C60.9593,383.0436 60.7703,382.8746 60.5823,382.7056 C61.0293,381.9576 61.2933,380.8596 61.9513,380.5176 C67.5053,377.6326 73.1283,374.8826 78.7443,372.1186 C78.8973,372.0426 79.1933,372.2576 79.9373,372.5156" id="Fill-23" fill="#2691AF"></path>
                <path d="M50.2717,396.833 C55.5077,394.865 60.1647,393.114 64.8207,391.364 L65.4177,391.93 C64.8327,392.643 64.3797,393.763 63.6407,394.002 C59.6847,395.285 55.6597,396.354 51.6497,397.47 C51.4797,397.517 51.2337,397.289 50.2717,396.833" id="Fill-25" fill="#2691AF"></path>
                <path d="M82.489,365.2441 C87.353,363.5271 92.218,361.8101 97.082,360.0941 C97.201,360.4321 97.319,360.7721 97.438,361.1111 C92.558,362.8551 87.678,364.5991 82.799,366.3431 C82.696,365.9761 82.593,365.6101 82.489,365.2441" id="Fill-27" fill="#2691AF"></path>
                <path d="M233.0271,90.1294 C231.8201,86.4504 230.7931,83.3164 229.6581,79.8564 C231.8361,81.4004 233.6141,86.7274 233.0271,90.1294" id="Fill-29" fill="#2691AF"></path>
                <path d="M72.9377,391.6973 L69.2507,391.6973 C69.3337,391.1043 69.4177,390.5123 69.5017,389.9203 C70.7007,390.0913 71.8987,390.2613 73.0987,390.4313 C73.0447,390.8533 72.9917,391.2753 72.9377,391.6973" id="Fill-31" fill="#2691AF"></path>
                <path d="M89.0452,368.6914 L84.5952,370.9504 C84.4372,370.6734 84.2792,370.3984 84.1212,370.1234 C85.6222,369.3814 87.1232,368.6394 88.6242,367.8984 C88.7642,368.1634 88.9042,368.4264 89.0452,368.6914" id="Fill-33" fill="#2691AF"></path>
                <path d="M72.8542,388.5098 C74.3622,387.9468 75.8702,387.3828 77.3782,386.8198 L77.7462,387.8448 L73.1682,389.4828 C73.0632,389.1578 72.9582,388.8338 72.8542,388.5098" id="Fill-35" fill="#2691AF"></path>
            </g>
        </g>
    </g>
</svg>