<?xml version="1.0" encoding="UTF-8" standalone="no"?>
<svg width="20px" height="11px" viewBox="0 0 20 11" version="1.1" xmlns="http://www.w3.org/2000/svg" xmlns:xlink="http://www.w3.org/1999/xlink">
    <!-- Generator: Sketch 47.1 (45422) - http://www.bohemiancoding.com/sketch -->
    <title>arrow</title>
    <desc>Created with Sketch.</desc>
    <defs></defs>
    <g id="Symbols" stroke="none" stroke-width="1" fill="none" fill-rule="evenodd">
        <g id="button_main-copy" transform="translate(-139.000000, -13.000000)" fill="#ED8D32">
            <g id="arrow" transform="translate(149.000000, 18.500000) rotate(-270.000000) translate(-149.000000, -18.500000) translate(143.500000, 8.500000)">
                <path d="M15.310828,9.31064535 L11.9810696,5.1484473 C11.6564181,4.77884412 11.1511273,4.74582401 10.810382,5.01830924 C10.4696367,5.29079448 10.4080362,5.84852901 10.680244,6.18899681 L12.926166,8.99848049 L-3.00626069,9.17470558 C-3.46604483,9.17470558 -3.8387003,9.54736104 -3.8387003,10.0071452 C-3.8387003,10.4669293 -3.46604483,10.8395848 -3.00626069,10.8395848 L12.926166,10.6633597 L10.680244,13.4728434 C10.4080362,13.8133112 10.4804585,14.3585591 10.810382,14.643531 C11.168886,14.9531985 11.7085844,14.8538607 11.9810696,14.5133929 L15.310828,10.3511949 C15.4517878,10.1786024 15.4903575,10.0520716 15.4928548,9.8309201 C15.4773159,9.64667347 15.4082235,9.42912925 15.310828,9.31064535 Z" id="Fill-1" transform="translate(5.827077, 9.834222) rotate(-90.000000) translate(-5.827077, -9.834222) "></path>
            </g>
        </g>
    </g>
</svg>