<?xml version="1.0" encoding="UTF-8" standalone="no"?>
<svg width="121px" height="121px" viewBox="0 0 121 121" version="1.1" xmlns="http://www.w3.org/2000/svg" xmlns:xlink="http://www.w3.org/1999/xlink">
    <!-- Generator: Sketch 47.1 (45422) - http://www.bohemiancoding.com/sketch -->
    <title>Group 2</title>
    <desc>Created with Sketch.</desc>
    <defs>
        <polygon id="path-1" points="0 27 0 0 42 0 42 54 21 54 0 54"></polygon>
    </defs>
    <g id="Symbols" stroke="none" stroke-width="1" fill="none" fill-rule="evenodd">
        <g id="Video-Promo" transform="translate(-460.000000, -235.000000)">
            <g id="video-promo-copy-2" transform="translate(-4.000000, 0.000000)">
                <g id="Group-2" transform="translate(464.000000, 235.000000)">
                    <circle id="Oval" fill="#ED8D32" cx="60.5" cy="60.5" r="60.5"></circle>
                    <g id="Page-1" transform="translate(44.000000, 34.000000)">
                        <mask id="mask-2" fill="white">
                            <use xlink:href="#path-1"></use>
                        </mask>
                        <g id="Clip-2"></g>
                        <path d="M42,26.9904304 C42,27.7707068 41.58,28.5509833 40.92,28.9711322 L3.72,53.5798511 C3.3,53.8799575 2.88,54 2.4,54 C2.04,54 1.62,53.8799575 1.26,53.6998937 C0.48,53.2797448 0,52.4994684 0,51.5991494 L0,2.38171139 C0,1.4813924 0.48,0.701115946 1.26,0.280967085 C2.04,-0.139181776 3,-0.0791605097 3.72,0.401009617 L40.92,25.0097286 C41.58,25.4298775 42,26.2101539 42,26.9904304" id="Fill-1" fill="#FFFFFF" mask="url(#mask-2)"></path>
                    </g>
                </g>
            </g>
        </g>
    </g>
</svg>