<?xml version="1.0" encoding="UTF-8" standalone="no"?>
<svg width="20px" height="20px" viewBox="0 0 20 20" version="1.1" xmlns="http://www.w3.org/2000/svg" xmlns:xlink="http://www.w3.org/1999/xlink">
    <!-- Generator: Sketch 47.1 (45422) - http://www.bohemiancoding.com/sketch -->
    <title>Group 8</title>
    <desc>Created with Sketch.</desc>
    <defs>
        <polygon id="path-1" points="0.00016 20 19.76976 20 19.76976 0.1042 0.00016 0.1042"></polygon>
    </defs>
    <g id="Symbols" stroke="none" stroke-width="1" fill="none" fill-rule="evenodd">
        <g id="Header" transform="translate(-935.000000, -30.000000)">
            <g id="Group-8" transform="translate(935.000000, 30.000000)">
                <mask id="mask-2" fill="white">
                    <use xlink:href="#path-1"></use>
                </mask>
                <g id="Clip-7"></g>
                <path d="M16.75976,16.759 L13.77416,16.759 L13.77416,11.9522 C13.77416,10.745 13.34216,9.921 12.26136,9.921 C11.43656,9.921 10.94536,10.4766 10.72896,11.0134 C10.65016,11.2054 10.63096,11.4734 10.63096,11.7418 L10.63096,16.759 L7.64496,16.759 C7.64496,16.759 7.68416,8.6174 7.64496,7.7754 L10.63096,7.7754 L10.63096,9.047 C11.02776,8.435 11.73736,7.5634 13.32256,7.5634 C15.28696,7.5634 16.75976,8.8478 16.75976,11.6078 L16.75976,16.759 Z M4.49976,6.5486 L4.47976,6.5486 C3.47776,6.5486 2.83016,5.8586 2.83016,4.9962 C2.83016,4.1154 3.49816,3.4442 4.51896,3.4442 C5.54056,3.4442 6.16936,4.1154 6.18936,4.9962 C6.18936,5.8586 5.54056,6.5486 4.49976,6.5486 L4.49976,6.5486 Z M3.00656,16.759 L5.99256,16.759 L5.99256,7.7754 L3.00656,7.7754 L3.00656,16.759 Z M18.30856,0.1042 L1.46056,0.1042 C0.65416,0.1042 0.00016,0.7426 0.00016,1.5298 L0.00016,18.5746 C0.00016,19.361 0.65416,20.0002 1.46056,20.0002 L18.30856,20.0002 C19.11576,20.0002 19.76976,19.361 19.76976,18.5746 L19.76976,1.5298 C19.76976,0.7426 19.11576,0.1042 18.30856,0.1042 L18.30856,0.1042 Z" id="Fill-6" fill="#FFFFFF" mask="url(#mask-2)"></path>
            </g>
        </g>
    </g>
</svg>
