<svg xmlns="http://www.w3.org/2000/svg" viewBox="0 0 11.25 9.99"><defs><style>.cls-1{fill:#ed8d32;}</style></defs><title>Asset 1</title><g id="Layer_2" data-name="Layer 2"><g id="Layer_1-2" data-name="Layer 1"><g id="Symbols"><g id="button_main-copy" data-name="button main-copy"><g id="arrow"><path id="Fill-1" class="cls-1" d="M11.07,4.47,7.74.31A.84.84,0,0,0,6.57.18a.87.87,0,0,0-.13,1.17L8.68,4.16H.83a.83.83,0,1,0,0,1.66H8.68L6.44,8.63A.88.88,0,0,0,6.57,9.8a.83.83,0,0,0,1.17-.13l3.33-4.16A.72.72,0,0,0,11.25,5,1,1,0,0,0,11.07,4.47Z"/></g></g></g></g></g></svg>