<?xml version="1.0" encoding="UTF-8" standalone="no"?>
<svg width="14px" height="20px" viewBox="0 0 14 20" version="1.1" xmlns="http://www.w3.org/2000/svg" xmlns:xlink="http://www.w3.org/1999/xlink">
    <!-- Generator: Sketch 47.1 (45422) - http://www.bohemiancoding.com/sketch -->
    <title>2I</title>
    <desc>Created with Sketch.</desc>
    <defs></defs>
    <g id="Design" stroke="none" stroke-width="1" fill="none" fill-rule="evenodd">
        <g id="kglobal-contact-us" transform="translate(-523.000000, -1824.000000)" fill="#2691AF">
            <g id="2I" transform="translate(523.000000, 1824.000000)">
                <path d="M7.00535294,8.73333333 C6.006,8.73333333 5.19317647,7.90833333 5.19317647,6.89583333 C5.19317647,5.8875 6.006,5.0625 7.00535294,5.0625 C8.00470588,5.0625 8.81794118,5.8875 8.81794118,6.89583333 C8.81794118,7.90833333 8.00470588,8.73333333 7.00535294,8.73333333 Z M7.00535294,3.8125 C5.32494118,3.8125 3.95788235,5.19583333 3.95788235,6.89583333 C3.95788235,8.6 5.32494118,9.98333333 7.00535294,9.98333333 C8.68617647,9.98333333 10.0532353,8.6 10.0532353,6.89583333 C10.0532353,5.19583333 8.68617647,3.8125 7.00535294,3.8125 L7.00535294,3.8125 Z M12.2771765,8.54166667 C12.1408824,9.0875 11.6541765,10.1625 11.2650588,10.7708333 C11.0731765,11.0958333 8.22047059,16.0125 7,18.1166667 L2.45576471,10.025 L2.42652941,9.97083333 C2.31123529,9.7625 2.072,9.33333333 1.90111765,8.7875 C1.68576471,8.09583333 1.58076471,7.44583333 1.58076471,6.8 C1.58076471,3.77083333 4.01429412,1.30833333 7.00535294,1.30833333 C10.1343529,1.30833333 12.2660588,3.84583333 12.5188824,6.29583333 C12.5831176,6.91666667 12.5065294,7.63333333 12.2771765,8.54166667 Z M13.7475882,6.16666667 C13.3885294,2.6875 10.4901176,0.0583333333 7.00535294,0.0583333333 C3.33323529,0.0583333333 0.345470588,3.08333333 0.345470588,6.8 C0.345470588,7.575 0.469411765,8.35 0.723470588,9.1625 C0.932647059,9.83333333 1.225,10.3583333 1.34976471,10.5833333 L1.37817647,10.6333333 C1.379,10.6375 1.38023529,10.6375 1.38105882,10.6416667 L6.454,19.6708333 C6.56311765,19.8666667 6.76611765,19.9875 6.98682353,19.9875 C6.98847059,19.9875 6.98970588,19.9875 6.99135294,19.9875 C7.21,19.9875 7.41258824,19.8708333 7.52376471,19.6791667 C7.56947059,19.6 12.0877647,11.8166667 12.3142353,11.4333333 C12.7222941,10.7916667 13.2864118,9.6 13.4745882,8.85416667 C13.7405882,7.79166667 13.8274706,6.94166667 13.7475882,6.16666667 L13.7475882,6.16666667 Z"></path>
            </g>
        </g>
    </g>
</svg>