<?xml version="1.0" encoding="UTF-8" standalone="no"?>
<svg width="16px" height="16px" viewBox="0 0 16 16" version="1.1" xmlns="http://www.w3.org/2000/svg" xmlns:xlink="http://www.w3.org/1999/xlink">
    <!-- Generator: Sketch 47.1 (45422) - http://www.bohemiancoding.com/sketch -->
    <title>LinkedIn</title>
    <desc>Created with Sketch.</desc>
    <defs>
        <polygon id="path-1" points="0 16 16 16 16 0 0 0"></polygon>
    </defs>
    <g id="Design" stroke="none" stroke-width="1" fill="none" fill-rule="evenodd">
        <g id="kglobal-blog-detail" transform="translate(-106.000000, -875.000000)">
            <g id="LinkedIn" transform="translate(106.000000, 875.000000)">
                <mask id="mask-2" fill="white">
                    <use xlink:href="#path-1"></use>
                </mask>
                <g id="Clip-7"></g>
                <path d="M13.5639365,13.3934861 L11.1476206,13.3934861 L11.1476206,9.52794532 C11.1476206,8.55713711 10.7979929,7.89449136 9.92327614,7.89449136 C9.2557462,7.89449136 8.85820654,8.34129473 8.68306895,8.77297949 C8.61929427,8.92738239 8.60375526,9.1429031 8.60375526,9.35874548 L8.60375526,13.3934861 L6.18711557,13.3934861 C6.18711557,13.3934861 6.21884105,6.84616003 6.18711557,6.169039 L8.60375526,6.169039 L8.60375526,7.19163651 C8.92489479,6.69947728 9.49919068,5.99855247 10.7821301,5.99855247 C12.371965,5.99855247 13.5639365,7.03144351 13.5639365,9.25098512 L13.5639365,13.3934861 Z M3.6416316,5.18246884 L3.62544513,5.18246884 C2.81450308,5.18246884 2.29038524,4.62758343 2.29038524,3.9340571 C2.29038524,3.22573382 2.83101327,2.68596703 3.65717061,2.68596703 C4.4839754,2.68596703 4.99287795,3.22573382 5.00906442,3.9340571 C5.00906442,4.62758343 4.4839754,5.18246884 3.6416316,5.18246884 L3.6416316,5.18246884 Z M2.43314989,13.3934861 L4.84978958,13.3934861 L4.84978958,6.169039 L2.43314989,6.169039 L2.43314989,13.3934861 Z M14.8174166,0 L1.1819359,0 C0.529297507,0 0,0.513389626 0,1.1464415 L0,14.8535585 C0,15.485967 0.529297507,16 1.1819359,16 L14.8174166,16 C15.4707025,16 16,15.485967 16,14.8535585 L16,1.1464415 C16,0.513389626 15.4707025,0 14.8174166,0 L14.8174166,0 Z" id="Fill-6" fill="#EC8C2F" mask="url(#mask-2)"></path>
            </g>
        </g>
    </g>
</svg>