<?xml version="1.0" encoding="UTF-8" standalone="no"?>
<svg width="17px" height="17px" viewBox="0 0 17 17" version="1.1" xmlns="http://www.w3.org/2000/svg" xmlns:xlink="http://www.w3.org/1999/xlink">
    <!-- Generator: Sketch 47.1 (45422) - http://www.bohemiancoding.com/sketch -->
    <title>2J</title>
    <desc>Created with Sketch.</desc>
    <defs></defs>
    <g id="Design" stroke="none" stroke-width="1" fill="none" fill-rule="evenodd">
        <g id="kglobal-contact-us" transform="translate(-522.000000, -1941.000000)" fill="#2691AF">
            <g id="2J" transform="translate(522.000000, 1941.000000)">
                <path d="M1.35131915,3.35659574 C1.33721277,3.55191489 1.35602128,4.15595745 1.86385106,5.47617021 L1.88012766,5.52319149 C2.55759574,7.95744681 7.46480851,13.3251064 10.2148298,14.6417021 C12.2711064,15.6255319 13.4658085,15.813617 13.6972979,15.7521277 C13.9620638,15.647234 14.7342979,14.7212766 15.0638085,14.3270213 C15.2236809,14.1353191 15.3672766,13.9617021 15.4815745,13.8351064 C15.5774255,13.7265957 15.5738085,13.6651064 15.5727234,13.6434043 C15.5665745,13.5385106 15.4689149,13.4119149 15.4088723,13.3540426 L12.6454681,11.4804255 C12.2653191,11.3646809 11.9672766,11.4587234 11.9108511,11.4768085 L9.94355319,12.5474468 L9.66793617,12.3521277 C6.65893617,10.2289362 4.80304255,7.33170213 4.7252766,7.2087234 L4.56287234,6.95191489 L4.69670213,6.67702128 C4.72491489,6.62276596 5.38791489,5.27361702 5.70982979,4.72744681 C5.79229787,4.58638298 5.66208511,4.15595745 5.49497872,3.88106383 C4.98606383,3.09255319 4.04346809,1.72170213 3.71612766,1.44319149 C3.56891489,1.31659574 3.3837234,1.41425532 3.31210638,1.4612766 C2.49212766,2.17021277 1.54555319,3.07085106 1.35131915,3.35659574 Z M13.5981915,16.8408511 C12.6505319,16.8408511 11.0532553,16.2440426 9.74642553,15.6182979 C6.75659574,14.1895745 1.61644681,8.53978723 0.842404255,5.84148936 C0.382680851,4.64425532 0.190617021,3.70382979 0.287553191,3.12148936 C0.317574468,2.9406383 0.380510638,2.56446809 2.62378723,0.618510638 L2.65344681,0.596808511 C2.975,0.354468085 3.75844681,0.0470212766 4.42253191,0.618510638 C4.9632766,1.08148936 6.17678723,2.93702128 6.41442553,3.30234043 C6.494,3.43255319 7.11178723,4.4887234 6.64410638,5.28085106 C6.42780851,5.64617021 6.02270213,6.44914894 5.81002128,6.87595745 C6.29976596,7.5812766 7.83157447,9.64659574 10.0220426,11.2670213 L11.4522128,10.4929787 C11.5270851,10.4604255 12.2103404,10.1674468 13.0704681,10.4785106 L13.1923617,10.54 L16.0964681,12.5112766 C16.1492766,12.5546809 16.612617,12.9634043 16.6549362,13.5638298 C16.6722979,13.8134043 16.6231064,14.1859574 16.2903404,14.5585106 C16.1825532,14.6778723 16.0472766,14.8406383 15.8971702,15.0214894 C15.1162553,15.9546809 14.5245106,16.6310638 14.017766,16.7865957 C13.8994894,16.822766 13.7580638,16.8408511 13.5981915,16.8408511 L13.5981915,16.8408511 Z"></path>
            </g>
        </g>
    </g>
</svg>