<?xml version="1.0" encoding="UTF-8" standalone="no"?>
<svg width="17px" height="12px" viewBox="0 0 17 12" version="1.1" xmlns="http://www.w3.org/2000/svg" xmlns:xlink="http://www.w3.org/1999/xlink">
    <!-- Generator: Sketch 47.1 (45422) - http://www.bohemiancoding.com/sketch -->
    <title>1E</title>
    <desc>Created with Sketch.</desc>
    <defs></defs>
    <g id="Design" stroke="none" stroke-width="1" fill="none" fill-rule="evenodd">
        <g id="kglobal-contact-us" transform="translate(-522.000000, -1898.000000)" fill="#2691AF">
            <g id="1E" transform="translate(522.000000, 1898.000000)">
                <path d="M15.4143636,10.4616774 L1.46006818,10.4616774 C1.35536364,10.4616774 1.26688636,10.3734194 1.26688636,10.268129 L1.26688636,2.016 L8.11981818,6.50980645 C8.21640909,6.57290323 8.32652273,6.60503226 8.43702273,6.60503226 C8.54945455,6.60503226 8.6615,6.57251613 8.75886364,6.50748387 L15.6075455,1.92851613 L15.6075455,10.268129 C15.6075455,10.3734194 15.5190682,10.4616774 15.4143636,10.4616774 Z M14.1880455,1.48103226 L8.43431818,5.3283871 L2.56777273,1.48103226 L14.1880455,1.48103226 Z M16.34125,0.693290323 C16.2705455,0.601548387 16.1778182,0.535741935 16.0746591,0.499741935 C15.8783864,0.388645161 15.6554545,0.319741935 15.4143636,0.319741935 L1.46006818,0.319741935 C0.714772727,0.319741935 0.107795455,0.927483871 0.107795455,1.67458065 L0.107795455,10.268129 C0.107795455,11.0152258 0.714772727,11.6229677 1.46006818,11.6229677 L15.4143636,11.6229677 C16.1596591,11.6229677 16.7666364,11.0152258 16.7666364,10.268129 L16.7666364,1.67458065 C16.7666364,1.28787097 16.6016591,0.940645161 16.34125,0.693290323 L16.34125,0.693290323 Z"></path>
            </g>
        </g>
    </g>
</svg>