<svg xmlns="http://www.w3.org/2000/svg" viewBox="0 0 15.13 15.47"><defs><style>.cls-1{fill:#ef8e21;}</style></defs><title>Asset 1</title><g id="Layer_2" data-name="Layer 2" opacity=".3"><g id="Layer_1-2" data-name="Layer 1"><path id="Fill-1" class="cls-1" d="M15.13,7.11A6.62,6.62,0,0,0,14.8,4.7L10.9,3.42s3.28,7.08-1.18,10.71a11.29,11.29,0,0,1-2.39,1.34,8.28,8.28,0,0,0,7.79-8.25V7.11"/><path id="Fill-3" class="cls-1" d="M.47,6.24A12,12,0,0,1,.38,4.71,8.31,8.31,0,0,0,6.51,15.3h0l2.55-3.09c-.08,0-7.61-.34-8.59-6"/><path id="Fill-5" class="cls-1" d="M7.7,0H7.47A8.29,8.29,0,0,0,1.05,3.15L2.81,7C2.85,7,6.46.23,12,1.86a11.49,11.49,0,0,1,1.59.7A8.28,8.28,0,0,0,7.7,0"/></g></g></svg>
