<?xml version="1.0" encoding="UTF-8" standalone="no"?>
<svg width="101px" height="33px" viewBox="0 0 101 33" version="1.1" xmlns="http://www.w3.org/2000/svg" xmlns:xlink="http://www.w3.org/1999/xlink">
    <!-- Generator: Sketch 47.1 (45422) - http://www.bohemiancoding.com/sketch -->
    <title>logo</title>
    <desc>Created with Sketch.</desc>
    <defs>
        <polygon id="path-1" points="14.8158 0.228 0 0.228 0 26.1749 14.8158 26.1749"></polygon>
        <polygon id="path-3" points="0.159961808 24 15.062 24 15.062 0.87808781 0.159961808 0.87808781"></polygon>
        <polygon id="path-5" points="3.827 23.3412 3.827 0.0142 0.8825 0.0142 0.8825 23.3412 3.827 23.3412"></polygon>
    </defs>
    <g id="Symbols" stroke="none" stroke-width="1" fill="none" fill-rule="evenodd">
        <g id="Header" transform="translate(-31.000000, -25.000000)">
            <g id="logo" transform="translate(31.000000, 24.000000)">
                <path d="M59.584,18.6855 C59.584,17.7675 59.548,17.1095 59.255,16.2725 L55.358,14.9945 C55.358,14.9945 58.643,22.0735 54.178,25.7065 C53.289,26.3635 52.412,26.7945 51.793,27.0485 C56.131,26.7915 59.572,23.2035 59.584,18.8005 L59.584,18.6855" id="Fill-1" fill="#EF8E21"></path>
                <path d="M44.9219,17.812 C44.8549,17.264 44.8329,16.742 44.8359,16.283 C44.5899,17.064 44.4539,17.893 44.4539,18.756 C44.4419,22.735 47.2279,26.061 50.9609,26.881 L50.9629,26.881 L53.5169,23.789 C53.4339,23.784 45.9099,23.448 44.9219,17.812" id="Fill-3" fill="#EF8E21"></path>
                <path d="M52.1523,11.5761 L51.9273,11.5761 C49.3293,11.6021 47.0133,12.8291 45.5063,14.7271 L47.2673,18.6001 C47.2993,18.5411 50.9133,11.8071 56.4103,13.4341 C57.0113,13.6441 57.5453,13.8921 58.0033,14.1351 C56.5213,12.5911 54.4503,11.6141 52.1523,11.5761" id="Fill-5" fill="#EF8E21"></path>
                <g id="Group-9" transform="translate(0.000000, 0.772000)">
                    <mask id="mask-2" fill="white">
                        <use xlink:href="#path-1"></use>
                    </mask>
                    <g id="Clip-8"></g>
                    <path d="M3.2378,16.5849 L3.3118,16.5849 C3.7508,15.9679 4.3328,15.1609 4.8468,14.5819 L10.0828,8.5029 L13.9128,8.5099 L7.0698,15.7559 L14.8158,26.1749 L10.9088,26.1679 L4.8768,17.6469 L3.2288,19.5029 L3.2078,26.1459 L-0.0002,26.1399 L0.0678,0.2279 L3.2818,0.2329 L3.2378,16.5849 Z" id="Fill-7" fill="#FFFFFF" mask="url(#mask-2)"></path>
                </g>
                <g id="Group-12" transform="translate(18.000000, 9.772000)">
                    <mask id="mask-4" fill="white">
                        <use xlink:href="#path-3"></use>
                    </mask>
                    <g id="Clip-11"></g>
                    <path d="M12.021,7.4931 C12.022,7.0351 11.991,6.6071 11.86,6.2111 C11.339,4.5011 9.964,3.1191 7.829,3.1121 C5.069,3.1021 3.096,5.4321 3.084,9.1401 C3.073,12.2301 4.677,14.8631 7.763,14.8681 C9.572,14.8771 11.185,13.7621 11.78,11.8901 C11.945,11.4361 12.012,10.8771 12.015,10.3521 L12.021,7.4931 Z M14.891,14.8241 C14.879,18.5021 14.118,20.7021 12.607,22.1111 C11.022,23.5191 8.79,24.0051 6.786,24.0001 C4.882,23.9921 2.781,23.5251 1.501,22.6711 L2.23,20.4401 C3.281,21.1301 4.919,21.7281 6.89,21.7331 C9.848,21.7431 12.022,20.2031 12.028,16.1671 L12.035,14.4231 L11.967,14.4231 C11.11,15.9001 9.369,17.0741 6.906,17.0691 C2.965,17.0611 0.148,13.7011 0.16,9.2651 C0.174,3.8791 3.697,0.8711 7.377,0.8781 C10.136,0.8821 11.61,2.3051 12.33,3.6171 L12.394,3.6171 L12.498,1.2541 L15.062,1.2591 C14.96,2.3761 14.923,3.6581 14.919,5.5971 L14.891,14.8241 Z" id="Fill-10" fill="#FFFFFF" mask="url(#mask-4)"></path>
                </g>
                <polygon id="Fill-13" fill="#FFFFFF" points="40.5391 26.9492 37.6481 26.9422 37.7061 3.6242 40.5981 3.6312"></polygon>
                <path d="M66.2686,20.6494 C66.2656,21.0104 66.2966,21.3724 66.3666,21.7024 C66.9166,23.7044 68.6226,25.0864 70.6906,25.0944 C73.7456,25.1054 75.5266,22.6494 75.5346,18.9994 C75.5456,15.7784 73.9096,13.0504 70.8216,13.0414 C68.8516,13.0374 67.0086,14.4114 66.4446,16.5794 C66.3446,16.9384 66.2786,17.3314 66.2746,17.7944 L66.2686,20.6494 Z M63.4256,3.6934 L66.3156,3.7014 L66.2896,13.6524 L66.3536,13.6524 C67.3766,11.8824 69.2186,10.7714 71.7806,10.7774 C75.7216,10.7874 78.4686,14.0794 78.4576,18.8774 C78.4446,24.5914 74.8226,27.4064 71.2766,27.3984 C68.9766,27.3924 67.1706,26.4974 65.9616,24.3934 L65.8986,24.3934 L65.7266,27.0184 L63.2316,27.0134 C63.3306,25.9274 63.3716,24.3234 63.3716,22.9084 L63.4256,3.6934 Z" id="Fill-15" fill="#FFFFFF"></path>
                <path d="M90.4453,18.9765 C87.2933,18.9015 83.7113,19.4495 83.7013,22.5395 C83.6973,24.4425 84.9433,25.2995 86.3843,25.3015 C88.4893,25.3095 89.8383,23.9985 90.3043,22.6545 C90.4013,22.3615 90.4363,22.0305 90.4363,21.7345 L90.4453,18.9765 Z M93.2583,23.2845 C93.2553,24.6685 93.3193,26.0135 93.4763,27.0995 L90.8823,27.0895 L90.6233,25.0835 L90.5253,25.0835 C89.6683,26.3305 87.9243,27.4425 85.6583,27.4385 C82.4403,27.4255 80.8033,25.1595 80.8093,22.8585 C80.8223,19.0145 84.2413,16.9235 90.3833,16.9745 L90.3843,16.6415 C90.3873,15.3295 90.0333,12.9325 86.7813,12.9555 C85.2683,12.9515 83.7273,13.3745 82.6083,14.1245 L81.9573,12.1855 C83.2713,11.3695 85.2133,10.8135 87.2163,10.8205 C92.1083,10.8325 93.2813,14.1535 93.2743,17.3425 L93.2583,23.2845 Z" id="Fill-17" fill="#FFFFFF"></path>
                <g id="Group-21" transform="translate(97.000000, 3.772000)">
                    <mask id="mask-6" fill="white">
                        <use xlink:href="#path-5"></use>
                    </mask>
                    <g id="Clip-20"></g>
                    <polygon id="Fill-19" fill="#FFFFFF" mask="url(#mask-6)" points="3.7715 23.3412 0.8825 23.3342 0.9395 0.0142 3.8275 0.0212"></polygon>
                </g>
            </g>
        </g>
    </g>
</svg>