<?xml version="1.0" encoding="UTF-8" standalone="no"?>
<svg width="334px" height="268px" viewBox="0 0 334 268" version="1.1" xmlns="http://www.w3.org/2000/svg" xmlns:xlink="http://www.w3.org/1999/xlink">
    <!-- Generator: Sketch 47.1 (45422) - http://www.bohemiancoding.com/sketch -->
    <title>Fill 1</title>
    <desc>Created with Sketch.</desc>
    <defs></defs>
    <g id="Symbols" stroke="none" stroke-width="1" fill="none" fill-rule="evenodd" opacity="0.119999997">
        <g id="Client-Satisfaction-Copy" transform="translate(104.000000, -30.000000)" fill="#2690AE">
            <g id="Client-Satisfaction" transform="translate(-125.000000, -6.000000)">
                <path d="M322.229147,223.946935 C310.021147,236.030935 296.420147,246.924935 282.450147,256.964935 C258.875147,273.906935 232.002147,279.839935 203.180147,277.217935 C201.557147,277.070935 199.926147,277.001935 199.367147,276.965935 C187.560147,276.965935 176.779147,276.359935 166.095147,277.119935 C152.896147,278.056935 141.762147,285.017935 130.506147,291.320935 C127.115147,293.219935 123.165147,296.571935 120.152147,295.951935 C117.568147,295.419935 116.142147,290.021935 113.841147,287.056935 C112.655147,285.528935 110.820147,283.861935 109.040147,283.528935 C72.8741467,276.757935 51.8811467,253.555935 40.9091467,220.050935 C33.3231467,196.887935 29.3541467,173.000935 34.2681467,148.744935 C40.8381467,116.301935 57.2021467,89.7009348 84.9721467,71.0309348 C98.5371467,61.9109348 114.315147,57.7929348 129.977147,53.8039348 C148.606147,49.0599348 167.187147,44.0469348 185.977147,40.0259348 C218.208147,33.1289348 249.714147,36.5099348 279.609147,50.2329348 C292.394147,56.1019348 304.773147,63.4319348 316.100147,71.7779348 C336.655147,86.9229348 348.133147,107.874935 350.685147,133.453935 C354.098147,167.671935 347.379147,199.052935 322.229147,223.946935 M356.548147,138.302935 C356.521147,115.466935 349.308147,95.7929348 333.121147,79.0179348 C315.011147,60.2519348 293.426147,47.4259348 269.487147,38.0889348 C256.440147,33.0009348 242.748147,30.7559348 228.754147,31.0209348 C182.307147,31.8999348 138.047147,43.4699348 95.3711467,60.6849348 C65.4771467,72.7439348 45.2241467,95.1969348 34.7521467,126.040935 C29.6021467,141.209935 27.7111467,156.786935 28.0351467,172.750935 C28.7291467,206.935935 37.7111467,238.034935 60.9771467,264.103935 C68.7571467,272.821935 77.8221467,279.384935 88.8361467,283.304935 C94.3581467,285.270935 99.9961467,287.056935 105.245147,289.614935 C112.385147,293.092935 115.102147,301.578935 110.657147,307.736935 C107.079147,312.694935 104.264147,318.825935 97.3881467,320.743935 C96.3021467,321.046935 95.1601467,323.089935 95.0991467,324.378935 C95.0631467,325.134935 97.3071467,326.852935 98.1801467,326.649935 C101.537147,325.869935 105.444147,325.279935 107.872147,323.159935 C112.368147,319.234935 116.333147,314.547935 119.855147,309.695935 C125.163147,302.380935 131.798147,296.773935 139.646147,292.552935 C158.696147,282.304935 178.736147,277.406935 200.467147,281.283935 C214.279147,283.747935 228.063147,283.381935 241.725147,279.908935 C257.833147,275.814935 273.361147,269.879935 286.634147,260.003935 C300.974147,249.334935 314.755147,237.708935 327.602147,225.280935 C350.545147,203.085935 356.109147,174.161935 356.548147,143.685935 C356.548147,141.891935 356.550147,140.096935 356.548147,138.302935" id="Fill-1" transform="translate(192.274518, 178.833238) scale(-1, 1) rotate(12.000000) translate(-192.274518, -178.833238) "></path>
            </g>
        </g>
    </g>
</svg>