<svg width="149" height="51" viewBox="0 0 149 51" xmlns="http://www.w3.org/2000/svg" xmlns:xlink="http://www.w3.org/1999/xlink"><title>Glyphs / Logos / Chart</title><defs><path id="a" d="M.059 50.67h23.073V.154H.059v50.514z"/></defs><g fill="none" fill-rule="evenodd"><path d="M0 25.605v-.079c0-7.764 5.84-14.124 14.212-14.124 5.14 0 8.215 1.717 10.746 4.214l-3.816 4.41c-2.102-1.912-4.244-3.083-6.97-3.083-4.594 0-7.904 3.823-7.904 8.506v.077c0 4.683 3.232 8.585 7.905 8.585 3.114 0 5.023-1.249 7.164-3.2l3.816 3.863c-2.804 3.004-5.919 4.877-11.175 4.877C5.957 39.651 0 33.448 0 25.605M32.868 11.87h5.996v10.81h11.057V11.87h5.997v27.312h-5.997V28.219H38.864v10.964h-5.996zm74.558 13.267c2.92 0 4.595-1.561 4.595-3.863v-.078c0-2.576-1.791-3.902-4.712-3.902h-5.957v7.843h6.074zM95.356 11.87h12.46c3.465 0 6.151.975 7.943 2.77 1.518 1.522 2.336 3.668 2.336 6.243v.078c0 4.409-2.375 7.179-5.84 8.467l6.658 9.754h-7.01l-5.84-8.74h-4.71v8.74h-5.997V11.87zm39.147 5.541h-8.294v-5.54h22.583v5.54h-8.293v21.772h-5.996z" fill="#FFF"/><g transform="translate(63.473 .115)"><mask id="b" fill="#fff"><use xlink:href="#a"/></mask><path d="M4.936 22.63L18.288 9.18l-.162 18.96-13.19-5.51zM22.931 1.399c-.008-1.1-1.325-1.655-2.114-.891L.059 20.592l.2 28.833c.009 1.1 1.326 1.655 2.115.891l20.758-20.084-.201-28.833z" fill="#068B84" mask="url(#b)"/></g><path d="M68.387 22.767l13.351-13.45-.162 18.96 5.007 2.092-.202-28.833c-.007-1.1-1.325-1.654-2.114-.891L63.51 20.73l4.878 2.037z" fill="#379E99"/></g></svg>