<svg xmlns="http://www.w3.org/2000/svg" viewBox="0 0 66.53 109.46"><defs><style>.cls-1{fill:#FCF6EC;stroke:#E6804;stroke-miterlimit:10;}</style></defs><title>AL</title><g id="Layer_2" data-name="Layer 2"><g id="Layer_1-2" data-name="Layer 1"><g id="outlines"><path id="AL" class="cls-1" d="M7.8,106.05l.6.2,1.3-2.7,1.5-4.4,2.3.6,3.1,6v1l-2.7,1.9,2.7.3,5.2-2.5-.3-7.6L19,97.05l-2-2,.4-4,10.5-1.5,25.7-2.9,6.7-.6,5.6.1L65.4,84l-1.5-.8-.9-1.1,1-2.6-.4-5.2L62,69.75l.8-5.1,1.7-4.8-.2-1.7-1.8-.7-.5-3.6-2.7-3.4-2-6.5-1.4-6.7-1.8-5-3.8-16-3.5-7.9L46,2.75l.1-2.2-9,.8L13.7,3.55l-12.2.8-.2,6.4.2,16.7-.7,31L.5,72.55l2.8,18.8,1.6,14.7Z"/></g></g></g></svg>