<svg xmlns="http://www.w3.org/2000/svg" viewBox="0 0 210.72 156.48"><defs><style>.cls-1{fill:#FCF6EC;stroke:#E6804;stroke-miterlimit:10;}</style></defs><title>AK</title><g id="Layer_2" data-name="Layer 2"><g id="Layer_1-2" data-name="Layer 1"><g id="outlines"><path id="AK" class="cls-1" d="M153,20.7l-.3,85.4,1.6,1,3.1.2,1.5-1.1h2.6l.2,2.9,7,6.8.5,2.6,3.4-1.9.6-.2.3-3.1,1.5-1.6,1.1-.2L178,110l3.1,2.1.6,2.9,1.9,1.1,1.1,2.4,3.9,1.8,3.4,6,2.7,3.9,2.3,2.7,1.5,3.7,5,1.8,5.2,2.1,1,4.4.5,3.1-1,3.4-1.8,2.3-1.6-.8-1.5-3.1-2.7-1.5-1.8-1.1-.8.8,1.5,2.7.2,3.7-1.1.5-1.9-1.9-2.1-1.3.5,1.6,1.3,1.8-.8.8a3.14,3.14,0,0,1-1.3-1c-.5-.6-2.1-3.4-2.1-3.4l-1-2.3s-.3,1.3-1,1a4.89,4.89,0,0,1-1.3-1.5l1.8-1.9-1.5-1.5v-5h-.8l-.8,3.4-1.1.5-1-3.7-.6-3.7-.8-.5.3,5.7v1.1l-1.5-1.3-3.6-6-2.1-.5-.6-3.7-1.6-2.9-1.6-1.1v-2.3l2.1-1.3-.5-.3-2.6.6-3.4-2.4-2.6-2.9-4.8-2.6-4-2.6,1.3-3.2V109l-1.8,1.6-2.9,1.1-3.7-1.1-5.7-2.4h-5.5l-.6.5-6.5-3.9-2.1-.3-2.7-5.8-3.6.3-3.6,1.5.5,4.5,1.1-2.9,1,.3-1.5,4.4,3.2-2.7.6,1.6-3.9,4.4-1.3-.3-.5-1.9-1.3-.8-1.3,1.1-2.7-1.8-3.1,2.1-1.8,2.1-3.4,2.1-4.7-.2-.5-2.1,3.7-.6v-1.3l-2.3-.6,1-2.4,2.3-3.9V99.8l.2-.8,4.4-2.3,1,1.3h2.7l-1.3-2.6-3.7-.3-5,2.7-2.4,3.4-1.8,2.6-1.1,2.3-4.2,1.5L92,110.2l-.3,1.6,2.3,1,.8,2.1-2.7,3.2-6.5,4.2-7.8,4.2-2.1,1.1-5.3,1.1-5.3,2.3,1.8,1.3-1.5,1.5-.5,1.1-2.7-1-3.2.2-.8,2.3h-1l.3-2.4-3.6,1.3-2.9,1-3.4-1.3-2.9,1.9h-3.2l-2.1,1.3-1.6.8-2.1-.3-2.6-1.1-2.3.6-1,1-1.6-1.1v-1.9l3.1-1.3,6.3.6,4.4-1.6,2.1-2.1,2.9-.6,1.8-.8,2.7.2,1.6,1.3,1-.3,2.3-2.7,3.1-1,3.4-.6,1.3-.3.6.5h.8l1.3-3.7,4-1.5,1.9-3.7,2.3-4.5,1.6-1.5L77,110l-1.6,1.3-3.4.6-.6-2.4-1.3-.3-1,1-.2,2.9-1.5-.2-1.5-5.8-1.3,1.3-1.1-.5-.3-1.9-4,.2-2.1,1.1-2.6-.3,1.5-1.5.5-2.6-.6-1.9,1.5-1,1.3-.2-.6-1.8V93.6l-1-1-.8,1.5h-6.1l-1.5-1.3-.6-3.9L46,85.3v-1l2.1-.8.2-2.1,1.1-1.1-.8-.5-1.3.5-1.1-2.7,1-5,4.5-3.2,2.6-1.6,1.9-3.7,2.7-1.3,2.6,1.1.3,2.4,2.4-.3,3.2-2.4,1.6.6,1,.6h1.6l2.3-1.3.8-4.4s.3-2.9,1-3.4a7.84,7.84,0,0,0,1-1l-1.1-1.9-2.6.8-3.2.8-1.9-.5-3.6-1.8-5-.2-3.6-3.7.5-3.9.6-2.4-2.1-1.8-1.9-3.7.5-.8,6.8-.5h2.1l1,1h.6l-.2-1.6,3.9-.6,2.6.3,1.5,1.1-1.5,2.1-.5,1.5,2.7,1.6,5,1.8,1.8-1-2.3-4.4-1-3.2,1-.8L73.41,31l-.5-1.1.5-1.6-.8-3.9-2.9-4.7-2.4-4.2,2.9-1.9h3.2l1.8.6,4.2-.2,3.7-3.6,1.1-3.1,3.7-2.4,1.6,1,2.7-.6,3.7-2.1L97,3l1,.8,4.5-.2,2.7-3.1h1.1l3.6,2.4,1.9,2.1-.5,1.1.6,1.1,1.6-1.6,3.9.3.3,3.7,1.9,1.5,7.1.6,6.3,4.2,1.5-1,5.2,2.6,2.1-.6,1.9-.8,4.8,1.9ZM37.91,49.6,40,54.9l-.2,1-2.9-.3-1.8-4-1.8-1.5h-2.4l-.2-2.6,1.8-2.4,1.1,2.4,1.5,1.5Zm-2.6,33.5,3.7.8,3.7,1,.8,1-1.6,3.7-3.1-.2-3.4-3.6ZM14.61,69l1.1,2.6,1.1,1.6-1.1.8-2.1-3.1V69ZM.91,142.1l3.4-2.3,3.4-1,2.6.3.5,1.6,1.9.5,1.9-1.9-.3-1.6,2.7-.6,2.9,2.6-1.1,1.8-4.4,1.1-2.7-.5L8,141l-4.4,1.5-1.6.3Zm48.9-4.5,1.6,1.9,2.1-1.6L52,136.6Zm2.9,3,1.1-2.3,2.1.3-.8,1.9h-2.4Zm23.6-1.9,1.5,1.8,1-1.1-.8-1.9Zm8.8-12.5,1.1,5.8,2.9.8,5-2.9,4.4-2.6-1.6-2.4.5-2.4-2.1,1.3-2.9-.8,1.6-1.1,1.9.8,3.9-1.8.5-1.5-2.4-.8.8-1.9L96,118.6l-4.7,3.6-4.8,2.9Zm42.3-19.8,2.4-1.5-1-1.8-1.8,1Z"/></g></g></g></svg>