<svg xmlns="http://www.w3.org/2000/svg" viewBox="0 0 119.19 139.43"><defs><style>.cls-1{fill:#FCF6EC;stroke:#E6804;stroke-miterlimit:10;}</style></defs><title>AZ</title><g id="Layer_2" data-name="Layer 2"><g id="Layer_1-2" data-name="Layer 1"><g id="outlines"><path id="AZ" class="cls-1" d="M.82,94.38l-.3,1.5.5,1,18.9,10.7,12.1,7.6,14.7,8.6,16.8,10,12.3,2.4,25.4,2.7,6-39.6,7-53.1,4.4-31L94,11.58,33.32.58l-.2,1.1-2.6,16.5L28.42,22l-2.8-.2-1.2-2.6-2.6-.4-1.2-1.1-1.1.1-2.1,1.7-.3,6.8-.3,1.5-.5,12.5-1.5,2.4-.4,3.3,2.8,5,1.1,5.5.7,1.1,1.1.9-.4,2.4L18,62.08l-3.4,1.6L13,65.48l-1.6,3.6-.5,4.9-3,2.9-1.9.9-.1,5.8-.6,1.6.5.8,3.9.4-.9,3-1.7,2.4-3.7.4Z"/></g></g></g></svg>