<svg xmlns="http://www.w3.org/2000/svg" viewBox="0 0 87.45 79.41"><defs><style>.cls-1{fill:#FCF6EC;stroke:#E6804;stroke-miterlimit:10;}</style></defs><title>AR</title><g id="Layer_2" data-name="Layer 2"><g id="Layer_1-2" data-name="Layer 1"><g id="outlines"><path id="AR" class="cls-1" d="M83,12.11l-6.4-.7.9-3.1,3.1-2.6.6-2.3L79.42.51l-31.9,1.2-23.3.7-23.6.3,1.5,6.9.1,8.5L3.62,29l.3,38.2L6,68.81l3-1.2,2.9,1.2.4,10.1,25.2-.2,26.8-.8.9-1.9-.3-3.8-1.7-3.1,1.5-1.4-1.4-2.2.7-2.4,1.1-5.9,2.7-2.3-.8-2.2,4-5.6,2.5-1.1-.1-1.7-.5-1.7,2.9-5.8,2.5-1.1.2-3.3,2.1-1.4.9-4.1-1.4-4,4.2-2.4.3-2.1,1.2-4.2.9-3.1Z"/></g></g></g></svg>