<svg xmlns="http://www.w3.org/2000/svg" viewBox="0 0 140.37 239.92"><defs><style>.cls-1{fill:#FCF6EC;stroke:#E6804;stroke-miterlimit:10;}</style></defs><title>CA</title><g id="Layer_2" data-name="Layer 2"><g id="Layer_1-2" data-name="Layer 1"><g id="outlines"><path id="CA" class="cls-1" d="M109.24,238.52l-19.7-2.7-10-1.5-.5-1.8v-9.4l-.3-3.2-2.6-4.2-.8-2.3-3.9-4.2-2.9-4.7-2.7-.2-3.2-.8-.3-1,1.5-.6-.6-3.2-1.5-2.1-4.8-.8-3.9-2.1-1.1-2.3-2.6-4.8-2.9-3.1h-2.9l-3.9-2.1-4.5-1.8-4.2-.5-2.4-2.7.5-1.9,1.8-7.1.8-1.9v-2.4l-1.6-1-.5-2.9-1.5-2.6-3.4-5.8-1.3-3.1-1.5-4.7-1.6-5.3-3.2-4.4-.5-2.9.8-3.9h1.1l2.1-1.6,1.1-3.6-1-2.7-2.7-.5-1.9-2.6-2.1-3.7-.2-8.2.6-1.9.6-2.3.5-2.4-5.7-6.3v-2.1l.3-.5.3-3.2-1.3-4-2.3-4.8L4,71.62l-1.8-3.9,1-3.7.6-5.8,1.8-3.1.3-6.5L4.84,45l-1.6-4.2-2.7-4.2.8-3.2,1.5-4.2,1.8-.8.3-1.1L8,24.72l5.2-11.8.2-7.4L15.13.62l38.69,11.8L79.42,19l-8,31.3-8.67,33.1,12.63,19.2,42.16,62.3,17.1,26.1-.4,3.1,2.8,5.2,1.1,5.4,1,1.5.7.6-.2,1.4-1.4,1-3.4,1.6-1.9,2.1-1.7,3.9-.5,4.7-2.6,2.5-2.3,1.1-.1,6.2-.6,1.9,1,1.7,3,.3-.4,1.6-1.4,2-3.9.6Zm-73.9-48.9,1.3,1.5-.2,1.3-3.2-.1-.6-1.2-.6-1.5Zm1.9,0,1.2-.6,3.6,2.1,3.1,1.2-.9.6-4.5-.2-1.6-1.6Zm20.7,19.8,1.8,2.3.8,1,1.5.6.6-1.5-1-1.8-2.7-2-1.1.2v1.2Zm-1.4,8.7,1.8,3.2,1.2,1.9-1.5.2-1.3-1.2a9.72,9.72,0,0,1-.7-1.9v-2.2Z"/></g></g></g></svg>