<svg xmlns="http://www.w3.org/2000/svg" viewBox="0 0 160.38 135.66"><defs><style>.cls-1{fill:#FCF6EC;stroke:#E6804;stroke-miterlimit:10;}</style></defs><title>FL</title><g id="Layer_2" data-name="Layer 2"><g id="Layer_1-2" data-name="Layer 1"><g id="outlines"><path id="FL" class="cls-1" d="M112,1.23l-5.2-.7-.7.8,1.5,4.4-.4,5.2-4.1-1-.2-2.8h-4.1l-5.3.7-32.4,1.9-8.2-.3-1.7-1.7-2.5-4.2h-5.9l-6.6.5L.82,8.23.52,11l1.6,1.6,2.9,2,.3,8.4,3.3-.6,6-2.1,6-.5,4.4-.6,7.6,1.8,8.1,3.9,1.6,1.5,2.9,1.1,1.6,1.9.3,2.7,3.2-1.3h3.9l3.6-1.9,3.7-3.6,3.1.2.5-1.1-.8-1,.2-1.9,4-.8h2.6l2.9,1.5,4.2,1.5,2.4,3.7,2.7,1,1.1,3.4,3.4,1.6,1.6,2.6,1.9.6,5.2,1.3,1.3,3.1,3,3.7v9.5l-1.5,4.7.3,2.7,1.3,4.8,1.8,4,.8-.5,1.5-4.5-2.6-1-.3-.6,1.6-.6,4.5,1,.2,1.6-3.2,5.5-2.1,2.4,3.6,3.7,2.6,3.1,2.9,5.3,2.9,3.9,2.1,5,1.8.3,1.6-2.1,1.8,1.1,2.6,4,.6,3.6,3.1,4.4.8-1.3,3.9.3,3.6,2.3,3.4,5.2.8,3.4.3,2.9,1.1,1,1.3.5,2.4-1,1.5-1.6,3.9-.2,3.1-1.5,2.7-3.2-.5-1.9-.3-2.4.6-1.9-.3-1.9,2.4-1.3.3-3.4-.6-1.8-.5-12-1.3-7.6-4.5-8.2-3.6-5.8-2.6-5.3-2.9-2.9-2.9-7.4.7-1.4,1.1-1.3-1.6-2.9-4-3.7-4.8-5.5-3.7-6.3-5.3-9.4-3.7-9.7-2.3-7.3Zm17.7,132.7,2.4-.6,1.3-.2,1.5-2.3,2.3-1.6,1.3.5,1.7.3.4,1.1-3.5,1.2-4.2,1.5-2.3,1.2Zm13.5-5,1.2,1.1,2.7-2.1,5.3-4.2,3.7-3.9,2.5-6.6,1-1.7.2-3.4-.7.5-1,2.8-1.5,4.6-3.2,5.3-4.4,4.2-3.4,1.9Z"/></g></g></g></svg>