<svg xmlns="http://www.w3.org/2000/svg" viewBox="0 0 94.44 99.11"><defs><style>.cls-1{fill:#FCF6EC;stroke:#E6804;stroke-miterlimit:10;}</style></defs><title>GA</title><g id="Layer_2" data-name="Layer 2"><g id="Layer_1-2" data-name="Layer 1"><g id="outlines"><path id="GA" class="cls-1" d="M83,89l-5.6-.7L76,89.86l1.6,4.71-.3,3.89-2.2-.6-.2-3H69.7l-5.3.71L32.1,97.46l-7.7-.29L23,96l-2.5-4.29-.8-3.3-1.6-.9-.5-.5.9-2.2-.4-5.5-1.6-4.5.8-4.9,1.7-4.8-.2-2.5-1.9-.7-.4-3.2-2.8-3.5L11.8,49l-1.5-7L8.6,37.17l-3.8-16-3.5-8L.5,7.87l.1-2.3,3.3-.3,13.6-1.6,18.6-2L42.4.57,42.9,2l-2.2.9-.9,2.2.4,2,1.4,1.6,4.3,2.7,3.2-.1L52.3,16l.6,1.6,2.3,2.8.5,1.7,4.7,1.8,3,2.2,2.3,3,2.3,1.3,2,1.8,1.4,2.7,2.1,1.9,4.1,1.8,2.7,6,1.7,5.1,2.8.7,2.1,1.9,2,5.7,2.9,1.6,1.7-.8.4,1.2-3.3,6.2.5,2.6L89.6,73,87.3,83l.8,6.3Z"/></g></g></g></svg>