<svg xmlns="http://www.w3.org/2000/svg" viewBox="0 0 114.9 73.74"><defs><style>.cls-1{fill:#FCF6EC;stroke:#E6804;stroke-miterlimit:10;}</style></defs><title>HI</title><g id="Layer_2" data-name="Layer 2"><g id="Layer_1-2" data-name="Layer 1"><g id="outlines"><path id="HI" class="cls-1" d="M.83,9.71l1.9-3.6L5,5.81l.3.8-2.1,3.1ZM11,6l6.1,2.6,2.1-.3,1.6-3.9L20.23,1,16,.51l-4,1.8Zm30.7,10,3.7,5.5,2.4-.3,1.1-.5,1.5,1.3,3.7-.2,1-1.5-2.9-1.8-1.9-3.7-2.1-3.6-5.8,2.9Zm20.2,8.9,1.3-1.9,4.7,1,.6-.5,6.1.6-.3,1.3-2.6,1.5-4.4-.3Zm5.3,5.2,1.9,3.9,3.1-1.1.3-1.6-1.6-2.1-3.7-.3Zm7-1.2,2.3-2.9,4.7,2.4,4.4,1.1,4.4,2.7v1.9l-3.6,1.8-4.8,1-2.4-1.5Zm16.6,15.6,1.6-1.3,3.4,1.6,7.6,3.6,3.4,2.1,1.6,2.4,1.9,4.4,4,2.6-.3,1.3-3.9,3.2-4.2,1.5-1.5-.6-3.1,1.8-2.4,3.2-2.3,2.9-1.8-.2-3.6-2.6-.3-4.5.6-2.4-1.6-5.7L87.83,56l-.2-2.6,2.3-1,2.1-3.1.5-1-1.6-1.8Z"/></g></g></g></svg>