<svg xmlns="http://www.w3.org/2000/svg" viewBox="0 0 104.85 168.63"><defs><style>.cls-1{fill:#FCF6EC;stroke:#E6804;stroke-miterlimit:10;}</style></defs><title>ID</title><g id="Layer_2" data-name="Layer 2"><g id="Layer_1-2" data-name="Layer 1"><g id="outlines"><path id="ID" class="cls-1" d="M34.71.58,29.91,18l-4.5,20.86L22,55.07l-.4,9.67,1.2,4.44,3.5,2.66-.2,3.91-3.9,4.4-4.5,6.6-.9,2.9-1.2,1.1-1.8.8-4.3,5.3-.4,3.1-.4,1.1.6,1,2.6-.1,1.1,2.3-2.4,5.8-1.2,4.2-8.8,35.3,20.7,4.5,39.5,7.9,34.8,6.1,4.9-29.2,3.8-24.1-2.7-2.4-.4-2.6-.8-1.1-2.1,1-.7,2.6-3.2.5-3.9-1.6-3.8.1-2.5.7-3.4-1.5-2.4.2-2.4,2-2-1.1-.7-4,.7-2.9-2.5-2.9-3.3-2.6-2.7-13.1-.1-4.7-.3-.1-.2.4-5.1,3.5-1.7-.2-2.9-3.4-.2-3.1,7-17.13-.4-1.94-3.4-1.15-.6-1.18L55,53.59l-4.6-10.23-3.2-1.53-2-4.95,1.3-4.63-3.2-7.58,4.4-21.52Z"/></g></g></g></svg>