<svg xmlns="http://www.w3.org/2000/svg" viewBox="0 0 69.82 124.6"><defs><style>.cls-1{fill:#FCF6EC;stroke:#E6804;stroke-miterlimit:10;}</style></defs><title>IL</title><g id="Layer_2" data-name="Layer 2"><g id="Layer_1-2" data-name="Layer 1"><g id="outlines"><path id="IL" class="cls-1" d="M63.21,16.76l-.8-2.6-1.3-3.7-1.6-1.8L58,6.06l-.4-5.5-15.9,1.8-17.4,1H12l.2,2.1,2.2.9,1.1,1.4.4,1.4,3.9,3.4.7,2.4-.7,3.3L18.11,22l-.8,2.7-2.4,1.9-1.9.6-5.2,1.3-1.3,4.1.6,1.1L9,35.46l-.2,4.3-2.1,1.6-.5,1.3v2.8l-1.8.6L3,47.26l-.4,1.2.4,2-1.6,1.3-.9,2.8.3,3.9,2.3,7,7,7.6,5.7,3.7v4.4l.7,1.2,6.6.6,2.7,1.4-.7,3.5-2.2,6.2-.8,3,2,3.7,6.4,5.3,4.8.8,2.2,5.1,2,3.4-.9,2.8,1.5,3.8,1.7,2.1,1.6-.3,1-2.2,2.4-1.7,2.8-1,6.1,2.5.5-.2v-1.1l-1.2-2.7.4-2.8,2.4-1.6,3.4-1.2-.5-1.3-.8-2,1.2-1.3,1-2.7v-4l.4-4.9,2.5-3,1.8-3.8,2.5-4-.5-5.3L67,76.26l-.3-3.3.8-5.3-.7-7.2-1.1-15.8-1.4-15.3-.9-11.7Z"/></g></g></g></svg>