<svg xmlns="http://www.w3.org/2000/svg" viewBox="0 0 52.64 91.97"><defs><style>.cls-1{fill:#FCF6EC;stroke:#E6804;stroke-miterlimit:10;}</style></defs><title>IN</title><g id="Layer_2" data-name="Layer 2"><g id="Layer_1-2" data-name="Layer 1"><g id="outlines"><path id="IN" class="cls-1" d="M4.8,6.45l1.5,1,1.1-.3,2.1-1.9L12,3.45l14.3-1.1L44.7.55l1.6,15.5,4.9,42.6-.6,2.9,1.3,1.6.2,1.3-2.3,1.6-3.6,1.7-3.2.4L42.5,73l-4.7,3.6-2.9,4,.2,2.4-.5,1.4H31.1l-1.4-1.7-5.2,3,.2,3.1-.9.2-.5-.9-2.4-1.7-3.6,1.5-1.4,2.9-1.2-.6-1.6-1.8-4.4.5-5.7,1L.5,91.15v-2.6l.4-4.7L3.2,81,5,77.05l2.7-4.2-.5-5.8L5.4,64l-.3-3.2.8-5.3-.7-7.1-.9-12.6L1.8,5.65Z"/></g></g></g></svg>