<svg xmlns="http://www.w3.org/2000/svg" viewBox="0 0 104.93 69.5"><defs><style>.cls-1{fill:#FCF6EC;stroke:#E6804;stroke-miterlimit:10;}</style></defs><title>IA</title><g id="Layer_2" data-name="Layer 2"><g id="Layer_1-2" data-name="Layer 1"><g id="outlines"><path id="IA" class="cls-1" d="M86.21,3.81l2.1,2.1.3.7-2,3,.3,4,2.6,4.1,3.1,1.6,2.4.3.9,1.8.2,2.4,2.5,1,.9,1.1.5,1.6,3.8,3.3.6,1.9-.7,3-1.7,3.7-.6,2.4-2.1,1.6-1.6.5L92,45.41l-1.6,4.8.8,1.8,1.7,1.5-.2,3.5-1.9,1.4-.7,1.8v2.4l-1.4.4L87,64.41l-.5,1.7.4,1.7-1.3,1-2.3-2.7-1.4-2.8-8.3.8-10,.6-49.2,1.2-1.6-4.3-.4-6.7L11,50.71l-.7-5.2-2.2-3.7-1-4.6-2.7-7.8-1.1-5.6-1.4-1.9L.61,19l1.7-3.8,1.2-6.1L.81,6.91l-.3-2.4.7-2.4L3,1.81l61.1-.6,21.2-.7Z"/></g></g></g></svg>