<svg xmlns="http://www.w3.org/2000/svg" viewBox="0 0 127.61 65.27"><defs><style>.cls-1{fill:#FCF6EC;stroke:#E6804;stroke-miterlimit:10;}</style></defs><title>KY</title><g id="Layer_2" data-name="Layer 2"><g id="Layer_1-2" data-name="Layer 1"><g id="outlines"><path id="KY" class="cls-1" d="M12.54,64.55l12.6-.7.1-4.1h4.3l30.4-3.2,45.1-4.3,5.6-3.6,3.9-2.1.1-1.9,6-7.8,4.1-3.6,2.1-2.4-3.3-2-2.5-2.7-3-3.8-.5-2.2-2.6-1.4-.9-1.9-.2-6.1-2.6-2-1.9-1.1-.5-2.3-1.3.2-2,1.2L103,9.45l-1.9-1.7-2.5-.5-2.4,1.4h-2.3l-1.8-2-5.6-.1-1.8-4.5L81.84.55l-2.1.8-4.2.2L75,3.65l1.2,1.5.3,2.1-2.8,2-3.8,1.8-2.6.4-.5,4.5-4.9,3.6-2.6,3.7.2,2.2-.9,2.3-4.5-.1-1.3-1.3-3.9,2.2.2,3.3-2.4.6-.8-1.4-1.7-1.2L41.54,31l-1.8,3.5-2.2-1-1.4-1.6-3.7.4-5.6,1L24,34.55,22.84,38l-1,1,1.5,3.7-4.2,1.4-1.9,1.4-.4,2.2,1.2,2.4v2.2l-1.6.4-6.1-2.5-2.3.9-2,1.4-.8,1.8,1.7,2.4L6,58.45l-.1,3.3-2.4,1.3-2.1,1.7Z"/></g></g></g></svg>