<svg xmlns="http://www.w3.org/2000/svg" viewBox="0 0 99.62 87.75"><defs><style>.cls-1{fill:#FCF6EC;stroke:#E6804;stroke-miterlimit:10;}</style></defs><title>LA</title><g id="Layer_2" data-name="Layer 2"><g id="Layer_1-2" data-name="Layer 1"><g id="outlines"><path id="LA" class="cls-1" d="M10.82,73.52l8.1-.3,10.3,3.6,6.5,1.1,3.7-1.5,3.2,1.1,3.2,1,.8-2.1-3.2-1.1-2.6.5-2.7-1.6.8-1.5,3.1-1,1.8,1.5,1.8-1,3.2.6,1.5,2.4.3,2.3,4.5.3,1.8,1.8-.8,1.6-1.3.8,1.6,1.6,8.4,3.6,3.6-1.3,1-2.4,2.6-.6,1.8-1.5,1.3,1,.8,2.9-2.3.8.6.6,3.4-1.3,2.3-3.4.8-.5-2.1-.3.8-1.6-.2-1.5,2.1-.5,1.1-1.3.6.8.6,3.1,4.2.6,4,1.9,1,1.5h2.9l1.1,1,2.3-3.1v-1.5h-1.3l-3.4-2.7-5.8-.8-3.2-2.3,1.1-2.7,2.3.3.2-.6-1.8-1v-.5h3.2l1.8-3.1-1.3-1.9-.3-2.7-1.5.2-1.9,2.1-.6,2.6-3.1-.6-1-1.8,1.8-1.9,1.9-1.7L84,55l-3.4-3.4,1-7.3-.2-.5-1.3.2L47,45.42l-.8-2.4.8-8.5,8.6-14.8-.9-2.6,1.4-.4.4-2-2.2-2,.1-1.9-2-4.5L52,1.22l.1-.7-26.4.8-25.2.1.4,9.7.7,9.5.5,3.7,2.6,4.5.9,4.4,4.3,6,.3,3.1.6.8-.7,8.3L7.32,56l1.2,2.4L8,61l-.8,7.3-1.3,3,.2,3.7Z"/></g></g></g></svg>