<svg xmlns="http://www.w3.org/2000/svg" viewBox="0 0 64.05 101.43"><defs><style>.cls-1{fill:#FCF6EC;stroke:#E6804;stroke-miterlimit:10;}</style></defs><title>ME</title><g id="Layer_2" data-name="Layer 2"><g id="Layer_1-2" data-name="Layer 1"><g id="outlines"><path id="ME" class="cls-1" d="M2,55.53l1.5.4v-2.6l.8-5.5,2.6-4.7,1.5-4-1.9-2.4v-6l.8-1,.8-2.7-.2-1.5-.2-4.8,1.8-4.8L12.35,7l2.1-4.2h1.3l1.3.2v1.1l1.3,2.3,2.7.6.8-.8v-1l4-2.9,1.8-1.8,1.5.2,6,2.4,1.9,1L46.15,34h6l.8,1.9.2,4.8,2.9,2.3h.8l.2-.5-.5-1.1,2.8-.5,1.9,2.1,2.3,3.7v1.9l-2.1,4.7-1.9.6L56.15,57l-4.8,5.5h-1.3c-.6,0-1-2.1-1-2.1l-1.8.2-1,1.5-2.4,1.5-1,1.5,1.6,1.5-.5.6-.5,2.7-1.9-.2v-1.6l-.3-1.3-1.5.3L38,63.93l-2.1,1.3,1.3,1.5.3,1.1-.8,1.3.3,3.1.2,1.6-1.6,2.6-2.9.5-.3,2.9-5.3,3.1-1.3.5-1.6-1.5-3.1,3.6,1,3.2L20.55,90l-.2,4.4-1.1,6.3-2.2-.9-.5-3.1-4-1.1-.2-2.5L.65,55.7Zm36.5,15.6,1.5-1.5,1.4,1.1.6,2.4-1.7.9Zm6.7-5.9,1.8,1.9s1.3.1,1.3-.2.2-2,.2-2l.9-.8-.8-1.8-2,.7Z"/></g></g></g></svg>