<svg xmlns="http://www.w3.org/2000/svg" viewBox="0 0 80.65 41.89"><defs><style>.cls-1{fill:#FCF6EC;stroke:#E6804;stroke-miterlimit:10;}</style></defs><title>MD</title><g id="Layer_2" data-name="Layer 2"><g id="Layer_1-2" data-name="Layer 1"><g id="outlines"><path id="MD" class="cls-1" d="M77.88,34.67l1.7-3.8.5-4.8-6.3,1.1-5.8.3-3.8-16.8-2.3-5.5L60.38.57l-22.2,4.3L.58,12.47l2,10.4L7.38,18l2.5-.7,1.4-1.5,1.8-2.7,1.6.7,2.6-.2,2.6-2.1,2-1.5,2.1-.6,1.5,1.1,2.7,1.4,1.9,1.8,1.3,1.4,4.8,1.6-.6,2.9,5.8,2.1,2.1-2.6,3.7,2.5-2.1,3.3-.7,3.3-1.8,2.6v2.1l.3.8,2,1.3,3.4,1.1,4.3-.1,3.1,1,2.1.3,1-2.1-1.5-2.1v-1.8l-2.4-2.1-2.1-5.5,1.3-5.3-.2-2.1L52.58,15s1.5-1.6,1.5-2.3a10.75,10.75,0,0,1,.5-2.1l1.9-1.3,1.9-1.6.5,1-1.5,1.6L56.08,14l.3,1.1,1.8.3.5,5.5-2.1,1,.3,3.6.5-.2,1.1-1.9,1.6,1.8-1.6,1.3-.3,3.4,2.6,3.4,3.9.5,1.6-.8,3.2,4.2,1,.4Zm-14.5.2,1.1,2.5.2,1.8,1.1,1.9s.9-.9.9-1.2-.7-3.1-.7-3.1l-.7-2.3Z"/></g></g></g></svg>