<svg xmlns="http://www.w3.org/2000/svg" viewBox="0 0 62.67 33.83"><defs><style>.cls-1{fill:#FCF6EC;stroke:#E6804;stroke-miterlimit:10;}</style></defs><title>MA</title><g id="Layer_2" data-name="Layer 2"><g id="Layer_1-2" data-name="Layer 1"><g id="outlines"><path id="MA" class="cls-1" d="M44.8,30.14l-.5-2.3.8-1.5,2.9-1.5.8,3.1-.5,1.8-2.4,1.5v1l1.9-1.5,3.9-4.5,3.9-1.9,4.2-1.5-.3-2.4-1-2.9-1.9-2.4-1.8-.8-2.1.2-.5.5,1,1.3,1.5-.8,2.1,1.6.8,2.7-1.8,1.8-2.3,1-3.6-.5-3.9-6-2.3-2.6H41.9l-1.1.8-1.9-2.6.3-1.5L41.6,5,38.7.64,35,2.44l-1.8,2.9L14.9,10,1.1,12.54.5,23.14,1.2,28l22-4.8,11.2-2.8,2,1.6,3.4,4.3L42.7,31Zm12.5,1.4,2.2-.7.5-1.7,1,.1,1,2.3-1.3.5-3.9.1Zm-9.4.8,2.3-2.6h1.6l1.8,1.5-2.4,1-2.2,1Z"/></g></g></g></svg>