<svg xmlns="http://www.w3.org/2000/svg" viewBox="0 0 132.02 138.46"><defs><style>.cls-1{fill:#FCF6EC;stroke:#E6804;stroke-miterlimit:10;}</style></defs><title>MI</title><g id="Layer_2" data-name="Layer 2"><g id="Layer_1-2" data-name="Layer 1"><g id="outlines"><path id="MI" class="cls-1" d="M77.7,136.86,96.8,135l.2,1.1,9.9-1.5,12-1.7.1-.6.2-1.5,2.1-3.7,2-1.7-.2-5.1,1.6-1.6,1.1-.3.2-3.6,1.5-3,1.1.6.2.6.8.2,1.9-1-.4-9.1-3.2-8.2-2.3-9.1-2.4-3.2-2.6-1.8-1.6,1.1-3.9,1.8-1.9,5-2.7,3.7-1.1.6-1.5-.6s-2.6-1.5-2.4-2.1.5-5,.5-5l3.4-1.3.8-3.4.6-2.6,2.4-1.6-.3-10-1.6-2.3-1.3-.8-.8-2.1.8-.8,1.6.3.2-1.6-2.6-2.2-1.3-2.6h-2.6l-4.5-1.5-5.5-3.4H92.6L92,50l-1-.5-3.1-2.3L85,49l-2.9,2.3.3,3.6,1,.3,2.1.5.5.8-2.6.8-2.6.3-1.5,1.8-.3,2.1.3,1.6.3,5.5L76,70.66l-.6-.2v-4.2l1.3-2.4.6-2.4-.8-.8-1.9.8-1,4.2-2.7,1.1-1.8,1.9-.2,1,.6.8-.6,2.6-2.3.5v1.1l.8,2.4-1.1,6.1-1.6,4,.6,4.7.5,1.1-.8,2.4-.3.8-.3,2.7,3.6,6,2.9,6.5,1.5,4.8-.8,4.7-1,6-2.4,5.2-.3,2.7-3.2,3.1ZM44.4,64.46l-1.3-1.1L41.3,53l-3.7-1.3-1.7-2.3-12.6-2.8-2.8-1.1-8.1-2.2-7.8-1L.7,37l.7-.5,2.7-.8,3.6-2.3v-1l.6-.6,6-1,2.4-1.9,4.4-2.1.2-1.3,1.9-2.9,1.8-.8L26.3,20l2.3-2.3,4.4-2.4,4.7-.5,1.1,1.1-.3,1-3.7,1L33.3,21l-2.3.8-.5,2.4-2.4,3.2L27.8,30l.8.5,1-1.1,3.6-2.9,1.3,1.3h2.3l3.2,1,1.5,1.1L43,33l2.7,2.7,3.9-.2,1.5-1,1.6,1.3,1.6.5,1.3-.8h1.1l1.6-1,4-3.6,3.4-1.1,6.6-.3,4.5-1.9,2.6-1.3,1.5.2v5.7l.5.3,2.9.8,1.9-.5,6.1-1.6,1.1-1.1,1.5.5v7l3.2,3.1,1.3.6,1.3,1-1.3.3-.8-.3-3.7-.5-2.1.6-2.3-.2-3.2,1.5H85.5l-5.8-1.3-5.2.2-1.9,2.6-7,.6-2.4.8-1.1,3.1-1.3,1.1-.5-.2L58.8,49l-4.5,2.4h-.6l-1.1-1.6-.8.2-1.9,4.4-1,4-3.2,6.9ZM14.8,8l1.8-2.1,2.2-.8,5.4-3.9,2.3-.6.5.5-5.1,5.1-3.3,1.9L16.5,9ZM101,40.06l.6,2.5,3.2.2,1.3-1.2s-.1-1.5-.4-1.6a20.23,20.23,0,0,1-1.6-1.9l-2.2.2-1.6.2-.3,1.1Z"/></g></g></g></svg>