<svg xmlns="http://www.w3.org/2000/svg" viewBox="0 0 115.85 128.72"><defs><style>.cls-1{fill:#FCF6EC;stroke:#E6804;stroke-miterlimit:10;}</style></defs><title>MN</title><g id="Layer_2" data-name="Layer 2"><g id="Layer_1-2" data-name="Layer 1"><g id="outlines"><path id="MN" class="cls-1" d="M2.49,14.41l-.6,3.91V28.59l1.6,5,1.9,3.32.5,9.93,1.8,13.45,1.8,7.3.4,6.4v5.3l-1.6,1.8-1.8,1.3v1.5l.9,1.7,4.1,3.5.7,3.2v35.9l60.3-.6,21.2-.7-.5-6-1.8-2.1-7.2-4.6-3.6-5.3-3.4-.9-2-2.8H72l-3.5-3.8-.5-7,.1-3.9,1.5-3-.7-2.7-2.8-3.1,2.2-6.1,5.4-4,1.2-1.4-.2-8,.2-3,2.6-3,3.8-2.9,1.3-.2,4.5-5,1.8-.8,2.3-3.9,2.4-3.6,3.1-2.6,4.8-2,9.2-4.1,3.9-1.8.6-2.3-4.4.4-.7,1.1h-.6l-1.8-3.1-8.9.3-1,.8h-1l-.5-1.3-.8-1.8-2.6.5-3.2,3.2-1.6.8H85l-2.6-1v-2.1l-1.3-.2-.5.5L78,23.82l-.5-2.9-1.5.5-.5,1-2.4-.5-5.3-2.4-3.9-2.6H61l-1.3-1-2.3.6-1.1,1.1-.3,1.3h-4.8v-2.1l-6.3-.3-.3-1.5h-4.8l-1.6-1.6-1.5-6.1-.8-5.5L34,1l-2.3-.5-.6.2-.3,8.2-30.1,0Z"/></g></g></g></svg>