<svg xmlns="http://www.w3.org/2000/svg" viewBox="0 0 116.37 102.04"><defs><style>.cls-1{fill:#FCF6EC;stroke:#E6804;stroke-miterlimit:10;}</style></defs><title>MO</title><g id="Layer_2" data-name="Layer 2"><g id="Layer_1-2" data-name="Layer 1"><g id="outlines"><path id="MO" class="cls-1" d="M108.5,95.13l.5-5.9,4.2-3.4,1.9-1v-2.9l.7-1.6-1.1-1.6-2.4.3-2.1-2.5L108.5,72l.9-2.6-2-3.2-1.8-4.6-4.6-.7-6.8-5.6L92,51.13l.8-3.3,2.2-6,.6-3-1.9-1-6.9-.6-1.1-1.9v-4.1l-5.3-3.5-7.2-7.8-2.3-7.3-.5-4.2L71.1,6l-2.6-3.1L67.3.53l-7.7.8-10,.6L.8,3.13l1.3,2.6L2,7.93l2.3,3.6,3,3.9,3.1,3,2.6.2,1.4,1.1v2.9l-1.8,1.6-.5,2.3,2.1,3.2,2.4,3,2.6,2.1,1.3,11.6-.8,40,.5,5.7,23.7-.2,23.3-.7,32.5-1.3,2.2,3.7-.8,3.1L98,99.23l-.5,1.8,5.2.5,4.1-1.1Z"/></g></g></g></svg>