<svg xmlns="http://www.w3.org/2000/svg" viewBox="0 0 62.42 109.84"><defs><style>.cls-1{fill:#FCF6EC;stroke:#E6804;stroke-miterlimit:10;}</style></defs><title>MS</title><g id="Layer_2" data-name="Layer 2"><g id="Layer_1-2" data-name="Layer 1"><g id="outlines"><path id="MS" class="cls-1" d="M41.51,108.23l2.6-4.2,1.8.8,6.8-1.9,2.1.3,1.5.8h5.2l.4-1.6-1.7-14.8-2.8-19,1-45.1-.2-16.7.2-6.3-4.8.3L34,2.43l-13,.4L20.81,6,18,7.33l-2.6,5.1.5,1.6.1,2.4-2.9,1.1-3.5,5.1.8,2.3-3,2.5-1,5.7L5.81,35l1.6,2.5-1.5,1.4,1.5,2.8.3,4.2-1.2,2.5-.2.9.4,5,2,4.5-.1,1.7,2.3,2-.7,3.1-.9.3.6,1.9-8.6,15L.51,91l.5,1.5,24.2-.7,8.2-.7,1.9-.3.6,1.4-1,7.1,3.3,3.3,2.2,6.4Z"/></g></g></g></svg>