<svg xmlns="http://www.w3.org/2000/svg" viewBox="0 0 178.15 113.84"><defs><style>.cls-1{fill:#FCF6EC;stroke:#E6804;stroke-miterlimit:10;}</style></defs><title>MT</title><g id="Layer_2" data-name="Layer 2"><g id="Layer_1-2" data-name="Layer 1"><g id="outlines"><path id="MT" class="cls-1" d="M176.72,41l-5.3,57.13-1.3,15.2-59.1-6.6-49-7.1-1.4,11.2-1.9-1.7-.4-2.5-1.3-1.9-3.3,1.5-.7,2.5-2.3.3-3.8-1.6-4.1.1-2.4.7-3.2-1.5-3,.2-2.1,1.9-.9-.6-.7-3.4.7-3.2-2.7-3.2-3.3-2.5-2.5-12.6-.1-5.3-1.6-.8-.6,1-4.5,3.2-1.2-.1-2.3-2.8-.2-2.8,7-17.15-.6-2.67-3.5-1.12-.4-.91L12,50.33,7.42,39.92l-3.2-1.58-1.8-4.26,1.3-4.63L.52,21.88,4.92.59l32.7,6.89L56,10.88l32.3,5.3,29.3,4,29.2,3.5,30.8,3.07Z"/></g></g></g></svg>