<svg xmlns="http://www.w3.org/2000/svg" viewBox="0 0 927.9 587.77"><defs><style>.cls-1,.cls-2{fill:#FCF6EC;stroke:#E6804;}.cls-1{stroke-miterlimit:10;}.cls-2{stroke-width:1.5px;}.cls-3{fill:none;stroke:#a9a9a9;stroke-width:2px;}</style></defs><title>Layer 1</title><g id="Layer_2" data-name="Layer 2"><g id="Layer_1-2" data-name="Layer 1"><g id="outlines"><path id="AK" class="cls-1" d="M161.1,447.85l-.3,85.4,1.6,1,3.1.2,1.5-1.1h2.6l.2,2.9,7,6.8.5,2.6,3.4-1.9.6-.2.3-3.1,1.5-1.6,1.1-.2,1.9-1.5,3.1,2.1.6,2.9,1.9,1.1,1.1,2.4,3.9,1.8,3.4,6,2.7,3.9,2.3,2.7,1.5,3.7,5,1.8,5.2,2.1,1,4.4.5,3.1-1,3.4-1.8,2.3-1.6-.8-1.5-3.1-2.7-1.5-1.8-1.1-.8.8,1.5,2.7.2,3.7-1.1.5-1.9-1.9-2.1-1.3.5,1.6,1.3,1.8-.8.8a3.14,3.14,0,0,1-1.3-1c-.5-.6-2.1-3.4-2.1-3.4l-1-2.3s-.3,1.3-1,1a4.89,4.89,0,0,1-1.3-1.5l1.8-1.9-1.5-1.5v-5h-.8l-.8,3.4-1.1.5-1-3.7L194,564l-.8-.5.3,5.7v1.1L192,569l-3.6-6-2.1-.5-.6-3.7-1.6-2.9-1.6-1.1v-2.3l2.1-1.3-.5-.3-2.6.6-3.4-2.4-2.6-2.9-4.8-2.6-4-2.6,1.3-3.2v-1.6l-1.8,1.6-2.9,1.1-3.7-1.1-5.7-2.4h-5.5l-.6.5-6.5-3.9-2.1-.3-2.7-5.8-3.6.3-3.6,1.5.5,4.5,1.1-2.9,1,.3-1.5,4.4,3.2-2.7.6,1.6-3.9,4.4L129,537l-.5-1.9-1.3-.8-1.3,1.1-2.7-1.8-3.1,2.1-1.8,2.1-3.4,2.1-4.7-.2-.5-2.1,3.7-.6v-1.3l-2.3-.6,1-2.4,2.3-3.9V527l.2-.8,4.4-2.3,1,1.3h2.7l-1.3-2.6-3.7-.3-5,2.7-2.4,3.4-1.8,2.6-1.1,2.3-4.2,1.5-3.1,2.6-.3,1.6,2.3,1,.8,2.1-2.7,3.2-6.5,4.2-7.8,4.2-2.1,1.1-5.3,1.1-5.3,2.3,1.8,1.3L73.5,561l-.5,1.1-2.7-1-3.2.2-.8,2.3h-1l.3-2.4-3.6,1.3-2.9,1-3.4-1.3-2.9,1.9H49.6l-2.1,1.3-1.6.8-2.1-.3-2.6-1.1-2.3.6-1,1-1.6-1.1v-1.9l3.1-1.3,6.3.6,4.4-1.6,2.1-2.1,2.9-.6,1.8-.8,2.7.2,1.6,1.3,1-.3,2.3-2.7,3.1-1,3.4-.6,1.3-.3.6.5h.8L75,551l4-1.5,1.9-3.7,2.3-4.5,1.6-1.5.3-2.6-1.6,1.3-3.4.6-.6-2.4-1.3-.3-1,1-.2,2.9-1.5-.2-1.5-5.8-1.3,1.3-1.1-.5-.3-1.9-4,.2-2.1,1.1-2.6-.3,1.5-1.5.5-2.6-.6-1.9,1.5-1,1.3-.2-.6-1.8v-4.4l-1-1-.8,1.5H58.3L56.8,520l-.6-3.9-2.1-3.6v-1l2.1-.8.2-2.1,1.1-1.1-.8-.5-1.3.5-1.1-2.7,1-5,4.5-3.2,2.6-1.6,1.9-3.7L67,490l2.6,1.1.3,2.4,2.4-.3,3.2-2.4,1.6.6,1,.6h1.6l2.3-1.3.8-4.4s.3-2.9,1-3.4a7.84,7.84,0,0,0,1-1L83.7,480l-2.6.8-3.2.8-1.9-.5-3.6-1.8-5-.2-3.6-3.7.5-3.9.6-2.4-2.1-1.8-1.9-3.7.5-.8,6.8-.5h2.1l1,1h.6l-.2-1.6,3.9-.6,2.6.3,1.5,1.1-1.5,2.1-.5,1.5,2.7,1.6,5,1.8,1.8-1-2.3-4.4-1-3.2,1-.8-3.4-1.9-.5-1.1.5-1.6-.8-3.9-2.9-4.7-2.4-4.2,2.9-1.9h3.2l1.8.6,4.2-.2,3.7-3.6,1.1-3.1,3.7-2.4,1.6,1,2.7-.6,3.7-2.1,1.1-.2,1,.8,4.5-.2,2.7-3.1h1.1l3.6,2.4,1.9,2.1-.5,1.1.6,1.1,1.6-1.6,3.9.3.3,3.7,1.9,1.5,7.1.6,6.3,4.2,1.5-1,5.2,2.6,2.1-.6,1.9-.8,4.8,1.9ZM46,476.75l2.1,5.3-.2,1-2.9-.3-1.8-4-1.8-1.5H39l-.2-2.6,1.8-2.4,1.1,2.4,1.5,1.5Zm-2.6,33.5,3.7.8,3.7,1,.8,1-1.6,3.7-3.1-.2L43.5,513Zm-20.7-14.1,1.1,2.6,1.1,1.6-1.1.8-2.1-3.1v-1.9ZM9,569.25l3.4-2.3,3.4-1,2.6.3.5,1.6,1.9.5,1.9-1.9-.3-1.6,2.7-.6,2.9,2.6-1.1,1.8-4.4,1.1-2.7-.5-3.7-1.1-4.4,1.5-1.6.3Zm48.9-4.5,1.6,1.9,2.1-1.6-1.5-1.3Zm2.9,3,1.1-2.3,2.1.3-.8,1.9H60.8Zm23.6-1.9,1.5,1.8,1-1.1-.8-1.9Zm8.8-12.5,1.1,5.8,2.9.8,5-2.9,4.4-2.6-1.6-2.4.5-2.4-2.1,1.3-2.9-.8,1.6-1.1,1.9.8,3.9-1.8.5-1.5-2.4-.8.8-1.9-2.7,1.9-4.7,3.6-4.8,2.9Zm42.3-19.8,2.4-1.5-1-1.8-1.8,1Z"/><path id="HI" class="cls-1" d="M233.1,513.45l1.9-3.6,2.3-.3.3.8-2.1,3.1Zm10.2-3.7,6.1,2.6,2.1-.3,1.6-3.9-.6-3.4-4.2-.5-4,1.8Zm30.7,10,3.7,5.5,2.4-.3,1.1-.5,1.5,1.3,3.7-.2,1-1.5-2.9-1.8-1.9-3.7-2.1-3.6-5.8,2.9Zm20.2,8.9,1.3-1.9,4.7,1,.6-.5,6.1.6-.3,1.3-2.6,1.5-4.4-.3Zm5.3,5.2,1.9,3.9,3.1-1.1.3-1.6-1.6-2.1-3.7-.3Zm7-1.2,2.3-2.9,4.7,2.4,4.4,1.1,4.4,2.7v1.9l-3.6,1.8-4.8,1-2.4-1.5Zm16.6,15.6,1.6-1.3,3.4,1.6,7.6,3.6,3.4,2.1,1.6,2.4,1.9,4.4,4,2.6-.3,1.3-3.9,3.2-4.2,1.5-1.5-.6-3.1,1.8-2.4,3.2-2.3,2.9-1.8-.2-3.6-2.6-.3-4.5.6-2.4-1.6-5.7-2.1-1.8-.2-2.6,2.3-1,2.1-3.1.5-1-1.6-1.8Z"/><path id="AL" class="cls-1" d="M628.5,460.55l.6.2,1.3-2.7,1.5-4.4,2.3.6,3.1,6v1l-2.7,1.9,2.7.3,5.2-2.5-.3-7.6-2.5-1.8-2-2,.4-4,10.5-1.5,25.7-2.9,6.7-.6,5.6.1-.5-2.2-1.5-.8-.9-1.1,1-2.6-.4-5.2-1.6-4.5.8-5.1,1.7-4.8-.2-1.7-1.8-.7-.5-3.6L680,405l-2-6.5-1.4-6.7-1.8-5-3.8-16-3.5-7.9-.8-5.6.1-2.2-9,.8-23.4,2.2-12.2.8-.2,6.4.2,16.7-.7,31-.3,14.1,2.8,18.8,1.6,14.7Z"/><path id="AR" class="cls-1" d="M587.3,340.25l-6.4-.7.9-3.1,3.1-2.6.6-2.3-1.8-2.9-31.9,1.2-23.3.7-23.6.3,1.5,6.9.1,8.5,1.4,10.9.3,38.2,2.1,1.6,3-1.2,2.9,1.2.4,10.1,25.2-.2,26.8-.8.9-1.9-.3-3.8-1.7-3.1,1.5-1.4-1.4-2.2.7-2.4,1.1-5.9,2.7-2.3-.8-2.2,4-5.6,2.5-1.1-.1-1.7-.5-1.7,2.9-5.8,2.5-1.1.2-3.3,2.1-1.4.9-4.1-1.4-4,4.2-2.4.3-2.1,1.2-4.2.9-3.1Z"/><path id="AZ" class="cls-1" d="M135.1,383.85l-.3,1.5.5,1,18.9,10.7,12.1,7.6,14.7,8.6,16.8,10,12.3,2.4,25.4,2.7,6-39.6,7-53.1,4.4-31-24.6-3.6-60.7-11-.2,1.1-2.6,16.5-2.1,3.8-2.8-.2-1.2-2.6-2.6-.4-1.2-1.1-1.1.1-2.1,1.7-.3,6.8-.3,1.5-.5,12.5-1.5,2.4-.4,3.3,2.8,5,1.1,5.5.7,1.1,1.1.9-.4,2.4-1.7,1.2-3.4,1.6-1.6,1.8-1.6,3.6-.5,4.9-3,2.9-1.9.9-.1,5.8-.6,1.6.5.8,3.9.4-.9,3-1.7,2.4-3.7.4Z"/><path id="CA" class="cls-1" d="M122.7,380.05l-19.7-2.7-10-1.5-.5-1.8v-9.4l-.3-3.2-2.6-4.2-.8-2.3-3.9-4.2-2.9-4.7-2.7-.2-3.2-.8-.3-1,1.5-.6-.6-3.2-1.5-2.1-4.8-.8-3.9-2.1L65.4,333l-2.6-4.8-2.9-3.1H57L53.1,323l-4.5-1.8-4.2-.5L42,318l.5-1.9,1.8-7.1.8-1.9v-2.4l-1.6-1-.5-2.9-1.5-2.6-3.4-5.8-1.3-3.1-1.5-4.7-1.6-5.3-3.2-4.4L30,272l.8-3.9h1.1l2.1-1.6,1.1-3.6-1-2.7-2.7-.5-1.9-2.6-2.1-3.7-.2-8.2.6-1.9.6-2.3.5-2.4-5.7-6.3v-2.1l.3-.5.3-3.2-1.3-4-2.3-4.8-2.7-4.5-1.8-3.9,1-3.7.6-5.8,1.8-3.1.3-6.5-1.1-3.6-1.6-4.2-2.7-4.2.8-3.2,1.5-4.2,1.8-.8.3-1.1,3.1-2.6,5.2-11.8.2-7.4,1.69-4.9L67.28,154l25.6,6.6-8,31.3L76.21,225l12.63,19.2L131,306.45l17.1,26.1-.4,3.1,2.8,5.2,1.1,5.4,1,1.5.7.6-.2,1.4-1.4,1-3.4,1.6-1.9,2.1-1.7,3.9-.5,4.7-2.6,2.5-2.3,1.1-.1,6.2-.6,1.9,1,1.7,3,.3-.4,1.6-1.4,2-3.9.6Zm-73.9-48.9,1.3,1.5-.2,1.3-3.2-.1-.6-1.2-.6-1.5Zm1.9,0,1.2-.6,3.6,2.1,3.1,1.2-.9.6-4.5-.2-1.6-1.6ZM71.4,351l1.8,2.3.8,1,1.5.6.6-1.5-1-1.8-2.7-2-1.1.2V351Zm-1.4,8.7,1.8,3.2,1.2,1.9-1.5.2-1.3-1.2a9.72,9.72,0,0,1-.7-1.9v-2.2Z"/><path id="CO" class="cls-1" d="M380.2,229.65l-36-3.5-79.1-8.6-2.2,22.1-7,50.4-1.9,13.7,34,3.9,37.5,4.4,34.7,3,14.3.6Z"/><path id="CT" class="cls-1" d="M852,185.05l3.6-3.2,1.9-2.1.8.6,2.7-1.5,5.2-1.1,7-3.5-.6-4.2-.8-4.4-1.6-6-4.3,1.1-21.8,4.7.6,3.1,1.5,7.3v8.3l-.9,2.1,1.7,2.2Z"/><path id="DE" class="cls-1" d="M834.4,241.35l-1,.5-3.6-2.4-1.8-4.7-1.9-3.6-2.3-1-2.1-3.6.5-2,.5-2.3.1-1.1-.6.1-1.7,1-2,1.7-.2.3,1.4,4.1L822,234l3.7,16.1,5-.3,6-1.1Z"/><path id="FL" class="cls-1" d="M750.2,439.35l-5.2-.7-.7.8,1.5,4.4-.4,5.2-4.1-1-.2-2.8H737l-5.3.7-32.4,1.9-8.2-.3-1.7-1.7-2.5-4.2H681l-6.6.5-35.4,4.2-.3,2.8,1.6,1.6,2.9,2,.3,8.4,3.3-.6,6-2.1,6-.5,4.4-.6,7.6,1.8,8.1,3.9,1.6,1.5,2.9,1.1,1.6,1.9.3,2.7,3.2-1.3h3.9l3.6-1.9,3.7-3.6,3.1.2.5-1.1-.8-1,.2-1.9,4-.8h2.6l2.9,1.5,4.2,1.5,2.4,3.7,2.7,1,1.1,3.4,3.4,1.6,1.6,2.6,1.9.6,5.2,1.3,1.3,3.1,3,3.7v9.5l-1.5,4.7.3,2.7,1.3,4.8,1.8,4,.8-.5,1.5-4.5-2.6-1-.3-.6,1.6-.6,4.5,1,.2,1.6-3.2,5.5-2.1,2.4,3.6,3.7,2.6,3.1,2.9,5.3,2.9,3.9,2.1,5,1.8.3,1.6-2.1,1.8,1.1,2.6,4,.6,3.6,3.1,4.4.8-1.3,3.9.3,3.6,2.3,3.4,5.2.8,3.4.3,2.9,1.1,1,1.3.5,2.4-1,1.5-1.6,3.9-.2,3.1-1.5,2.7-3.2-.5-1.9-.3-2.4.6-1.9-.3-1.9,2.4-1.3.3-3.4-.6-1.8-.5-12-1.3-7.6-4.5-8.2-3.6-5.8-2.6-5.3-2.9-2.9-2.9-7.4.7-1.4,1.1-1.3-1.6-2.9-4-3.7-4.8-5.5-3.7-6.3-5.3-9.4-3.7-9.7-2.3-7.3Zm17.7,132.7,2.4-.6,1.3-.2,1.5-2.3,2.3-1.6,1.3.5,1.7.3.4,1.1-3.5,1.2-4.2,1.5-2.3,1.2Zm13.5-5,1.2,1.1,2.7-2.1,5.3-4.2,3.7-3.9,2.5-6.6,1-1.7.2-3.4-.7.5-1,2.8-1.5,4.6-3.2,5.3-4.4,4.2-3.4,1.9Z"/><path id="GA" class="cls-1" d="M750.2,438.35l-5.6-.7-1.4,1.6,1.6,4.7-.3,3.9-2.2-.6-.2-3h-5.2l-5.3.7-32.3,1.9-7.7-.3-1.4-1.2-2.5-4.3-.8-3.3-1.6-.9-.5-.5.9-2.2-.4-5.5-1.6-4.5.8-4.9,1.7-4.8L686,412l-1.9-.7-.4-3.2-2.8-3.5-1.9-6.2-1.5-7-1.7-4.8-3.8-16-3.5-8-.8-5.3.1-2.3,3.3-.3,13.6-1.6,18.6-2,6.3-1.1.5,1.4-2.2.9-.9,2.2.4,2,1.4,1.6,4.3,2.7,3.2-.1,3.2,4.7.6,1.6,2.3,2.8.5,1.7,4.7,1.8,3,2.2,2.3,3,2.3,1.3,2,1.8,1.4,2.7,2.1,1.9,4.1,1.8,2.7,6,1.7,5.1,2.8.7,2.1,1.9,2,5.7L759,409l1.7-.8.4,1.2-3.3,6.2.5,2.6-1.5,4.2-2.3,10,.8,6.3Z"/><path id="IA" class="cls-1" d="M556.8,177.75l2.1,2.1.3.7-2,3,.3,4,2.6,4.1,3.1,1.6,2.4.3.9,1.8.2,2.4,2.5,1,.9,1.1.5,1.6,3.8,3.3.6,1.9-.7,3-1.7,3.7-.6,2.4-2.1,1.6-1.6.5-5.7,1.5-1.6,4.8.8,1.8,1.7,1.5-.2,3.5-1.9,1.4-.7,1.8v2.4l-1.4.4-1.7,1.4-.5,1.7.4,1.7-1.3,1-2.3-2.7-1.4-2.8-8.3.8-10,.6-49.2,1.2-1.6-4.3-.4-6.7-1.4-4.2-.7-5.2-2.2-3.7-1-4.6-2.7-7.8-1.1-5.6-1.4-1.9-1.3-2.9,1.7-3.8,1.2-6.1-2.7-2.2-.3-2.4.7-2.4,1.8-.3,61.1-.6,21.2-.7Z"/><path id="ID" class="cls-1" d="M175.3,21.78l-4.8,17.41L166,60.05l-3.4,16.22-.4,9.67,1.2,4.44L166.9,93,166.7,97l-3.9,4.4-4.5,6.6-.9,2.9-1.2,1.1-1.8.8-4.3,5.3-.4,3.1-.4,1.1.6,1,2.6-.1,1.1,2.3-2.4,5.8-1.2,4.2-8.8,35.3,20.7,4.5,39.5,7.9,34.8,6.1,4.9-29.2,3.8-24.1-2.7-2.4-.4-2.6-.8-1.1-2.1,1-.7,2.6-3.2.5-3.9-1.6-3.8.1-2.5.7-3.4-1.5-2.4.2-2.4,2-2-1.1-.7-4,.7-2.9-2.5-2.9-3.3-2.6-2.7-13.1-.1-4.7-.3-.1-.2.4-5.1,3.5-1.7-.2-2.9-3.4-.2-3.1,7-17.13-.4-1.94-3.4-1.15-.6-1.18-2.6-3.46L191,64.56,187.8,63l-2-5,1.3-4.63-3.2-7.58,4.4-21.52Z"/><path id="IL" class="cls-1" d="M618.7,208.45l-.8-2.6-1.3-3.7-1.6-1.8-1.5-2.6-.4-5.5-15.9,1.8-17.4,1H567.5l.2,2.1,2.2.9,1.1,1.4.4,1.4,3.9,3.4.7,2.4-.7,3.3-1.7,3.7-.8,2.7-2.4,1.9-1.9.6-5.2,1.3-1.3,4.1.6,1.1,1.9,1.8-.2,4.3-2.1,1.6-.5,1.3v2.8l-1.8.6-1.4,1.2-.4,1.2.4,2-1.6,1.3-.9,2.8.3,3.9,2.3,7,7,7.6,5.7,3.7v4.4l.7,1.2,6.6.6,2.7,1.4-.7,3.5-2.2,6.2-.8,3,2,3.7,6.4,5.3,4.8.8,2.2,5.1,2,3.4-.9,2.8,1.5,3.8,1.7,2.1,1.6-.3,1-2.2,2.4-1.7,2.8-1,6.1,2.5.5-.2v-1.1l-1.2-2.7.4-2.8,2.4-1.6,3.4-1.2-.5-1.3-.8-2,1.2-1.3,1-2.7v-4l.4-4.9,2.5-3,1.8-3.8,2.5-4-.5-5.3-1.8-3.2-.3-3.3.8-5.3-.7-7.2-1.1-15.8-1.4-15.3-.9-11.7Z"/><path id="IN" class="cls-1" d="M622.9,210.25l1.5,1,1.1-.3,2.1-1.9,2.5-1.8,14.3-1.1,18.4-1.8,1.6,15.5,4.9,42.6-.6,2.9L670,267l.2,1.3-2.3,1.6-3.6,1.7-3.2.4-.5,4.8-4.7,3.6-2.9,4,.2,2.4-.5,1.4h-3.5l-1.4-1.7-5.2,3,.2,3.1-.9.2-.5-.9-2.4-1.7-3.6,1.5-1.4,2.9-1.2-.6-1.6-1.8-4.4.5-5.7,1-2.5,1.3v-2.6l.4-4.7,2.3-2.9,1.8-3.9,2.7-4.2-.5-5.8-1.8-3.1-.3-3.2.8-5.3-.7-7.1-.9-12.6-2.5-30.1Z"/><path id="KS" class="cls-1" d="M485.9,253.65l-43.8-.6-40.6-1.2-21.7-.9-4.3,64.8,24.3,1,44.7,2.1,46.3.6,12.6-.3.7-35-1.2-11.1-2.5-2-2.4-3-2.3-3.6.6-3,1.7-1.4V258l-.8-.7-2.6-.2-3.5-3.4Z"/><path id="KY" class="cls-1" d="M607.2,326l12.6-.7.1-4.1h4.3l30.4-3.2,45.1-4.3,5.6-3.6,3.9-2.1.1-1.9,6-7.8,4.1-3.6,2.1-2.4-3.3-2-2.5-2.7-3-3.8-.5-2.2-2.6-1.4-.9-1.9-.2-6.1-2.6-2-1.9-1.1-.5-2.3-1.3.2-2,1.2-2.5,2.7-1.9-1.7-2.5-.5-2.4,1.4h-2.3l-1.8-2-5.6-.1-1.8-4.5-2.9-1.5-2.1.8-4.2.2-.5,2.1,1.2,1.5.3,2.1-2.8,2-3.8,1.8-2.6.4-.5,4.5-4.9,3.6-2.6,3.7.2,2.2-.9,2.3-4.5-.1-1.3-1.3-3.9,2.2.2,3.3-2.4.6-.8-1.4-1.7-1.2-2.7,1.1-1.8,3.5-2.2-1-1.4-1.6-3.7.4-5.6,1-2.8,1.3-1.2,3.4-1,1,1.5,3.7-4.2,1.4-1.9,1.4-.4,2.2,1.2,2.4v2.2l-1.6.4-6.1-2.5-2.3.9-2,1.4-.8,1.8,1.7,2.4-.9,1.8-.1,3.3-2.4,1.3-2.1,1.7Z"/><path id="LA" class="cls-1" d="M526.9,480.05l8.1-.3,10.3,3.6,6.5,1.1,3.7-1.5,3.2,1.1,3.2,1,.8-2.1-3.2-1.1-2.6.5-2.7-1.6.8-1.5,3.1-1,1.8,1.5,1.8-1,3.2.6,1.5,2.4.3,2.3,4.5.3,1.8,1.8-.8,1.6-1.3.8,1.6,1.6,8.4,3.6,3.6-1.3,1-2.4,2.6-.6,1.8-1.5,1.3,1,.8,2.9-2.3.8.6.6,3.4-1.3,2.3-3.4.8-.5-2.1-.3.8-1.6-.2-1.5,2.1-.5,1.1-1.3.6.8.6,3.1,4.2.6,4,1.9,1,1.5h2.9l1.1,1,2.3-3.1v-1.5h-1.3l-3.4-2.7-5.8-.8-3.2-2.3,1.1-2.7,2.3.3.2-.6-1.8-1v-.5h3.2l1.8-3.1-1.3-1.9-.3-2.7-1.5.2-1.9,2.1-.6,2.6-3.1-.6-1-1.8,1.8-1.9,1.9-1.7-2.2-6.5-3.4-3.4,1-7.3-.2-.5-1.3.2L563.1,452l-.8-2.4.8-8.5,8.6-14.8-.9-2.6,1.4-.4.4-2-2.2-2,.1-1.9-2-4.5-.4-5.1.1-.7-26.4.8-25.2.1.4,9.7.7,9.5.5,3.7,2.6,4.5.9,4.4,4.3,6,.3,3.1.6.8-.7,8.3-2.8,4.6,1.2,2.4-.5,2.6-.8,7.3-1.3,3,.2,3.7Z"/><path id="MA" class="cls-1" d="M887.5,166.65l-.5-2.3.8-1.5,2.9-1.5.8,3.1-.5,1.8-2.4,1.5v1l1.9-1.5,3.9-4.5,3.9-1.9,4.2-1.5-.3-2.4-1-2.9-1.9-2.4-1.8-.8-2.1.2-.5.5,1,1.3,1.5-.8,2.1,1.6.8,2.7-1.8,1.8-2.3,1-3.6-.5-3.9-6-2.3-2.6h-1.8l-1.1.8-1.9-2.6.3-1.5,2.4-5.2-2.9-4.4-3.7,1.8-1.8,2.9-18.3,4.7-13.8,2.5-.6,10.6.7,4.9,22-4.8,11.2-2.8,2,1.6,3.4,4.3,2.9,4.7Zm12.5,1.4,2.2-.7.5-1.7,1,.1,1,2.3-1.3.5-3.9.1Zm-9.4.8,2.3-2.6h1.6l1.8,1.5-2.4,1-2.2,1Z"/><path id="MD" class="cls-1" d="M834.8,258.25l1.7-3.8.5-4.8-6.3,1.1-5.8.3-3.8-16.8-2.3-5.5-1.5-4.6-22.2,4.3-37.6,7.6,2,10.4,4.8-4.9,2.5-.7,1.4-1.5,1.8-2.7,1.6.7,2.6-.2,2.6-2.1,2-1.5,2.1-.6,1.5,1.1,2.7,1.4,1.9,1.8,1.3,1.4,4.8,1.6-.6,2.9,5.8,2.1,2.1-2.6,3.7,2.5-2.1,3.3-.7,3.3-1.8,2.6v2.1l.3.8,2,1.3,3.4,1.1,4.3-.1,3.1,1,2.1.3,1-2.1-1.5-2.1v-1.8l-2.4-2.1-2.1-5.5L811,242l-.2-2.1-1.3-1.3s1.5-1.6,1.5-2.3a10.75,10.75,0,0,1,.5-2.1l1.9-1.3,1.9-1.6.5,1-1.5,1.6-1.3,3.7.3,1.1,1.8.3.5,5.5-2.1,1,.3,3.6.5-.2,1.1-1.9,1.6,1.8-1.6,1.3-.3,3.4,2.6,3.4,3.9.5,1.6-.8,3.2,4.2,1,.4Zm-14.5.2,1.1,2.5.2,1.8,1.1,1.9s.9-.9.9-1.2-.7-3.1-.7-3.1l-.7-2.3Z"/><path id="ME" class="cls-1" d="M865.8,86.05l1.5.4v-2.6l.8-5.5,2.6-4.7,1.5-4-1.9-2.4v-6l.8-1,.8-2.7-.2-1.5-.2-4.8,1.8-4.8,2.9-8.9,2.1-4.2h1.3l1.3.2v1.1l1.3,2.3,2.7.6.8-.8v-1l4-2.9,1.8-1.8,1.5.2,6,2.4,1.9,1,9.1,29.9h6l.8,1.9.2,4.8,2.9,2.3h.8l.2-.5-.5-1.1,2.8-.5,1.9,2.1,2.3,3.7v1.9l-2.1,4.7-1.9.6-3.4,3.1-4.8,5.5h-1.3c-.6,0-1-2.1-1-2.1l-1.8.2-1,1.5-2.4,1.5-1,1.5,1.6,1.5-.5.6-.5,2.7-1.9-.2v-1.6l-.3-1.3-1.5.3-1.8-3.2-2.1,1.3,1.3,1.5.3,1.1-.8,1.3.3,3.1.2,1.6-1.6,2.6-2.9.5-.3,2.9-5.3,3.1-1.3.5-1.6-1.5-3.1,3.6,1,3.2-1.5,1.3-.2,4.4-1.1,6.3-2.2-.9-.5-3.1-4-1.1-.2-2.5L864.5,86.22Zm36.5,15.6,1.5-1.5,1.4,1.1.6,2.4-1.7.9Zm6.7-5.9,1.8,1.9s1.3.1,1.3-.2.2-2,.2-2l.9-.8-.8-1.8-2,.7Z"/><path id="MI" class="cls-1" d="M644.5,205.15l19.1-1.9.2,1.1,9.9-1.5,12-1.7.1-.6.2-1.5,2.1-3.7,2-1.7-.2-5.1,1.6-1.6,1.1-.3.2-3.6,1.5-3,1.1.6.2.6.8.2,1.9-1-.4-9.1-3.2-8.2-2.3-9.1-2.4-3.2-2.6-1.8-1.6,1.1-3.9,1.8-1.9,5-2.7,3.7-1.1.6-1.5-.6s-2.6-1.5-2.4-2.1.5-5,.5-5l3.4-1.3.8-3.4.6-2.6,2.4-1.6-.3-10-1.6-2.3-1.3-.8-.8-2.1.8-.8,1.6.3.2-1.6-2.6-2.2-1.3-2.6h-2.6l-4.5-1.5-5.5-3.4h-2.7l-.6.6-1-.5-3.1-2.3-2.9,1.8-2.9,2.3.3,3.6,1,.3,2.1.5.5.8-2.6.8-2.6.3-1.5,1.8-.3,2.1.3,1.6.3,5.5-3.6,2.1-.6-.2v-4.2l1.3-2.4.6-2.4-.8-.8-1.9.8-1,4.2-2.7,1.1-1.8,1.9-.2,1,.6.8-.6,2.6-2.3.5V143l.8,2.4-1.1,6.1-1.6,4,.6,4.7.5,1.1-.8,2.4-.3.8-.3,2.7,3.6,6,2.9,6.5,1.5,4.8-.8,4.7-1,6-2.4,5.2-.3,2.7-3.2,3.1Zm-33.3-72.4-1.3-1.1-1.8-10.4-3.7-1.3-1.7-2.3-12.6-2.8-2.8-1.1-8.1-2.2-7.8-1-3.9-5.3.7-.5,2.7-.8,3.6-2.3v-1l.6-.6,6-1,2.4-1.9,4.4-2.1.2-1.3,1.9-2.9,1.8-.8,1.3-1.8,2.3-2.3,4.4-2.4,4.7-.5,1.1,1.1-.3,1-3.7,1-1.5,3.1-2.3.8-.5,2.4-2.4,3.2-.3,2.6.8.5,1-1.1,3.6-2.9,1.3,1.3h2.3l3.2,1,1.5,1.1,1.5,3.1,2.7,2.7,3.9-.2,1.5-1,1.6,1.3,1.6.5,1.3-.8h1.1l1.6-1,4-3.6,3.4-1.1,6.6-.3,4.5-1.9,2.6-1.3,1.5.2v5.7l.5.3,2.9.8,1.9-.5,6.1-1.6,1.1-1.1,1.5.5v7l3.2,3.1,1.3.6,1.3,1-1.3.3-.8-.3-3.7-.5-2.1.6-2.3-.2-3.2,1.5h-1.8l-5.8-1.3-5.2.2-1.9,2.6-7,.6-2.4.8-1.1,3.1-1.3,1.1-.5-.2-1.5-1.6-4.5,2.4h-.6l-1.1-1.6-.8.2-1.9,4.4-1,4-3.2,6.9Zm-29.6-56.5,1.8-2.1,2.2-.8,5.4-3.9,2.3-.6.5.5-5.1,5.1-3.3,1.9-2.1.9Zm86.2,32.1.6,2.5,3.2.2,1.3-1.2s-.1-1.5-.4-1.6a20.23,20.23,0,0,1-1.6-1.9l-2.2.2-1.6.2-.3,1.1Z"/><path id="MN" class="cls-1" d="M464.6,60.94l-.6,3.91V75.12l1.6,5,1.9,3.32.5,9.93,1.8,13.45,1.8,7.3.4,6.4v5.3l-1.6,1.8-1.8,1.3v1.5l.9,1.7,4.1,3.5.7,3.2v35.9l60.3-.6,21.2-.7-.5-6-1.8-2.1-7.2-4.6-3.6-5.3-3.4-.9-2-2.8h-3.2l-3.5-3.8-.5-7,.1-3.9,1.5-3-.7-2.7-2.8-3.1,2.2-6.1,5.4-4,1.2-1.4-.2-8,.2-3,2.6-3,3.8-2.9,1.3-.2,4.5-5,1.8-.8,2.3-3.9,2.4-3.6,3.1-2.6,4.8-2,9.2-4.1,3.9-1.8.6-2.3-4.4.4-.7,1.1h-.6L569.8,72l-8.9.3-1,.8h-1l-.5-1.3-.8-1.8-2.6.5-3.2,3.2-1.6.8h-3.1l-2.6-1v-2.1l-1.3-.2-.5.5-2.6-1.3-.5-2.9-1.5.5-.5,1-2.4-.5-5.3-2.4-3.9-2.6h-2.9l-1.3-1-2.3.6-1.1,1.1-.3,1.3h-4.8v-2.1l-6.3-.3-.3-1.5h-4.8L500.3,60l-1.5-6.1-.8-5.5-1.9-.8-2.3-.5-.6.2-.3,8.2-30.1,0Z"/><path id="MO" class="cls-1" d="M593.1,332.85l.5-5.9,4.2-3.4,1.9-1v-2.9l.7-1.6-1.1-1.6-2.4.3-2.1-2.5-1.7-4.5.9-2.6-2-3.2-1.8-4.6-4.6-.7-6.8-5.6-2.2-4.2.8-3.3,2.2-6,.6-3-1.9-1-6.9-.6-1.1-1.9V269l-5.3-3.5-7.2-7.8-2.3-7.3-.5-4.2.7-2.4-2.6-3.1-1.2-2.4-7.7.8-10,.6-48.8,1.2,1.3,2.6-.1,2.2,2.3,3.6,3,3.9,3.1,3,2.6.2,1.4,1.1v2.9l-1.8,1.6-.5,2.3,2.1,3.2,2.4,3,2.6,2.1,1.3,11.6-.8,40,.5,5.7,23.7-.2,23.3-.7,32.5-1.3,2.2,3.7-.8,3.1-3.1,2.5-.5,1.8,5.2.5,4.1-1.1Z"/><path id="MS" class="cls-1" d="M604.3,466.65l2.6-4.2,1.8.8,6.8-1.9,2.1.3,1.5.8h5.2l.4-1.6-1.7-14.8-2.8-19,1-45.1-.2-16.7.2-6.3-4.8.3-19.6,1.6-13,.4-.2,3.2-2.8,1.3-2.6,5.1.5,1.6.1,2.4-2.9,1.1-3.5,5.1.8,2.3-3,2.5-1,5.7-.6,1.9,1.6,2.5-1.5,1.4,1.5,2.8.3,4.2-1.2,2.5-.2.9.4,5,2,4.5-.1,1.7,2.3,2-.7,3.1-.9.3.6,1.9-8.6,15-.8,8.2.5,1.5,24.2-.7,8.2-.7,1.9-.3.6,1.4-1,7.1,3.3,3.3,2.2,6.4Z"/><path id="MT" class="cls-1" d="M361.1,64.92l-5.3,57.13-1.3,15.2-59.1-6.6-49-7.1-1.4,11.2-1.9-1.7-.4-2.5-1.3-1.9-3.3,1.5-.7,2.5-2.3.3-3.8-1.6-4.1.1-2.4.7-3.2-1.5-3,.2-2.1,1.9-.9-.6-.7-3.4.7-3.2-2.7-3.2-3.3-2.5-2.5-12.6L207,102l-1.6-.8-.6,1-4.5,3.2-1.2-.1-2.3-2.8-.2-2.8,7-17.15-.6-2.67-3.5-1.12-.4-.91-2.7-3.5-4.6-10.41-3.2-1.58-1.8-4.26,1.3-4.63-3.2-7.57,4.4-21.29L222,31.45l18.4,3.4,32.3,5.3,29.3,4,29.2,3.5L362,50.72Z"/><path id="NC" class="cls-1" d="M786.7,351.85l-12.7-7.7-3.1-.8-16.6,2.1-1.6-3-2.8-2.2-16.7.5-7.4.9-9.2,4.5-6.8,2.7-6.5,1.2-13.4,1.4.1-4.1,1.7-1.3,2.7-.7.7-3.8,3.9-2.5,3.9-1.5,4.5-3.7,4.4-2.3.7-3.2,4.1-3.8.7,1,2.5.2,2.4-3.6,1.7-.4,2.6.3,1.8-4,2.5-2.4.5-1.8.1-3.5,4.4.1,38.5-5.6,57.5-12.3,2,4.8,3.6,6.5,2.4,2.4.6,2.3-2.4.2.8.6-.3,4.2-2.6,1.3-.6,2.1-1.3,2.9-3.7,1.6-2.4-.3-1.5-.2-1.6-1.3.3,1.3v1H827l.8,1.3-1.9,6.3h4.2l.6,1.6,2.3-2.3,1.3-.5-1.9,3.6-3.1,4.8H828l-1.1-.5-2.7.6-5.2,2.4-6.5,5.3-3.4,4.7-1.9,6.5-.5,2.4-4.7.5-5.1,1.5Zm49.3-26.2,2.6-2.5,3.2-2.6,1.5-.6.2-2-.6-6.1-1.5-2.3-.6-1.9.7-.2,2.7,5.5.4,4.4-.2,3.4-3.4,1.5-2.8,2.4-1.1,1.2Z"/><path id="ND" class="cls-1" d="M471,120.55l-.4-6.2-1.8-7.3L467,93.44l-.5-9.7-1.9-3.18L463,75.24V64.83l.6-3.85-1.8-5.54-28.6-.59-18.6-.6L388.1,53l-25.2-2.16L362,65.21l-4.7,50.94,56.8,3.9,56.9,1.7Z"/><path id="NE" class="cls-1" d="M470.3,198.45l-1-2.3-.5-1.6-2.9-1.6-4.8-1.5-2.2-1.2-2.6.1-3.7.4-4.2,1.2-6-4.1-2.2-2-10.7.6-41.5-2.4-35.6-2.2-4.3,43.7,33.1,3.3L379.8,250l21.7,1,40.6,1.2,43.8.6h4.5l-2.2-3-2.6-3.9.1-2.3-1.4-2.7-1.9-5.2L482,229l-1.4-4.1-.5-5-2.3-3.7-1-4.7-2.8-7.9-1-5.3Z"/><path id="NH" class="cls-1" d="M881.7,135.45l1.1-3.2-2.7-1.2-.5-3.1-4.1-1.1-.3-3L863.5,86.37l-.7.08-.6,1.6-.6-.5-1-1-1.5,1.9-.2,2.29.5,8.41,1.9,2.8v4.3l-3.9,4.8-2.4.9v.7l1.1,1.9v8.6l-.8,9.2-.2,4.7,1,1.4-.2,4.7-.5,1.5,1,1.1,5.1-1.2,13.8-3.5,1.7-2.9,4-1.9Z"/><path id="NJ" class="cls-1" d="M823.7,222.45l.1-1.5,2.7-1.3,1.7-2.8,1.7-2.4,3.3-3.2v-1.2l-6.1-4.1-1-2.7-2.7-.3-.1-.9-.7-2.2,2.2-1.1.2-2.9-1.3-1.3.2-1.2,1.9-3.1v-3.1l2.5-3.1,5.6,2.5,6.4,1.9,2.5,1.2.1,1.8-.5,2.7.4,4.5-2.1,1.9-1.1,1,.5.5,2.7-.3,1.1-.8,1.6,3.4.2,9.4.6,1.1-1.1,5.5-3.1,6.5-2.7,4-.8,4.8-2.1,2.4h-.8l-.3-2.7.8-1-.2-1.5-4-.6-4.8-2.3-3.2-2.9-1-2Z"/><path id="NM" class="cls-1" d="M270.2,423.55,253.5,421l-1.2,9.6-15.8-2,6-39.7,7-53.2,4.4-30.9,34,3.9,37.4,4.4,32,2.8-.3,10.8-1.4-.1-7.4,97.7-28.4-1.8-38.1-3.7.7,6.3Z"/><path id="NV" class="cls-1" d="M123.1,167.75l38.7,8.5,26,5.2-10.6,53.1-5.4,29.8-3.3,15.5L166.4,291l-2.6,16.4-1.7,3.1-1.6-.1-1.2-2.6-2.8-.5-1.3-1.1-1.8.1-.9.8-1.8,1.3-.3,7.3-.3,1.5-.5,12.4-1.1,1.8-16.7-25.5-42.1-62.1-12.43-19,8.55-32.6,8-31.3Z"/><path id="NY" class="cls-1" d="M843.4,194.15l.5-2.7-.2-2.4-3-1.5-6.5-2-6-2.6-.6-.4-2.7-.3-2-1.5-2.1-5.9-3.3-.5-2.4-2.4-38.4,8.1-31.6,6-.5-6.5,1.6-1.2,1.3-1.1,1-1.6,1.8-1.1,1.9-1.8.5-1.6,2.1-2.7,1.1-1-.2-1-1.3-3.1-1.8-.2-1.9-6.1,2.9-1.8,4.4-1.5,4-1.3,3.2-.5,6.3-.2,1.9,1.3,1.6.2,2.1-1.3,2.6-1.1,5.2-.5,2.1-1.8,1.8-3.2,1.6-1.9h2.1l1.9-1.1.2-2.3-1.5-2.1-.3-1.5,1.1-2.1v-1.5h-1.8l-1.8-.8-.8-1.1-.2-2.6,5.8-5.5.6-.8,1.5-2.9,2.9-4.5,2.7-3.7,2.1-2.4,2.4-1.8,3.1-1.2,5.5-1.3,3.2.2,4.5-1.5,7.4-2.2.7,4.9,2.4,6.5.8,5-1,4.2,2.6,4.5.8,2-.9,3.2,3.7,1.7,2.7,10.2v5.8l-.6,10.9.8,5.4.7,3.6,1.5,7.3v8.1l-1.1,2.3,2.1,2.7.5.9-1.9,1.8.3,1.3,1.3-.3,1.5-1.3,2.3-2.6,1.1-.6,1.6.6,2.3.2,7.9-3.9,2.9-2.7,1.3-1.5,4.2,1.6-3.4,3.6-3.9,2.9-7.1,5.3-2.6,1-5.8,1.9-4,1.1-1-.4Z"/><path id="OH" class="cls-1" d="M663.8,205.35l1.7,15.5,4.8,41.1,3.9-.2,2.3-.8,3.6,1.8,1.7,4.2,5.4.1,1.8,2h1.7l2.4-1.4,3.1.5,1.5,1.3,1.8-2,2.3-1.4,2.4-.4.6,2.7,1.6,1,2.6,2,.8.2,2-.1,1.2-.6v-2.1l1.7-1.5.1-4.8,1.1-4.2,1.9-1.3,1,.7,1,1.1.7.2.4-.4-.9-2.7v-2.2l1.1-1.4,2.5-3.6,1.3-1.5,2.2.5,2.1-1.5,3-3.3,2.2-3.7.2-5.4.5-5v-4.6l-1.2-3.2,1.2-1.8,1.3-1.2-.6-2.8-4.3-25.6-6.2,3.7-3.9,2.3-3.4,3.7-4,3.9-3.2.8-2.9.5-5.5,2.6-2.1.2-3.4-3.1-5.2.6-2.6-1.5-2.2-1.3Z"/><path id="OK" class="cls-1" d="M411.9,329.05l-1.8,24.3-.9,18,.2,1.6,4,3.6,1.7.9h.9l.9-2.1,1.5,1.9,1.6.1.3-.2.2-1.1,2.8,1.4-.4,3.5,3.8.5,2.5,1,4.2.6,2.3,1.6,2.5-1.7,3.5.7,2.2,3.1,1.2.1v2.3l2.1.7,2.5-2.1,1.8.6,2.7.1.7,2.3,4.4,1.8,1.7-.3,1.9-4.2h1.3l1.1,2.1,4.2.8,3.4,1.3,3,.8,1.6-.7.7-2.7h4.5l1.9.9,2.7-1.9h1.4l.6,1.4h3.6l2-1.8,2.3.6,1.7,2.2,3,1.7,3.4.9,1.9,1.2-.3-37.6-1.4-10.9-.1-8.6-1.5-6.6-.6-6.8.1-4.3-12.6.3-46.3-.5-44.7-2.1L358.3,316l-.4,10.7Z"/><path id="OR" class="cls-1" d="M67.44,153.05l28.24,7.2,27.52,6.5,17,3.7,8.8-35.1,1.2-4.4,2.4-5.5-.7-1.3-2.5.1-1.3-1.8.6-1.5.4-3.3,4.7-5.7,1.9-.9.9-.8.7-2.7.8-1.1,3.9-5.7,3.7-4,.2-3.26L162.5,91l-1.2-4.55-13.1-3.83-15.3-3.47-14.8.37L117,78.21l-5.1,1.84-4.5-.48L105,78l-1.3.54L99,78.24l-2-1.43L92.22,75,91.12,75,86.67,73.7l-1.76,1.52L78.65,75l-5.31-3.85.21-9.28-2-3.5-4.1-.6-.7-2.5-2.4-.5-5.8,2.1-2.3,6.5-3.2,10-3.2,6.5L44.8,94l-6.5,13.6-8.1,12.6-1.9,2.9-.8,8.6-1.3,6,2.71,3.5Z"/><path id="PA" class="cls-1" d="M736.6,186.35l1.3-.5,5.7-5.5.7,6.9,33.5-6.5,36.9-7.8,2.3,2.3,3.1.4,2,5.6,2.4,1.9,2.8.4.1.1-2.6,3.2V190l-1.9,3.1-.2,1.9,1.3,1.3-.2,1.9-2.4,1.1,1,3.4.2,1.1,2.8.3.9,2.5,5.9,3.9v.4l-3.1,3-1.5,2.2-1.7,2.8-2.7,1.2-1.4.3-2.1,1.3-1.6,1.4-22.4,4.3-38.7,7.8-11.3,1.4-3.9.7-5.1-22.4L732.4,189Z"/><path id="RI" class="cls-1" d="M873.6,169.85l-.8-4.4-1.6-6,5.7-1.5,1.5,1.3,3.4,4.3,2.8,4.4-2.8,1.4-1.3-.2-1.1,1.8-2.4,1.9-2.8,1.1Z"/><path id="SC" class="cls-1" d="M759,407.75l-2.1-1-1.9-5.6-2.5-2.3-2.5-.5-1.5-4.6-3-6.5-4.2-1.8-1.9-1.8-1.2-2.6-2.4-2-2.3-1.3-2.2-2.9-3.2-2.4-4.4-1.7-.4-1.4-2.3-2.8-.5-1.5-3.8-5.4-3.4.1-3.9-2.5-1.2-1.2-.2-1.4.6-1.6,2.7-1.3-.8-2,6.4-2.7,9.2-4.5,7.1-.9,16.4-.5,2.3,1.9,1.8,3.5,4.6-.8,12.6-1.5,2.7.8,12.5,7.4,10.1,8.3-5.3,5.4-2.6,6.1-.5,6.3-1.6.8-1.1,2.7-2.4.6-2.1,3.6-2.7,2.7-2.3,3.4-1.6.8-3.6,3.4-2.9.2,1,3.2-5,5.3-2.3,1.6Z"/><path id="SD" class="cls-1" d="M471,175.25l-.9,3.2.4,3,2.6,2-1.2,5.4-1.8,4.1,1.5,3.3.7,1.1-1.3.1-.7-1.6-.6-2-3.3-1.8-4.8-1.5-2.5-1.3-2.9.1-3.9.4-3.8,1.2-5.3-3.8-2.7-2.4-10.9.8-41.5-2.4L352.5,181l1.5-24.8,2.8-34,.4-5,56.9,3.9,56.9,1.7v2.7l-1.3,1.5-2,1.5-.1,2.2,1.1,2.2,4.1,3.4.5,2.7v35.9Z"/><path id="TN" class="cls-1" d="M670.8,353.75,657.7,355l-23.3,2.2-37.6,2.7-11.8.4.9-.6.9-4.5-1.2-3.6,3.9-2.3.4-2.5,1.2-4.3,3-9.5.5-5.6.3-.2,12.3-.2,13.6-.8.1-3.9,3.5-.1,30.4-3.3,54-5.2,10.3-1.5,7.6-.2,2.4-1.9,1.3.3-.1,3.3-.4,1.6-2.4,2.2-1.6,3.6-2-.4-2.4.9-2.2,3.3-1.4-.2-.8-1.2-1.1.4-4.3,4-.8,3.1-4.2,2.2-4.3,3.6-3.8,1.5-4.4,2.8-.6,3.6-2.5.5-2,1.7-.2,4.8Z"/><path id="TX" class="cls-1" d="M282.8,419.75l37,3.6,29.3,1.9,7.4-97.7,54.4,2.4-1.7,23.3-1,18,.2,2,4.4,4.1,2,1.1h1.8l.5-1.2.7.9,2.4.2,1.1-.6v-.2l1,.5-.4,3.7,4.5.7,2.4.9,4.2.7,2.6,1.8,2.8-1.9,2.7.6,2.2,3.1.8.1v2.1l3.3,1.1,2.5-2.1,1.5.5,2.1.1.6,2.1,5.2,2,2.3-.5,1.9-4h.1l1.1,1.9,4.6.9,3.4,1.3,3.2,1,2.4-1.2.7-2.3h3.6l2.1,1,3-2h.4l.5,1.4h4.7l1.9-1.8,1.3.4,1.7,2.1,3.3,1.9,3.4,1,2.5,1.4,2.7,2,3.1-1.2,2.1.8.7,20,.7,9.5.6,4.1,2.6,4.4.9,4.5,4.2,5.9.3,3.1.6.8-.7,7.7-2.9,4.8,1.3,2.6-.5,2.4-.8,7.2-1.3,3,.3,4.2-5.6,1.6-9.9,4.5-1,1.9-2.6,1.9-2.1,1.5-1.3.8-5.7,5.3-2.7,2.1-5.3,3.2-5.7,2.4-6.3,3.4-1.8,1.5-5.8,3.6-3.4.6-3.9,5.5-4,.3-1,1.9,2.3,1.9-1.5,5.5-1.3,4.5-1.1,3.9-.8,4.5.8,2.4,1.8,7,1,6.1,1.8,2.7-1,1.5-3.1,1.9-5.7-3.9-5.5-1.1-1.3.5-3.2-.6-4.2-3.1-5.2-1.1-7.6-3.4-2.1-3.9-1.3-6.5-3.2-1.9-.6-2.3.6-.6.3-3.4-1.3-.6-.6-1,1.3-4.4-1.6-2.3-3.2-1.3-3.4-4.4-3.6-6.6-4.2-2.6.2-1.9-5.3-12.3-.8-4.2-1.8-1.9-.2-1.5-6-5.3-2.6-3.1V480l-2.6-2.1-6.8-1.1-7.4-.6-3.1-2.3-4.5,1.8-3.6,1.5-2.3,3.2-1,3.7-4.4,6.1-2.4,2.4-2.6-1-1.8-1.1-1.9-.6-3.9-2.3V487l-1.8-1.9-5.2-2.1-7.4-7.8-2.3-4.7v-8.1l-3.2-6.5-.5-2.7-1.6-1-1.1-2.1-5-2.1-1.3-1.6-7.1-7.9-1.3-3.2-4.7-2.3-1.5-4.4-2.6-2.9-1.7-.5Zm174.4,141.7-.6-7.1-2.7-7.2-.6-7,1.5-8.2,3.3-6.9,3.5-5.4,3.2-3.6.6.2-4.8,6.6-4.4,6.5-2,6.6-.3,5.2.9,6.1,2.6,7.2.5,5.2.2,1.5Z"/><path id="UT" class="cls-1" d="M228.4,300.05l24.6,3.6,1.9-13.7,7-50.5,2.3-22L232,214l2.2-13.1,1.8-10.6-34.7-6.1-12.5-2.5-10.6,52.9-5.4,30L169.5,280l-1.7,9.2Z"/><path id="VA" class="cls-1" d="M834.7,259.35l-.2,2.8-2.9,3.8-.4,4.6.5,3.4-1.8,5-2.2,1.9-1.5-4.6.4-5.4,1.6-4.2.7-3.3-.1-1.7ZM774.4,304l-38.6,5.6-4.8-.1-2.2-.3-2.5,1.9-7.3.1-10.3,1.6-6.7.6,4.1-2.6,4.1-2.3v-2.1l5.7-7.3,4.1-3.7,2.2-2.5,3.6,4.3,3.8.9,2.7-1,2-1.5,2.4,1.2,4.6-1.3,1.7-4.4,2.4.7,3.2-2.3,1.6.4,2.8-3.2.2-2.7-.8-1.2,4.8-10.5,1.8-5.2.5-4.7.7-.2,1.1,1.7,1.5,1.2,3.9-.2,1.7-8.1,3-.6.8-2.6,2.8-2.2,1.1-2.1,1.8-4.3.1-4.6,3.6,1.4,6.6,3.1.3-5.2,3.4,1.2-.6,2.9,8.6,3.1,1.4,1.8-.8,3.3-1.3,1.3-.5,1.7.5,2.4,2,1.3,3.9,1.4,2.9,1,4.9.9,2.2,2.1,3.2.4.9,1.2-.4,4.7,1.4,1.1-.5,1.9,1.2.8-.2,1.4-2.7-.1.1,1.6,2.3,1.5.1,1.4,1.8,1.8.5,2.5-2.6,1.4,1.6,1.5,5.8-1.7,3.7,6.2Z"/><path id="VT" class="cls-1" d="M832.7,105.45l2.4,6.5.8,5.3-1,3.9,2.5,4.4.9,2.3-.7,2.6,3.3,1.5,2.9,10.8v5.3l11.5-2.1-1-1.1.6-1.9.2-4.3-1-1.4.2-4.7.8-9.3v-8.5L854,113v-1.6l2.8-1.1,3.5-4.4v-3.6l-1.9-2.7-.3-5.79L832,100.55Z"/><path id="WA" class="cls-1" d="M74.5,61.85l-2.3-4.3-4.1-.7-.4-2.4-2.5-.6-2.9-.5-1.8,1-2.3-2.9.3-2.9,2.7-.3,1.6-4-2.6-1.1.2-3.7,4.4-.6-2.7-2.7-1.5-7.1.6-2.9v-7.9l-1.8-3.2,2.3-9.4,2.1.5,2.4,2.9,2.7,2.6,3.2,1.9,4.5,2.1,3.1.6,2.9,1.5,3.4,1,2.3-.2v-2.4l1.3-1.1,2.1-1.3.3,1.1.3,1.8-2.3.5-.3,2.1,1.8,1.5,1.1,2.4.6,1.9,1.5-.2.2-1.3-1-1.3-.5-3.2.8-1.8-.6-1.5v-2.6l1.8-3.6L94.3,7l-2.4-4.8.3-.8,1.4-.8L98,2.05l9.7,2.7,8.6,1.9,20,5.7,23,5.7,15,3.49L169.5,39.1,165,59.93l-3.4,16.25-.4,9.18h0l-12.9-3.72L133,78.17l-14.5.32L117.4,77l-5.7,2.09-3.9-.42-2.6-1.79-1.7.65-4.15-.25-1.72-1.32L92.47,74.1l-1.18-.16-4.8-1.39L84.57,74.2,78.92,74,74.31,70.6Zm9.6-55.4,2-.2.5,1.4,1.5-1.6h2.3l.8,1.5-1.5,1.7.6.8-.7,2-1.4.4s-.9.1-.9-.2a20,20,0,0,1,1.5-2.6l-1.7-.6-.3,1.5-.7.6-1.5-2.3Z"/><path id="WI" class="cls-1" d="M541.4,104.05l2.9.5,2.9-.6,7.4-3.2,2.9-1.9,2.1-.8,1.9,1.5-1.1,1.1-1.9,3.1-.6,1.9,1,.6,1.8-1,1.1-.2,2.7.8.6,1.1,1.1.2.6-1.1,4,5.3,8.2,1.2,8.2,2.2,2.6,1.1,12.3,2.6,1.6,2.3,3.6,1.2,1.7,10.2,1.6,1.4,1.5.9-1.1,2.3-1.8,1.6-2.1,4.7-1.3,2.4.2,1.8,1.5.3,1.1-1.9,1.5-.8.8-2.3,1.9-1.8,2.7-4,4.2-6.3.8-.5.3,1-.2,2.3-2.9,6.8-2.7,5.7-.5,3.2-.6,2.6.8,1.3-.2,2.7-1.9,2.4-.5,1.8.6,3.6.6,3.4-1.5,2.6-.8,2.9-1,3.1,1.1,2.4.6,6.1,1.6,4.5-.2,3-15.9,1.8-17.5,1H567l-.7-1.5-2.9-.4-2.6-1.3-2.3-3.7-.3-3.6,2-2.9-.5-1.4-2.1-2.2-.8-3.3-.6-6.8-2.1-2.5-7-4.5-3.8-5.4-3.4-1-2.2-2.8h-3.2l-2.9-3.3-.5-6.5.1-3.8,1.5-3.1-.8-3.2-2.5-2.8,1.8-5.4,5.2-3.8,1.6-1.9-.2-8.1.2-2.8,2.4-2.8Z"/><path id="WV" class="cls-1" d="M758.9,248.45l5.8-6,2.6-.8,1.6-1.5,1.5-2.2,1.1.3,3.1-.2,4.6-3.6,1.5-.5,1.3,1,2.6,1.2,3,3-.4,4.3-5.4-2.6-4.8-1.8-.1,5.9-2.6,5.7-2.9,2.4-.8,2.3-3,.5-1.7,8.1-2.8.2-1.1-1-1.2-2-2.2.5-.5,5.1-1.8,5.1-5,11,.9,1.4-.1,2-2.2,2.5-1.6-.4-3.1,2.3-2.8-.8-1.8,4.9-3.8,1-2.5-1.3-2.5,1.9-2.3.7-3.2-.8-3.8-4.5-3.5-2.2-2.5-2.5-2.9-3.7-.5-2.3-2.8-1.7-.6-1.3-.2-5.6.3.1,2.4-.2,1.8-1v-2.2l1.7-1.5.1-5.2.9-3.6,1.1-.7.4.3,1,1.1,1.7.5,1.1-1.3-1-3.1v-1.6l3.1-4.6,1.2-1.3,2,.5,2.6-1.8,3.1-3.4,2.4-4.1.2-5.6.5-4.8v-4.9l-1.1-3,.9-1.3.8-.7,4.3,19.3,4.3-.8,11.2-1.3Z"/><path id="WY" class="cls-1" d="M353,156.05l-1.5,25.4-4.4,44-2.7-.3-83.3-9.1-27.9-3,2-12,6.9-41,3.8-24.2,1.3-11.2,48.2,7,59.1,6.5Z"/><g id="DC"><path id="DC1" class="cls-1" d="M801.8,248l-1.1-1.6-1-.8,1.1-1.6,2.2,1.5Z"/><circle id="DC2" class="cls-2" cx="801.3" cy="245.95" r="5"/></g></g><path id="frames" class="cls-3" d="M215,487.15v55l36,45M0,419.15H147l68,68h85l54,54v46"/></g></g></svg>