<svg xmlns="http://www.w3.org/2000/svg" viewBox="0 0 143.83 71.93"><defs><style>.cls-1{fill:#FCF6EC;stroke:#E6804;stroke-miterlimit:10;}</style></defs><title>NE</title><g id="Layer_2" data-name="Layer 2"><g id="Layer_1-2" data-name="Layer 1"><g id="outlines"><path id="NE" class="cls-1" d="M122.75,17.13l-1-2.3-.5-1.6-2.9-1.6-4.8-1.5-2.2-1.2-2.6.1-3.7.4-4.2,1.2-6-4.1-2.2-2L82,5.13l-41.5-2.4L4.85.53.55,44.23l33.1,3.3-1.4,21.1,21.7,1,40.6,1.2,43.8.6h4.5l-2.2-3-2.6-3.9.1-2.3-1.4-2.7-1.9-5.2-.4-6.7-1.4-4.1-.5-5-2.3-3.7-1-4.7-2.8-7.9-1-5.3Z"/></g></g></g></svg>