<svg xmlns="http://www.w3.org/2000/svg" viewBox="0 0 24.83 55.11"><defs><style>.cls-1{fill:#FCF6EC;stroke:#E6804;stroke-miterlimit:10;}</style></defs><title>NJ</title><g id="Layer_2" data-name="Layer 2"><g id="Layer_1-2" data-name="Layer 1"><g id="outlines"><path id="NJ" class="cls-1" d="M1.71,39l.1-1.5,2.7-1.3,1.7-2.8L7.91,31l3.3-3.2v-1.2l-6.1-4.1-1-2.7-2.7-.3-.1-.9-.7-2.2,2.2-1.1.2-2.9-1.3-1.3.2-1.2,1.9-3.1V3.71L6.31.61l5.6,2.5L18.31,5l2.5,1.2.1,1.8-.5,2.7.4,4.5-2.1,1.9-1.1,1,.5.5,2.7-.3,1.1-.8,1.6,3.4.2,9.4.6,1.1-1.1,5.5-3.1,6.5-2.7,4-.8,4.8-2.1,2.4h-.8l-.3-2.7.8-1-.2-1.5-4-.6-4.8-2.3L2,43.61l-1-2Z"/></g></g></g></svg>