<svg xmlns="http://www.w3.org/2000/svg" viewBox="0 0 128.3 98.77"><defs><style>.cls-1{fill:#FCF6EC;stroke:#E6804;stroke-miterlimit:10;}</style></defs><title>NY</title><g id="Layer_2" data-name="Layer 2"><g id="Layer_1-2" data-name="Layer 1"><g id="outlines"><path id="NY" class="cls-1" d="M99.32,94l.5-2.7-.2-2.4-3-1.5-6.5-2-6-2.6-.6-.4-2.7-.3-2-1.5-2.1-5.9-3.3-.5L71,71.84l-38.4,8.1L1,85.94l-.5-6.5,1.6-1.2,1.3-1.1,1-1.6,1.8-1.1,1.9-1.8.5-1.6,2.1-2.7,1.1-1-.2-1-1.3-3.1L8.52,63l-1.9-6.1,2.9-1.8,4.4-1.5,4-1.3,3.2-.5,6.3-.2,1.9,1.3,1.6.2,2.1-1.3,2.6-1.1,5.2-.5,2.1-1.8,1.8-3.2,1.6-1.9h2.1l1.9-1.1.2-2.3L49,37.84l-.3-1.5,1.1-2.1v-1.5H48l-1.8-.8-.8-1.1-.2-2.6,5.8-5.5.6-.8,1.5-2.9,2.9-4.5,2.7-3.7,2.1-2.4,2.4-1.8,3.1-1.2,5.5-1.3,3.2.2,4.5-1.5,7.4-2.2.7,4.9L90,12l.8,5-1,4.2,2.6,4.5.8,2-.9,3.2,3.7,1.7,2.7,10.2v5.8l-.6,10.9.8,5.4.7,3.6,1.5,7.3v8.1l-1.1,2.3,2.1,2.7.5.9-1.9,1.8.3,1.3,1.3-.3,1.5-1.3,2.3-2.6,1.1-.6,1.6.6,2.3.2L119,85l2.9-2.7,1.3-1.5,4.2,1.6L124,86l-3.9,2.9-7.1,5.3-2.6,1-5.8,1.9-4,1.1-1-.4Z"/></g></g></g></svg>