<svg xmlns="http://www.w3.org/2000/svg" viewBox="0 0 155.72 68.73"><defs><style>.cls-1{fill:#FCF6EC;stroke:#E6804;stroke-miterlimit:10;}</style></defs><title>NC</title><g id="Layer_2" data-name="Layer 2"><g id="Layer_1-2" data-name="Layer 1"><g id="outlines"><path id="NC" class="cls-1" d="M97.31,59.88l-12.7-7.7-3.1-.8-16.6,2.1-1.6-3-2.8-2.2-16.7.5-7.4.9-9.2,4.5-6.8,2.7-6.5,1.2L.51,59.48l.1-4.1,1.7-1.3,2.7-.7.7-3.8,3.9-2.5,3.9-1.5,4.5-3.7,4.4-2.3.7-3.2,4.1-3.8.7,1,2.5.2,2.4-3.6,1.7-.4,2.6.3,1.8-4,2.5-2.4.5-1.8.1-3.5,4.4.1,38.5-5.6L142.41.58l2,4.8,3.6,6.5,2.4,2.4.6,2.3-2.4.2.8.6-.3,4.2-2.6,1.3-.6,2.1-1.3,2.9-3.7,1.6-2.4-.3L137,29l-1.6-1.3.3,1.3v1h1.9l.8,1.3-1.9,6.3h4.2l.6,1.6,2.3-2.3,1.3-.5L143,40l-3.1,4.8h-1.3l-1.1-.5-2.7.6-5.2,2.4-6.5,5.3-3.4,4.7-1.9,6.5-.5,2.4-4.7.5-5.1,1.5Zm49.3-26.2,2.6-2.5,3.2-2.6,1.5-.6.2-2-.6-6.1-1.5-2.3-.6-1.9.7-.2,2.7,5.5.4,4.4-.2,3.4-3.4,1.5-2.8,2.4-1.1,1.2Z"/></g></g></g></svg>