<svg xmlns="http://www.w3.org/2000/svg" viewBox="0 0 73.7 83.31"><defs><style>.cls-1{fill:#FCF6EC;stroke:#E6804;stroke-miterlimit:10;}</style></defs><title>OH</title><g id="Layer_2" data-name="Layer 2"><g id="Layer_1-2" data-name="Layer 1"><g id="outlines"><path id="OH" class="cls-1" d="M.55,16.6l1.7,15.5,4.8,41.1L11,73l2.3-.8,3.6,1.8,1.7,4.2,5.4.1,1.8,2h1.7l2.4-1.4,3.1.5,1.5,1.3,1.8-2,2.3-1.4,2.4-.4.6,2.7,1.6,1,2.6,2,.8.2,2-.1,1.2-.6V80l1.7-1.5.1-4.8,1.1-4.2,1.9-1.3,1,.7,1,1.1.7.2.4-.4-.9-2.7V64.9l1.1-1.4,2.5-3.6,1.3-1.5,2.2.5L66,57.4l3-3.3,2.2-3.7.2-5.4.5-5V35.4l-1.2-3.2,1.2-1.8,1.3-1.2-.6-2.8L68.25.8l-6.2,3.7-3.9,2.3-3.4,3.7-4,3.9-3.2.8-2.9.5-5.5,2.6-2.1.2-3.4-3.1-5.2.6-2.6-1.5-2.2-1.3Z"/></g></g></g></svg>