<svg xmlns="http://www.w3.org/2000/svg" viewBox="0 0 140.75 116.81"><defs><style>.cls-1{fill:#FCF6EC;stroke:#E6804;stroke-miterlimit:10;}</style></defs><title>OR</title><g id="Layer_2" data-name="Layer 2"><g id="Layer_1-2" data-name="Layer 1"><g id="outlines"><path id="OR" class="cls-1" d="M41.78,98.82,70,106l27.52,6.5,17,3.7,8.8-35.1,1.2-4.4,2.4-5.5-.7-1.3-2.5.1-1.3-1.8.6-1.5.4-3.3,4.7-5.7,1.9-.9.9-.8.7-2.7.8-1.1,3.9-5.7,3.7-4,.2-3.26-3.4-2.49-1.2-4.55-13.1-3.83-15.3-3.47-14.8.37L91.34,24l-5.1,1.84-4.5-.48-2.4-1.58L78,24.3,73.36,24l-2-1.43-4.84-1.77-1.1-.07L61,19.47,59.25,21,53,20.75,47.68,16.9l.21-9.28-2-3.5-4.1-.6L41,1l-2.4-.5-5.8,2.1-2.3,6.5-3.2,10-3.2,6.5-5,14.1-6.5,13.6-8.1,12.6-1.9,2.9-.8,8.6-1.3,6,2.71,3.5Z"/></g></g></g></svg>