<svg xmlns="http://www.w3.org/2000/svg" viewBox="0 0 100.85 65.42"><defs><style>.cls-1{fill:#FCF6EC;stroke:#E6804;stroke-miterlimit:10;}</style></defs><title>PA</title><g id="Layer_2" data-name="Layer 2"><g id="Layer_1-2" data-name="Layer 1"><g id="outlines"><path id="PA" class="cls-1" d="M4.75,14l1.3-.5L11.75,8l.7,6.9L46,8.35,82.85.55l2.3,2.3,3.1.4,2,5.6,2.4,1.9,2.8.4.1.1L93,14.45v3.1l-1.9,3.1-.2,1.9,1.3,1.3-.2,1.9-2.4,1.1,1,3.4.2,1.1,2.8.3.9,2.5,5.9,3.9v.4l-3.1,3-1.5,2.2-1.7,2.8-2.7,1.2L90,48l-2.1,1.3-1.6,1.4L63.85,55l-38.7,7.8-11.3,1.4-3.9.7-5.1-22.4L.55,16.55Z"/></g></g></g></svg>