<svg xmlns="http://www.w3.org/2000/svg" viewBox="0 0 89.45 67.65"><defs><style>.cls-1{fill:#FCF6EC;stroke:#E6804;stroke-miterlimit:10;}</style></defs><title>SC</title><g id="Layer_2" data-name="Layer 2"><g id="Layer_1-2" data-name="Layer 1"><g id="outlines"><path id="SC" class="cls-1" d="M51.51,67.11l-2.1-1-1.9-5.6L45,58.21l-2.5-.5L41,53.11l-3-6.5-4.2-1.8L31.91,43l-1.2-2.6-2.4-2L26,37.11l-2.2-2.9-3.2-2.4-4.4-1.7-.4-1.4-2.3-2.8-.5-1.5L9.21,19l-3.4.1-3.9-2.5-1.2-1.2L.51,14l.6-1.6,2.7-1.3-.8-2,6.4-2.7,9.2-4.5,7.1-.9,16.4-.5,2.3,1.9,1.8,3.5,4.6-.8,12.6-1.5,2.7.8,12.5,7.4,10.1,8.3-5.3,5.4-2.6,6.1-.5,6.3-1.6.8-1.1,2.7-2.4.6-2.1,3.6-2.7,2.7-2.3,3.4-1.6.8-3.6,3.4-2.9.2,1,3.2-5,5.3-2.3,1.6Z"/></g></g></g></svg>