<svg xmlns="http://www.w3.org/2000/svg" viewBox="0 0 121.83 81.36"><defs><style>.cls-1{fill:#FCF6EC;stroke:#E6804;stroke-miterlimit:10;}</style></defs><title>SD</title><g id="Layer_2" data-name="Layer 2"><g id="Layer_1-2" data-name="Layer 1"><g id="outlines"><path id="SD" class="cls-1" d="M119,58.63l-.9,3.2.4,3,2.6,2-1.2,5.4-1.8,4.1,1.5,3.3.7,1.1-1.3.1-.7-1.6-.6-2-3.3-1.8-4.8-1.5-2.5-1.3-2.9.1-3.9.4-3.8,1.2-5.3-3.8-2.7-2.4-10.9.8-41.5-2.4L.53,64.33,2,39.53l2.8-34,.4-5,56.9,3.9L119,6.13v2.7l-1.3,1.5-2,1.5-.1,2.2,1.1,2.2,4.1,3.4.5,2.7v35.9Z"/></g></g></g></svg>