<svg xmlns="http://www.w3.org/2000/svg" viewBox="0 0 147.65 51.3"><defs><style>.cls-1{fill:#FCF6EC;stroke:#E6804;stroke-miterlimit:10;}</style></defs><title>TN</title><g id="Layer_2" data-name="Layer 2"><g id="Layer_1-2" data-name="Layer 1"><g id="outlines"><path id="TN" class="cls-1" d="M87.54,44.24l-13.1,1.2-23.3,2.2-37.6,2.7-11.8.4.9-.6.9-4.5L2.34,42l3.9-2.3.4-2.5,1.2-4.3,3-9.5.5-5.6.3-.2,12.3-.2,13.6-.8.1-3.9,3.5-.1,30.4-3.3,54-5.2,10.3-1.5,7.6-.2,2.4-1.9,1.3.3-.1,3.3-.4,1.6-2.4,2.2-1.6,3.6-2-.4-2.4.9-2.2,3.3-1.4-.2-.8-1.2-1.1.4-4.3,4-.8,3.1-4.2,2.2-4.3,3.6-3.8,1.5-4.4,2.8-.6,3.6-2.5.5-2,1.7-.2,4.8Z"/></g></g></g></svg>