<svg xmlns="http://www.w3.org/2000/svg" viewBox="0 0 117.24 86.01"><defs><style>.cls-1{fill:#FCF6EC;stroke:#E6804;stroke-miterlimit:10;}</style></defs><title>WA</title><g id="Layer_2" data-name="Layer 2"><g id="Layer_1-2" data-name="Layer 1"><g id="outlines"><path id="WA" class="cls-1" d="M16.82,61.85l-2.3-4.3-4.1-.7-.4-2.4-2.5-.6-2.9-.5-1.8,1-2.3-2.9.3-2.9,2.7-.3,1.6-4-2.6-1.1.2-3.7,4.4-.6-2.7-2.7-1.5-7.1.6-2.9v-7.9l-1.8-3.2L4,5.65l2.1.5,2.4,2.9,2.7,2.6,3.2,1.9,4.5,2.1,3.1.6,2.9,1.5,3.4,1,2.3-.2v-2.4l1.3-1.1,2.1-1.3.3,1.1.3,1.8-2.3.5-.3,2.1,1.8,1.5,1.1,2.4.6,1.9,1.5-.2.2-1.3-1-1.3-.5-3.2.8-1.8-.6-1.5v-2.6l1.8-3.6L36.62,7l-2.4-4.8.3-.8,1.4-.8,4.4,1.5L50,4.75l8.6,1.9,20,5.7,23,5.7,15,3.49-4.8,17.56-4.5,20.83-3.4,16.25-.4,9.18h0l-12.9-3.72-15.3-3.47-14.5.32L59.72,77,54,79.05l-3.9-.42-2.6-1.79-1.7.65-4.15-.25L40,75.92,34.79,74.1l-1.18-.16-4.8-1.39L26.89,74.2,21.24,74,16.63,70.6Zm9.6-55.4,2-.2.5,1.4,1.5-1.6h2.3l.8,1.5L32,9.25l.6.8-.7,2-1.4.4s-.9.1-.9-.2a20,20,0,0,1,1.5-2.6l-1.7-.6-.3,1.5-.7.6-1.5-2.3Z"/></g></g></g></svg>