<svg xmlns="http://www.w3.org/2000/svg" viewBox="0 0 79.14 79.45"><defs><style>.cls-1{fill:#FCF6EC;stroke:#E6804;stroke-miterlimit:10;}</style></defs><title>WV</title><g id="Layer_2" data-name="Layer 2"><g id="Layer_1-2" data-name="Layer 1"><g id="outlines"><path id="WV" class="cls-1" d="M49.93,30.33l5.8-6,2.6-.8,1.6-1.5,1.5-2.2,1.1.3,3.1-.2,4.6-3.6,1.5-.5,1.3,1,2.6,1.2,3,3-.4,4.3-5.4-2.6L68,20.93l-.1,5.9-2.6,5.7-2.9,2.4-.8,2.3-3,.5-1.7,8.1-2.8.2L53,45l-1.2-2-2.2.5-.5,5.1-1.8,5.1-5,11,.9,1.4-.1,2-2.2,2.5-1.6-.4-3.1,2.3-2.8-.8-1.8,4.9-3.8,1-2.5-1.3-2.5,1.9-2.3.7-3.2-.8-3.8-4.5L10,71.43l-2.5-2.5-2.9-3.7-.5-2.3-2.8-1.7-.6-1.3-.2-5.6.3.1,2.4-.2,1.8-1V51l1.7-1.5.1-5.2.9-3.6,1.1-.7.4.3,1,1.1,1.7.5,1.1-1.3-1-3.1v-1.6l3.1-4.6,1.2-1.3,2,.5,2.6-1.8,3.1-3.4,2.4-4.1.2-5.6.5-4.8V5.93l-1.1-3,.9-1.3.8-.7L32,20.23l4.3-.8,11.2-1.3Z"/></g></g></g></svg>