<svg xmlns="http://www.w3.org/2000/svg" viewBox="0 0 92.47 97.17"><defs><style>.cls-1{fill:#FCF6EC;stroke:#E6804;stroke-miterlimit:10;}</style></defs><title>WI</title><g id="Layer_2" data-name="Layer 2"><g id="Layer_1-2" data-name="Layer 1"><g id="outlines"><path id="WI" class="cls-1" d="M12.57,6.57l2.9.5,2.9-.6,7.4-3.2,2.9-1.9,2.1-.8,1.9,1.5-1.1,1.1-1.9,3.1-.6,1.9,1,.6,1.8-1,1.1-.2,2.7.8.6,1.1,1.1.2.6-1.1,4,5.3,8.2,1.2,8.2,2.2,2.6,1.1L73.27,21l1.6,2.3,3.6,1.2,1.7,10.2,1.6,1.4,1.5.9-1.1,2.3-1.8,1.6-2.1,4.7L77,48l.2,1.8,1.5.3,1.1-1.9,1.5-.8.8-2.3,1.9-1.8,2.7-4,4.2-6.3.8-.5.3,1-.2,2.3-2.9,6.8-2.7,5.7-.5,3.2-.6,2.6.8,1.3-.2,2.7-1.9,2.4-.5,1.8.6,3.6.6,3.4L83,71.87l-.8,2.9-1,3.1,1.1,2.4.6,6.1,1.6,4.5-.2,3-15.9,1.8-17.5,1H38.17l-.7-1.5-2.9-.4L32,93.47l-2.3-3.7-.3-3.6,2-2.9-.5-1.4-2.1-2.2-.8-3.3-.6-6.8-2.1-2.5-7-4.5-3.8-5.4-3.4-1-2.2-2.8H5.67l-2.9-3.3-.5-6.5.1-3.8,1.5-3.1-.8-3.2-2.5-2.8,1.8-5.4,5.2-3.8,1.6-1.9L9,11.47l.2-2.8,2.4-2.8Z"/></g></g></g></svg>